<svg width="28" height="28" viewBox="0 0 28 28" fill="none" xmlns="http://www.w3.org/2000/svg">
<path d="M14.5 2C11.1972 2.04007 8.04105 3.3699 5.70548 5.70548C3.3699 8.04105 2.04007 11.1972 2 14.5C2.04007 17.8028 3.3699 20.959 5.70548 23.2945C8.04105 25.6301 11.1972 26.9599 14.5 27C17.8028 26.9599 20.959 25.6301 23.2945 23.2945C25.6301 20.959 26.9599 17.8028 27 14.5C26.9599 11.1972 25.6301 8.04105 23.2945 5.70548C20.959 3.3699 17.8028 2.04007 14.5 2ZM21.6429 15.3929H15.3929V21.6429H13.6071V15.3929H7.35714V13.6071H13.6071V7.35714H15.3929V13.6071H21.6429V15.3929Z" fill="#F96C9F"/>
</svg>
