<svg width="460" height="307" viewBox="0 0 460 307" fill="none" xmlns="http://www.w3.org/2000/svg">
<path d="M377.434 27.7715H81.0469V231.815H377.434V27.7715Z" fill="#E0E0E0"/>
<path d="M170.316 86.4185H131.143V210.563H170.316V86.4185Z" fill="#F5F5F5"/>
<path d="M170.31 86.4185H150.727V210.22H170.31V86.4185Z" fill="#EBEBEB"/>
<path d="M149.444 74.2317H135.613V86.4186H149.444V74.2317Z" fill="#F5F5F5"/>
<path d="M149.452 74.2317H146.152V86.4186H149.452V74.2317Z" fill="#EBEBEB"/>
<path d="M127.881 86.4185V85.7131H171.464V86.4185" fill="#E0E0E0"/>
<path d="M142.195 91.7361H138.877V98.7281H142.195V91.7361Z" fill="#FAFAFA"/>
<path d="M150.726 101.47C150.726 101.543 146.341 101.605 140.913 101.605C135.485 101.605 131.1 101.543 131.1 101.47C131.1 101.396 135.485 101.341 140.913 101.341C146.341 101.341 150.726 101.396 150.726 101.47Z" fill="#E0E0E0"/>
<path d="M161.951 91.7361H158.633V98.7281H161.951V91.7361Z" fill="#E0E0E0"/>
<path d="M170.508 101.47C170.508 101.543 166.122 101.605 160.694 101.605C155.266 101.605 150.881 101.543 150.881 101.47C150.881 101.396 155.266 101.341 160.694 101.341C166.122 101.341 170.508 101.396 170.508 101.47Z" fill="#E0E0E0"/>
<path d="M161.951 105.616H158.633V112.608H161.951V105.616Z" fill="#E0E0E0"/>
<path d="M170.508 115.356C170.508 115.429 166.122 115.484 160.694 115.484C155.266 115.484 150.881 115.429 150.881 115.356C150.881 115.282 155.266 115.221 160.694 115.221C166.122 115.221 170.508 115.307 170.508 115.356Z" fill="#E0E0E0"/>
<path d="M161.951 119.919H158.633V126.911H161.951V119.919Z" fill="#E0E0E0"/>
<path d="M170.508 129.652C170.508 129.726 166.122 129.787 160.694 129.787C155.266 129.787 150.881 129.726 150.881 129.652C150.881 129.579 155.266 129.517 160.694 129.517C166.122 129.517 170.508 129.579 170.508 129.652Z" fill="#E0E0E0"/>
<path d="M161.951 134.216H158.633V141.208H161.951V134.216Z" fill="#E0E0E0"/>
<path d="M170.508 143.949C170.508 144.023 166.122 144.084 160.694 144.084C155.266 144.084 150.881 144.023 150.881 143.949C150.881 143.876 155.266 143.82 160.694 143.82C166.122 143.82 170.508 143.876 170.508 143.949Z" fill="#E0E0E0"/>
<path d="M161.951 148.107H158.633V155.099H161.951V148.107Z" fill="#E0E0E0"/>
<path d="M170.508 157.841C170.508 157.915 166.122 157.976 160.694 157.976C155.266 157.976 150.881 157.915 150.881 157.841C150.881 157.768 155.266 157.706 160.694 157.706C166.122 157.706 170.508 157.768 170.508 157.841Z" fill="#E0E0E0"/>
<path d="M161.951 162.055H158.633V169.047H161.951V162.055Z" fill="#E0E0E0"/>
<path d="M161.951 176.186H158.633V183.178H161.951V176.186Z" fill="#E0E0E0"/>
<path d="M170.508 171.788C170.508 171.862 166.122 171.923 160.694 171.923C155.266 171.923 150.881 171.862 150.881 171.788C150.881 171.715 155.266 171.654 160.694 171.654C166.122 171.654 170.508 171.733 170.508 171.788Z" fill="#E0E0E0"/>
<path d="M142.195 105.83H138.877V112.822H142.195V105.83Z" fill="#FAFAFA"/>
<path d="M150.726 115.564C150.726 115.638 146.341 115.699 140.913 115.699C135.485 115.699 131.1 115.638 131.1 115.564C131.1 115.491 135.485 115.429 140.913 115.429C146.341 115.429 150.726 115.491 150.726 115.564Z" fill="#E0E0E0"/>
<path d="M142.195 119.919H138.877V126.911H142.195V119.919Z" fill="#FAFAFA"/>
<path d="M150.726 129.658C150.726 129.732 146.341 129.793 140.913 129.793C135.485 129.793 131.1 129.732 131.1 129.658C131.1 129.585 135.485 129.523 140.913 129.523C146.341 129.523 150.726 129.585 150.726 129.658Z" fill="#E0E0E0"/>
<path d="M142.195 134.013H138.877V141.005H142.195V134.013Z" fill="#FAFAFA"/>
<path d="M150.726 143.747C150.726 143.826 146.341 143.882 140.913 143.882C135.485 143.882 131.1 143.826 131.1 143.747C131.1 143.667 135.485 143.618 140.913 143.618C146.341 143.618 150.726 143.673 150.726 143.747Z" fill="#E0E0E0"/>
<path d="M142.195 148.107H138.877V155.099H142.195V148.107Z" fill="#FAFAFA"/>
<path d="M150.726 157.841C150.726 157.915 146.341 157.976 140.913 157.976C135.485 157.976 131.1 157.915 131.1 157.841C131.1 157.768 135.485 157.706 140.913 157.706C146.341 157.706 150.726 157.768 150.726 157.841Z" fill="#E0E0E0"/>
<path d="M142.195 162.202H138.877V169.194H142.195V162.202Z" fill="#FAFAFA"/>
<path d="M150.726 171.935C150.726 172.009 146.341 172.07 140.913 172.07C135.485 172.07 131.1 172.009 131.1 171.935C131.1 171.862 135.485 171.801 140.913 171.801C146.341 171.801 150.726 171.862 150.726 171.935Z" fill="#E0E0E0"/>
<path d="M142.195 176.29H138.877V183.282H142.195V176.29Z" fill="#FAFAFA"/>
<path d="M355.254 106.879H316.08V231.024H355.254V106.879Z" fill="#F5F5F5"/>
<path d="M355.25 106.879H335.666V230.681H355.25V106.879Z" fill="#EBEBEB"/>
<path d="M334.385 94.6924H320.555V106.879H334.385V94.6924Z" fill="#F5F5F5"/>
<path d="M334.39 94.6924H331.09V106.879H334.39V94.6924Z" fill="#EBEBEB"/>
<path d="M312.818 106.879V106.168H356.402V106.879" fill="#E0E0E0"/>
<path d="M327.135 112.197H323.816V119.189H327.135V112.197Z" fill="#FAFAFA"/>
<path d="M335.666 121.931C335.666 122.004 331.28 122.065 325.852 122.065C320.424 122.065 316.039 122.004 316.039 121.931C316.039 121.857 320.424 121.802 325.852 121.802C331.28 121.802 335.666 121.857 335.666 121.931Z" fill="#E0E0E0"/>
<path d="M346.89 112.197H343.572V119.189H346.89V112.197Z" fill="#E0E0E0"/>
<path d="M355.425 121.931C355.425 122.004 351.04 122.065 345.612 122.065C340.184 122.065 335.799 122.004 335.799 121.931C335.799 121.857 340.184 121.802 345.612 121.802C351.04 121.802 355.425 121.857 355.425 121.931Z" fill="#E0E0E0"/>
<path d="M346.89 126.076H343.572V133.068H346.89V126.076Z" fill="#E0E0E0"/>
<path d="M355.425 135.81C355.425 135.89 351.04 135.945 345.612 135.945C340.184 135.945 335.799 135.89 335.799 135.81C335.799 135.73 340.184 135.681 345.612 135.681C351.04 135.681 355.425 135.737 355.425 135.81Z" fill="#E0E0E0"/>
<path d="M346.89 140.38H343.572V147.372H346.89V140.38Z" fill="#E0E0E0"/>
<path d="M355.425 150.113C355.425 150.187 351.04 150.248 345.612 150.248C340.184 150.248 335.799 150.187 335.799 150.113C335.799 150.039 340.184 149.978 345.612 149.978C351.04 149.978 355.425 150.039 355.425 150.113Z" fill="#E0E0E0"/>
<path d="M346.89 154.676H343.572V161.668H346.89V154.676Z" fill="#E0E0E0"/>
<path d="M355.425 164.41C355.425 164.484 351.04 164.545 345.612 164.545C340.184 164.545 335.799 164.484 335.799 164.41C335.799 164.336 340.184 164.281 345.612 164.281C351.04 164.281 355.425 164.336 355.425 164.41Z" fill="#E0E0E0"/>
<path d="M346.89 168.568H343.572V175.56H346.89V168.568Z" fill="#E0E0E0"/>
<path d="M355.425 178.302C355.425 178.376 351.04 178.437 345.612 178.437C340.184 178.437 335.799 178.376 335.799 178.302C335.799 178.228 340.184 178.167 345.612 178.167C351.04 178.167 355.425 178.228 355.425 178.302Z" fill="#E0E0E0"/>
<path d="M346.89 182.516H343.572V189.508H346.89V182.516Z" fill="#E0E0E0"/>
<path d="M346.89 196.647H343.572V203.639H346.89V196.647Z" fill="#E0E0E0"/>
<path d="M355.425 192.249C355.425 192.323 351.04 192.384 345.612 192.384C340.184 192.384 335.799 192.323 335.799 192.249C335.799 192.175 340.184 192.114 345.612 192.114C351.04 192.114 355.425 192.175 355.425 192.249Z" fill="#E0E0E0"/>
<path d="M327.135 126.292H323.816V133.284H327.135V126.292Z" fill="#FAFAFA"/>
<path d="M335.666 136.025C335.666 136.098 331.28 136.16 325.852 136.16C320.424 136.16 316.039 136.098 316.039 136.025C316.039 135.951 320.424 135.89 325.852 135.89C331.28 135.89 335.666 135.951 335.666 136.025Z" fill="#E0E0E0"/>
<path d="M327.135 140.38H323.816V147.372H327.135V140.38Z" fill="#FAFAFA"/>
<path d="M335.666 150.119C335.666 150.193 331.28 150.254 325.852 150.254C320.424 150.254 316.039 150.193 316.039 150.119C316.039 150.046 320.424 149.984 325.852 149.984C331.28 149.984 335.666 150.046 335.666 150.119Z" fill="#E0E0E0"/>
<path d="M327.135 154.474H323.816V161.466H327.135V154.474Z" fill="#FAFAFA"/>
<path d="M335.666 164.208C335.666 164.281 331.28 164.343 325.852 164.343C320.424 164.343 316.039 164.281 316.039 164.208C316.039 164.134 320.424 164.079 325.852 164.079C331.28 164.079 335.666 164.134 335.666 164.208Z" fill="#E0E0E0"/>
<path d="M327.135 168.568H323.816V175.56H327.135V168.568Z" fill="#FAFAFA"/>
<path d="M335.666 178.302C335.666 178.376 331.28 178.437 325.852 178.437C320.424 178.437 316.039 178.376 316.039 178.302C316.039 178.228 320.424 178.167 325.852 178.167C331.28 178.167 335.666 178.228 335.666 178.302Z" fill="#E0E0E0"/>
<path d="M327.135 182.663H323.816V189.655H327.135V182.663Z" fill="#FAFAFA"/>
<path d="M335.666 192.396C335.666 192.47 331.28 192.531 325.852 192.531C320.424 192.531 316.039 192.47 316.039 192.396C316.039 192.323 320.424 192.261 325.852 192.261C331.28 192.261 335.666 192.323 335.666 192.396Z" fill="#E0E0E0"/>
<path d="M327.135 196.751H323.816V203.743H327.135V196.751Z" fill="#FAFAFA"/>
<path d="M220.119 156.835H162.932V232.263H220.119V156.835Z" fill="#EBEBEB"/>
<path d="M220.12 156.835H193.305V232.263H220.12V156.835Z" fill="#E0E0E0"/>
<path d="M180.064 167.047H174.924V179.541H180.064V167.047Z" fill="#F5F5F5"/>
<path d="M180.064 215.936H174.924V228.43H180.064V215.936Z" fill="#F5F5F5"/>
<path d="M193.304 184.441C193.304 184.583 186.502 184.693 178.118 184.693C169.734 184.693 162.932 184.583 162.932 184.441C162.932 184.3 169.727 184.184 178.118 184.184C186.508 184.184 193.304 184.3 193.304 184.441Z" fill="#F5F5F5"/>
<path d="M180.064 191.679H174.924V204.172H180.064V191.679Z" fill="#F5F5F5"/>
<path d="M193.304 209.073C193.304 209.214 186.502 209.324 178.118 209.324C169.734 209.324 162.932 209.214 162.932 209.073C162.932 208.932 169.727 208.815 178.118 208.815C186.508 208.815 193.304 208.932 193.304 209.073Z" fill="#F5F5F5"/>
<path d="M204.136 167.047H198.996V179.541H204.136V167.047Z" fill="#F5F5F5"/>
<path d="M215.292 167.047H210.152V179.541H215.292V167.047Z" fill="#F5F5F5"/>
<path d="M204.136 190.747H198.996V203.24H204.136V190.747Z" fill="#F5F5F5"/>
<path d="M215.292 190.747H210.152V203.24H215.292V190.747Z" fill="#F5F5F5"/>
<path d="M204.136 214.452H198.996V226.946H204.136V214.452Z" fill="#F5F5F5"/>
<path d="M215.292 214.452H210.152V226.946H215.292V214.452Z" fill="#F5F5F5"/>
<path d="M224.419 154.21H158.633V156.927H224.419V154.21Z" fill="#E0E0E0"/>
<path d="M220.519 157.185C220.519 157.326 207.737 157.436 191.974 157.436C176.212 157.436 163.424 157.326 163.424 157.185C163.424 157.044 176.206 156.927 191.974 156.927C207.743 156.927 220.519 157.044 220.519 157.185Z" fill="#EBEBEB"/>
<path d="M164.115 231.809H106.474L106.223 140.711H163.864L164.115 231.809Z" fill="#EBEBEB"/>
<path d="M163.864 140.711H135.043V231.809H163.864V140.711Z" fill="#E0E0E0"/>
<path d="M133.161 122.777H112.805V140.711H133.161V122.777Z" fill="#EBEBEB"/>
<path d="M133.162 122.777H128.311V140.711H133.162V122.777Z" fill="#E0E0E0"/>
<path d="M165.552 139.668H101.422V140.717H165.552V139.668Z" fill="#E0E0E0"/>
<path d="M122.484 148.531H117.602V158.816H122.484V148.531Z" fill="white"/>
<path d="M135.043 162.858C135.043 162.969 128.591 163.054 120.636 163.054C112.681 163.054 106.223 162.969 106.223 162.858C106.223 162.748 112.675 162.662 120.636 162.662C128.597 162.662 135.043 162.754 135.043 162.858Z" fill="#E0E0E0"/>
<path d="M151.548 148.531H146.672V158.816H151.548V148.531Z" fill="#F5F5F5"/>
<path d="M164.115 162.858C164.115 162.969 157.663 163.054 149.708 163.054C141.753 163.054 135.295 162.969 135.295 162.858C135.295 162.748 141.747 162.662 149.708 162.662C157.669 162.662 164.115 162.754 164.115 162.858Z" fill="#EBEBEB"/>
<path d="M151.548 168.961H146.672V179.247H151.548V168.961Z" fill="#F5F5F5"/>
<path d="M164.115 183.288C164.115 183.393 157.663 183.485 149.708 183.485C141.753 183.485 135.295 183.393 135.295 183.288C135.295 183.184 141.747 183.092 149.708 183.092C157.669 183.092 164.115 183.178 164.115 183.288Z" fill="#EBEBEB"/>
<path d="M151.548 190.004H146.672V200.29H151.548V190.004Z" fill="#F5F5F5"/>
<path d="M164.115 204.326C164.115 204.436 157.663 204.522 149.708 204.522C141.753 204.522 135.295 204.436 135.295 204.326C135.295 204.215 141.747 204.129 149.708 204.129C157.669 204.129 164.115 204.24 164.115 204.326Z" fill="#EBEBEB"/>
<path d="M151.548 211.042H146.672V221.327H151.548V211.042Z" fill="#F5F5F5"/>
<path d="M164.115 225.369C164.115 225.48 157.663 225.565 149.708 225.565C141.753 225.565 135.295 225.48 135.295 225.369C135.295 225.259 141.747 225.173 149.708 225.173C157.669 225.173 164.115 225.259 164.115 225.369Z" fill="#EBEBEB"/>
<path d="M122.484 169.274H117.602V179.559H122.484V169.274Z" fill="white"/>
<path d="M135.043 183.595C135.043 183.705 128.591 183.791 120.636 183.791C112.681 183.791 106.223 183.705 106.223 183.595C106.223 183.485 112.675 183.399 120.636 183.399C128.597 183.399 135.043 183.491 135.043 183.595Z" fill="#E0E0E0"/>
<path d="M122.484 190.01H117.602V200.296H122.484V190.01Z" fill="white"/>
<path d="M135.043 204.338C135.043 204.442 128.591 204.534 120.636 204.534C112.681 204.534 106.223 204.442 106.223 204.338C106.223 204.234 112.675 204.142 120.636 204.142C128.597 204.142 135.043 204.24 135.043 204.338Z" fill="#E0E0E0"/>
<path d="M122.484 210.747H117.602V221.033H122.484V210.747Z" fill="white"/>
<path d="M135.043 225.093C135.043 225.197 128.591 225.289 120.636 225.289C112.681 225.289 106.223 225.197 106.223 225.093C106.223 224.989 112.675 224.897 120.636 224.897C128.597 224.897 135.043 224.964 135.043 225.093Z" fill="#E0E0E0"/>
<path d="M325.545 231.809H267.904L267.652 140.711H325.293L325.545 231.809Z" fill="#EBEBEB"/>
<path d="M325.295 140.711H296.475V231.809H325.295V140.711Z" fill="#E0E0E0"/>
<path d="M294.591 122.777H274.234V140.711H294.591V122.777Z" fill="#EBEBEB"/>
<path d="M294.59 122.777H289.738V140.711H294.59V122.777Z" fill="#E0E0E0"/>
<path d="M326.982 139.668H262.852V140.717H326.982V139.668Z" fill="#E0E0E0"/>
<path d="M283.911 148.531H279.029V158.816H283.911V148.531Z" fill="white"/>
<path d="M296.473 162.858C296.473 162.969 290.021 163.054 282.06 163.054C274.098 163.054 267.652 162.969 267.652 162.858C267.652 162.748 274.105 162.662 282.06 162.662C290.014 162.662 296.473 162.754 296.473 162.858Z" fill="#E0E0E0"/>
<path d="M312.978 148.531H308.102V158.816H312.978V148.531Z" fill="#F5F5F5"/>
<path d="M325.545 162.858C325.545 162.969 319.093 163.054 311.132 163.054C303.171 163.054 296.725 162.969 296.725 162.858C296.725 162.748 303.177 162.662 311.132 162.662C319.087 162.662 325.545 162.754 325.545 162.858Z" fill="#EBEBEB"/>
<path d="M312.978 168.961H308.102V179.247H312.978V168.961Z" fill="#F5F5F5"/>
<path d="M325.545 183.288C325.545 183.393 319.093 183.485 311.132 183.485C303.171 183.485 296.725 183.393 296.725 183.288C296.725 183.184 303.177 183.092 311.132 183.092C319.087 183.092 325.545 183.178 325.545 183.288Z" fill="#EBEBEB"/>
<path d="M312.978 190.004H308.102V200.29H312.978V190.004Z" fill="#F5F5F5"/>
<path d="M325.545 204.326C325.545 204.436 319.093 204.522 311.132 204.522C303.171 204.522 296.725 204.436 296.725 204.326C296.725 204.215 303.177 204.129 311.132 204.129C319.087 204.129 325.545 204.24 325.545 204.326Z" fill="#EBEBEB"/>
<path d="M312.978 211.042H308.102V221.327H312.978V211.042Z" fill="#F5F5F5"/>
<path d="M325.545 225.369C325.545 225.48 319.093 225.565 311.132 225.565C303.171 225.565 296.725 225.48 296.725 225.369C296.725 225.259 303.177 225.173 311.132 225.173C319.087 225.173 325.545 225.259 325.545 225.369Z" fill="#EBEBEB"/>
<path d="M283.911 169.274H279.029V179.559H283.911V169.274Z" fill="white"/>
<path d="M296.473 183.595C296.473 183.705 290.021 183.791 282.06 183.791C274.098 183.791 267.652 183.705 267.652 183.595C267.652 183.485 274.105 183.399 282.06 183.399C290.014 183.399 296.473 183.491 296.473 183.595Z" fill="#E0E0E0"/>
<path d="M283.911 190.01H279.029V200.296H283.911V190.01Z" fill="white"/>
<path d="M296.473 204.338C296.473 204.442 290.021 204.534 282.06 204.534C274.098 204.534 267.652 204.442 267.652 204.338C267.652 204.234 274.105 204.142 282.06 204.142C290.014 204.142 296.473 204.24 296.473 204.338Z" fill="#E0E0E0"/>
<path d="M283.911 210.747H279.029V221.033H283.911V210.747Z" fill="white"/>
<path d="M296.473 225.093C296.473 225.197 290.021 225.289 282.06 225.289C274.098 225.289 267.652 225.197 267.652 225.093C267.652 224.989 274.105 224.897 282.06 224.897C290.014 224.897 296.473 224.964 296.473 225.093Z" fill="#E0E0E0"/>
<path d="M229.246 27.9187H225.615V233.661H229.246V27.9187Z" fill="#FAFAFA"/>
<path d="M377.722 129.272H81.0469V132.32H377.722V129.272Z" fill="#FAFAFA"/>
<path d="M409.01 249.283C407.078 240.457 399.515 230.429 387.93 226.314C376.344 222.198 355.57 226.4 354.73 238.666C343.947 230.626 327.473 231.496 317.599 240.623C316.505 235.759 314.114 231.281 310.68 227.667C307.246 224.052 302.897 221.436 298.095 220.094C293.293 218.753 288.217 218.738 283.407 220.05C278.597 221.362 274.233 223.953 270.777 227.547C263.208 212.311 240.398 207.534 227.353 218.445C218.502 203.528 197.404 197.432 181.966 205.344C180.105 200.131 176.815 195.548 172.473 192.116C168.13 188.685 162.91 186.544 157.408 185.939C151.907 185.334 146.346 186.289 141.361 188.694C136.376 191.099 132.169 194.858 129.219 199.542C115.444 195.12 99.025 206.46 98.2828 220.91C95.248 218.922 91.676 217.913 88.0494 218.019C84.4227 218.126 80.9161 219.342 78.0029 221.505C75.0898 223.668 72.9106 226.673 71.7594 230.113C70.6083 233.554 70.5408 237.265 71.566 240.745C62.8506 237.507 36.9495 253.914 52.0559 279.999L445.466 278.87C451.955 261.335 427.9 240.457 409.01 249.283Z" fill="#F5F5F5"/>
<path d="M332.875 210.275C332.865 209.226 332.553 208.202 331.975 207.326C331.398 206.45 330.58 205.759 329.62 205.336C328.66 204.914 327.598 204.777 326.562 204.943C325.526 205.108 324.56 205.569 323.779 206.27C321.872 204.344 318.793 203.381 316.346 204.565C313.898 205.749 312.843 209.404 314.726 211.355C313.95 211.431 313.198 211.672 312.521 212.06C311.844 212.448 311.257 212.976 310.799 213.608C310.341 214.239 310.022 214.961 309.863 215.725C309.705 216.489 309.71 217.278 309.878 218.04C310.047 218.802 310.375 219.52 310.841 220.146C311.307 220.772 311.901 221.291 312.583 221.671C313.265 222.051 314.019 222.281 314.797 222.348C315.575 222.415 316.357 222.315 317.094 222.057C317.584 223.313 318.439 224.393 319.548 225.158C320.658 225.923 321.971 226.339 323.319 226.351C324.666 226.329 325.985 225.963 327.15 225.286C328.315 224.61 329.287 223.646 329.974 222.487C330.641 221.315 331.05 220.015 331.174 218.673C331.297 217.33 331.133 215.977 330.691 214.703C331.586 214.287 332.298 213.56 332.696 212.657C333.093 211.754 333.148 210.737 332.85 209.797" fill="#F5F5F5"/>
<path d="M26.9258 124.224H6.63672V144.513H26.9258V124.224Z" fill="#F5F5F5"/>
<path d="M51.3047 124.224H31.0156V144.513H51.3047V124.224Z" fill="#F5F5F5"/>
<path d="M75.6914 124.224H55.4023V144.513H75.6914V124.224Z" fill="#F5F5F5"/>
<path d="M26.9258 148.604H6.63672V168.893H26.9258V148.604Z" fill="#F5F5F5"/>
<path d="M51.3047 148.604H31.0156V168.893H51.3047V148.604Z" fill="#F5F5F5"/>
<path d="M75.6914 148.604H55.4023V168.893H75.6914V148.604Z" fill="#F5F5F5"/>
<path d="M26.9258 172.212H6.63672V192.501H26.9258V172.212Z" fill="#F5F5F5"/>
<path d="M51.3047 172.212H31.0156V192.501H51.3047V172.212Z" fill="#F5F5F5"/>
<path d="M75.6914 172.212H55.4023V192.501H75.6914V172.212Z" fill="#F5F5F5"/>
<path d="M26.9258 196.598H6.63672V216.887H26.9258V196.598Z" fill="#F5F5F5"/>
<path d="M51.3047 196.598H31.0156V216.887H51.3047V196.598Z" fill="#F5F5F5"/>
<path d="M75.6914 196.598H55.4023V216.887H75.6914V196.598Z" fill="#F5F5F5"/>
<path d="M404.127 124.224H383.838V144.513H404.127V124.224Z" fill="#F5F5F5"/>
<path d="M428.512 124.224H408.223V144.513H428.512V124.224Z" fill="#F5F5F5"/>
<path d="M452.893 124.224H432.604V144.513H452.893V124.224Z" fill="#F5F5F5"/>
<path d="M404.127 148.604H383.838V168.893H404.127V148.604Z" fill="#F5F5F5"/>
<path d="M428.512 148.604H408.223V168.893H428.512V148.604Z" fill="#F5F5F5"/>
<path d="M452.893 148.604H432.604V168.893H452.893V148.604Z" fill="#F5F5F5"/>
<path d="M404.127 172.212H383.838V192.501H404.127V172.212Z" fill="#F5F5F5"/>
<path d="M428.512 172.212H408.223V192.501H428.512V172.212Z" fill="#F5F5F5"/>
<path d="M452.893 172.212H432.604V192.501H452.893V172.212Z" fill="#F5F5F5"/>
<path d="M404.127 196.598H383.838V216.887H404.127V196.598Z" fill="#F5F5F5"/>
<path d="M428.512 196.598H408.223V216.887H428.512V196.598Z" fill="#F5F5F5"/>
<path d="M452.893 196.598H432.604V216.887H452.893V196.598Z" fill="#F5F5F5"/>
<path d="M223.953 228.203C223.953 223.787 228.547 207.086 254.086 202.584C268.383 200.063 296.891 194.77 296.891 194.77C296.891 194.77 315.604 200.775 323.706 202.026C333.102 203.473 347.969 209.429 354.066 217.359C360.162 225.289 372.141 255.465 372.141 255.465C372.141 255.465 381.684 268.345 383.352 283.415H342.087L224.051 281.354C224.333 280.907 223.953 228.203 223.953 228.203Z" fill="#FFBE9D"/>
<path d="M343.713 283.624C343.58 283.525 343.453 283.419 343.333 283.305C343.1 283.084 342.72 282.771 342.303 282.33C341.064 281.104 339.916 279.79 338.868 278.398C335.357 273.805 332.905 268.493 331.686 262.841C330.466 257.19 330.51 251.34 331.815 245.707C332.202 244.008 332.709 242.338 333.33 240.709C333.538 240.126 333.747 239.697 333.869 239.396C333.924 239.24 333.996 239.089 334.084 238.948C334.044 239.109 333.993 239.267 333.931 239.421C333.826 239.727 333.636 240.169 333.446 240.752C332.871 242.389 332.4 244.06 332.035 245.756C330.801 251.359 330.786 257.162 331.993 262.771C333.199 268.38 335.598 273.664 339.027 278.263C340.061 279.655 341.178 280.985 342.37 282.244C342.787 282.698 343.143 283.023 343.364 283.256C343.489 283.37 343.605 283.493 343.713 283.624Z" fill="#EB996E"/>
<path d="M330.975 253.816C330.163 252.052 329.447 250.246 328.828 248.406C328.112 246.602 327.498 244.759 326.988 242.886C327.8 244.65 328.517 246.455 329.135 248.296C329.851 250.1 330.466 251.943 330.975 253.816Z" fill="#EB996E"/>
<path d="M239.305 219.487C243.475 242.886 250.197 254.447 255.533 253.834L260.397 278.337L251.945 285.138C263.629 284.433 271.449 280.128 271.449 280.128L262.863 277.778L258.49 253.245C267.316 248.952 254.595 215.169 254.595 215.169L239.305 219.487Z" fill="#FAFAFA"/>
<path d="M239.305 219.487L239.556 219.408L240.317 219.181L243.292 218.31L254.595 215.053H254.675V215.133C256.709 220.628 258.427 226.235 259.821 231.926C260.683 235.395 261.288 238.923 261.63 242.481C261.816 244.405 261.781 246.343 261.526 248.259C261.39 249.257 261.103 250.23 260.673 251.142C260.236 252.101 259.489 252.885 258.551 253.368L258.631 253.215C259.987 260.783 261.465 269.082 263.023 277.748L262.906 277.625L271.493 279.968L271.885 280.079L271.529 280.263C270.659 280.723 269.689 281.152 268.72 281.551C263.368 283.689 257.706 284.952 251.952 285.292L251.461 285.323L251.848 285.016L260.305 278.239L260.25 278.386L255.405 253.852L255.546 253.957C254.776 254.027 254.002 253.885 253.307 253.546C252.634 253.235 252.014 252.821 251.467 252.319C250.431 251.352 249.524 250.256 248.769 249.056C247.385 246.86 246.213 244.537 245.267 242.119C243.738 238.215 242.476 234.21 241.488 230.135C240.648 226.762 240.121 224.094 239.783 222.272C239.606 221.37 239.495 220.653 239.409 220.187C239.323 219.72 239.299 219.481 239.299 219.481C239.299 219.481 239.354 219.727 239.452 220.199L239.857 222.26C240.225 224.069 240.777 226.737 241.636 230.098C242.645 234.159 243.923 238.149 245.463 242.04C246.412 244.441 247.586 246.748 248.971 248.927C249.716 250.107 250.613 251.184 251.639 252.129C252.669 253.074 254.037 253.865 255.509 253.718H255.632V253.834C257.11 261.243 258.754 269.492 260.539 278.337V278.423L260.471 278.484L252.044 285.261L251.933 284.979C257.654 284.634 263.282 283.375 268.604 281.25C269.573 280.858 270.53 280.428 271.376 279.987L271.413 280.281L262.826 277.932H262.734V277.828C261.189 269.137 259.711 260.832 258.367 253.264V253.153L258.465 253.104C259.347 252.651 260.049 251.914 260.459 251.013C260.879 250.129 261.161 249.186 261.293 248.216C261.544 246.321 261.581 244.403 261.403 242.5C261.072 238.954 260.478 235.438 259.625 231.981C258.242 226.287 256.543 220.674 254.534 215.17L254.644 215.225L243.365 218.377L240.354 219.205L239.575 219.42L239.305 219.487Z" fill="#263238"/>
<path d="M243.42 228.773L255.864 225.093C255.864 225.093 264.451 249.627 258.232 252.295C252.013 254.963 247.548 245.824 243.42 228.773Z" fill="#FF725E"/>
<g opacity="0.3">
<path d="M248 246.002C251.723 241.402 255.194 236.661 257.893 231.398L258.592 234.305L249.441 248.148L248 246.002Z" fill="white"/>
</g>
<path d="M254.618 215.139C254.482 215.309 254.326 215.461 254.152 215.593C253.956 215.763 253.751 215.922 253.539 216.071C253.3 216.255 253.036 216.457 252.717 216.684C251.989 217.173 251.229 217.612 250.441 217.997C249.472 218.46 248.47 218.849 247.442 219.162C246.411 219.455 245.356 219.661 244.29 219.775C243.419 219.877 242.54 219.906 241.665 219.861C241.29 219.861 240.953 219.8 240.659 219.769C240.405 219.744 240.153 219.703 239.904 219.647C239.694 219.616 239.488 219.56 239.291 219.481C239.291 219.42 240.205 219.61 241.683 219.634C242.546 219.646 243.409 219.597 244.265 219.487C245.313 219.343 246.348 219.122 247.362 218.825C248.375 218.515 249.367 218.14 250.331 217.702C251.113 217.339 251.873 216.929 252.606 216.476C253.876 215.691 254.581 215.096 254.618 215.139Z" fill="#263238"/>
<path d="M247.929 269.867C247.929 269.867 246.512 263.831 247.316 262.175C248.119 260.519 252.075 256.655 252.075 256.655L268.831 253.773L291.764 263.801L292.377 283.213C292.377 283.213 267.899 283.924 265.562 283.262C263.225 282.599 258.785 284.298 257.393 282.483L255.994 280.643C255.994 280.643 252.553 280.52 251.909 278.692C251.909 278.692 246.438 275.012 246.684 272.952C246.809 271.829 247.239 270.762 247.929 269.867Z" fill="#FFBE9D"/>
<path d="M261.649 261.617C261.455 261.726 261.249 261.812 261.036 261.875C260.625 262.028 260.036 262.231 259.306 262.488C257.84 262.979 255.81 263.641 253.571 264.328C252.519 264.605 251.54 265.112 250.707 265.812C250.052 266.42 249.492 267.123 249.045 267.898C248.272 269.216 247.88 270.093 247.818 270.069C247.867 269.855 247.943 269.649 248.045 269.456C248.278 268.888 248.544 268.335 248.843 267.8C249.273 266.987 249.832 266.249 250.499 265.616C251.353 264.872 252.366 264.332 253.461 264.04C255.706 263.328 257.754 262.703 259.226 262.267C259.962 262.047 260.563 261.875 260.981 261.764C261.196 261.686 261.421 261.637 261.649 261.617Z" fill="#EB996E"/>
<path d="M263.801 268.487C263.674 268.669 263.524 268.834 263.354 268.977C262.9 269.372 262.409 269.721 261.888 270.02C261.112 270.456 260.306 270.837 259.477 271.161C258.551 271.541 257.521 271.921 256.49 272.387C255.516 272.826 254.614 273.412 253.816 274.123C253.173 274.72 252.584 275.372 252.056 276.074C251.148 277.27 250.633 278.055 250.584 278.024C250.662 277.817 250.767 277.621 250.897 277.441C251.118 277.079 251.437 276.558 251.878 275.939C252.386 275.205 252.968 274.524 253.614 273.908C254.425 273.165 255.348 272.554 256.349 272.099C257.404 271.596 258.441 271.228 259.367 270.872C260.19 270.565 260.995 270.211 261.777 269.811C262.482 269.418 263.159 268.975 263.801 268.487Z" fill="#EB996E"/>
<path d="M264.783 276.313C264.783 276.368 264.17 276.313 263.268 276.368C262.058 276.457 260.871 276.745 259.754 277.22C258.643 277.71 257.62 278.377 256.724 279.195C256.043 279.809 255.687 280.299 255.645 280.263C255.875 279.802 256.187 279.386 256.565 279.036C258.33 277.232 260.733 276.193 263.256 276.141C263.771 276.106 264.289 276.164 264.783 276.313Z" fill="#EB996E"/>
<path d="M291.782 263.843C291.782 263.843 291.635 263.794 291.353 263.678L290.126 263.163L285.471 261.169L268.794 253.92H268.874L252.124 256.821L252.204 256.778C251.455 257.52 250.701 258.287 249.965 259.084C249.209 259.879 248.505 260.721 247.855 261.605C247.125 262.463 247.242 263.623 247.273 264.745C247.368 265.885 247.524 267.019 247.739 268.143C247.843 268.701 247.959 269.259 248.082 269.811V269.885L248.033 269.952C247.472 270.718 247.098 271.604 246.941 272.54C246.635 273.473 247.248 274.288 247.825 274.994C249.075 276.356 250.483 277.565 252.02 278.594H252.063V278.643C252.227 278.985 252.464 279.287 252.756 279.53C253.048 279.772 253.389 279.949 253.755 280.048C254.481 280.3 255.239 280.449 256.006 280.489H256.08L256.123 280.544L257.35 282.158C257.443 282.289 257.55 282.41 257.669 282.519C257.774 282.63 257.896 282.723 258.03 282.795C258.309 282.942 258.609 283.043 258.92 283.096C260.196 283.199 261.479 283.164 262.747 282.992C263.373 282.939 264.002 282.922 264.63 282.943L265.102 282.992L265.568 283.09C265.863 283.133 266.139 283.2 266.439 283.219C267.629 283.317 268.801 283.335 269.935 283.36C274.474 283.427 278.485 283.36 281.815 283.329L289.586 283.2H291.666H292.199C292.258 283.191 292.318 283.191 292.377 283.2H292.199H291.666L289.593 283.28C287.753 283.341 285.14 283.421 281.815 283.488C278.491 283.556 274.455 283.642 269.929 283.593C268.794 283.593 267.623 283.556 266.415 283.458C266.106 283.433 265.799 283.39 265.495 283.329L265.059 283.243L264.618 283.194C264.004 283.173 263.389 283.192 262.778 283.249C261.488 283.431 260.181 283.468 258.883 283.36C258.54 283.302 258.209 283.191 257.902 283.028C257.593 282.851 257.329 282.606 257.129 282.311L255.902 280.704L256.013 280.759C255.214 280.72 254.425 280.567 253.67 280.305C253.26 280.191 252.88 279.99 252.555 279.716C252.23 279.442 251.968 279.101 251.787 278.717L251.848 278.79C250.283 277.741 248.851 276.506 247.585 275.11C247.26 274.738 246.984 274.326 246.763 273.884C246.648 273.651 246.575 273.4 246.549 273.142C246.549 272.886 246.576 272.631 246.629 272.381C246.793 271.388 247.19 270.449 247.788 269.639V269.78C247.659 269.222 247.542 268.664 247.438 268.1C247.218 266.965 247.06 265.818 246.966 264.665C246.917 264.09 246.917 263.511 246.966 262.936C246.99 262.64 247.056 262.348 247.162 262.071C247.284 261.807 247.432 261.556 247.604 261.323C248.261 260.426 248.974 259.572 249.738 258.765C250.478 257.947 251.231 257.176 251.995 256.453V256.422H252.044L268.801 253.564H268.843H268.88L285.508 260.924L290.132 262.985L291.359 263.537L291.782 263.843Z" fill="#EB996E"/>
<path d="M291.781 263.844L353.575 266.248L388.854 283.256H292.419L291.781 263.844Z" fill="#FFBE9D"/>
<path d="M235.362 144.483C237.656 141.594 240.49 138.81 241.073 135.166C241.612 131.818 240.146 128.15 241.649 125.108C243.489 121.366 248.807 120.636 251.113 117.134C252.229 115.448 252.493 113.313 253.566 111.614C255.443 108.726 259.295 107.799 262.729 107.996C266.164 108.192 269.525 109.265 272.966 109.333C277.689 109.437 282.473 107.664 287.073 108.793C292.133 110.02 295.396 114.313 298.849 118.422L303.32 123.17C304.225 123.978 305.207 124.697 306.252 125.316C308.092 126.383 310.165 127.076 311.771 128.469C315.194 131.45 315.212 137.503 311.808 140.502C313.643 141.036 315.258 142.144 316.415 143.665C317.573 145.185 318.211 147.037 318.236 148.948C318.236 151.046 317.445 153.045 316.917 155.081C316.39 157.118 316.12 159.375 317.046 161.215C317.972 163.055 320.493 164.281 322.266 163.171C321.999 164.544 321.429 165.84 320.597 166.964C319.765 168.088 318.692 169.011 317.457 169.666C318.504 170.636 319.882 171.169 321.309 171.157C317.923 180.308 307.76 185.521 298.002 186.036C288.244 186.551 278.75 183.307 269.537 180.099L242.968 174.524C240.637 174.107 239.545 171.353 239.466 169.004C239.386 166.655 239.87 164.152 238.92 161.981C237.62 159.013 234.013 157.571 232.67 154.621C231.155 151.285 233.069 147.378 235.362 144.483Z" fill="#263238"/>
<path d="M298.588 165.477C300.207 159.454 301.802 153.395 302.36 147.182C302.918 140.968 302.403 134.559 299.907 128.837C299.533 127.966 296.423 122.176 295.491 122.317C294.822 122.421 296.834 127.837 296.521 128.45C293.571 134.179 293.031 140.913 293.884 147.304C294.763 153.511 296.333 159.6 298.564 165.459" fill="#263238"/>
<path d="M273.443 217.96C283.085 217.261 301.718 203.436 301.718 203.436L297.977 141.68C297.682 126.046 288.335 113.191 272.719 113.92L271.278 114.074C264.293 114.809 257.84 118.146 253.204 123.423C248.568 128.7 246.089 135.529 246.26 142.551C246.591 156.099 247.137 171.065 247.984 178.259C249.738 193.163 264.906 193.905 264.906 193.905C264.906 193.905 265.022 195.23 265.298 199.622C265.298 199.622 250.241 203.105 254.086 202.572L273.443 217.96Z" fill="#FFBE9D"/>
<path d="M264.904 193.918C264.904 193.918 274.368 193.482 283.727 186.128C283.727 186.128 280.133 197.481 265.107 197.708L264.904 193.918Z" fill="#EB996E"/>
<path d="M251.43 153.29C251.483 153.846 251.752 154.36 252.178 154.721C252.604 155.082 253.155 155.262 253.712 155.222C253.985 155.215 254.255 155.154 254.504 155.041C254.753 154.928 254.977 154.767 255.163 154.566C255.348 154.366 255.492 154.13 255.585 153.873C255.679 153.616 255.719 153.343 255.705 153.069C255.652 152.515 255.385 152.002 254.96 151.641C254.535 151.281 253.986 151.1 253.43 151.137C253.156 151.144 252.886 151.205 252.636 151.317C252.386 151.429 252.162 151.591 251.975 151.791C251.789 151.992 251.645 152.228 251.551 152.486C251.457 152.743 251.416 153.017 251.43 153.29Z" fill="#263238"/>
<path d="M250.099 148.426C250.394 148.672 251.884 147.31 254.178 147.077C256.472 146.844 258.269 147.807 258.471 147.5C258.582 147.365 258.257 146.887 257.472 146.433C256.406 145.851 255.188 145.612 253.982 145.746C252.789 145.869 251.666 146.367 250.774 147.169C250.142 147.813 249.958 148.31 250.099 148.426Z" fill="#263238"/>
<path d="M272.565 152.107C272.62 152.662 272.888 153.174 273.314 153.535C273.74 153.896 274.29 154.076 274.847 154.039C275.12 154.032 275.389 153.97 275.638 153.857C275.888 153.745 276.112 153.583 276.297 153.383C276.483 153.182 276.627 152.946 276.72 152.689C276.813 152.432 276.854 152.159 276.84 151.886C276.787 151.331 276.52 150.819 276.095 150.458C275.67 150.097 275.121 149.916 274.565 149.954C274.291 149.96 274.021 150.021 273.771 150.133C273.521 150.246 273.296 150.407 273.11 150.608C272.924 150.809 272.779 151.045 272.686 151.302C272.592 151.559 272.551 151.833 272.565 152.107Z" fill="#263238"/>
<path d="M272.658 146.979C272.952 147.231 274.443 145.863 276.737 145.63C279.031 145.397 280.828 146.366 281.03 146.053C281.14 145.918 280.821 145.44 280.03 144.992C278.967 144.405 277.747 144.165 276.54 144.305C275.347 144.425 274.223 144.924 273.333 145.728C272.701 146.341 272.517 146.869 272.658 146.979Z" fill="#263238"/>
<path d="M266.293 165.465C266.293 165.33 264.839 165.238 262.496 165.183C261.883 165.183 261.337 165.128 261.196 164.741C261.087 164.141 261.16 163.522 261.405 162.963C261.809 161.485 262.226 159.939 262.668 158.32C264.404 151.72 265.594 146.317 265.33 146.249C265.066 146.182 263.441 151.481 261.705 158.081C261.288 159.706 260.895 161.258 260.515 162.742C260.368 163.429 260.061 164.22 260.454 165.066C260.56 165.264 260.711 165.435 260.894 165.566C261.077 165.697 261.287 165.784 261.509 165.821C261.841 165.878 262.179 165.89 262.515 165.858C264.851 165.735 266.299 165.6 266.293 165.465Z" fill="#263238"/>
<path d="M273.204 166.336C272.83 166.336 273.088 168.844 271.143 170.838C269.199 172.831 266.525 172.831 266.537 173.181C266.537 173.34 267.181 173.604 268.304 173.518C269.766 173.379 271.133 172.727 272.161 171.678C273.154 170.68 273.718 169.333 273.732 167.924C273.719 166.894 273.376 166.305 273.204 166.336Z" fill="#263238"/>
<path d="M271.805 137.663C272.093 138.276 274.357 137.724 277.08 137.767C279.803 137.81 282.054 138.313 282.354 137.712C282.483 137.43 282.042 136.884 281.128 136.368C279.879 135.755 278.506 135.433 277.115 135.427C275.723 135.42 274.348 135.73 273.093 136.332C272.118 136.835 271.707 137.387 271.805 137.663Z" fill="#263238"/>
<path d="M250.24 140.699C250.7 141.177 252.221 140.466 254.116 140.245C256.011 140.024 257.661 140.245 257.974 139.631C258.109 139.349 257.802 138.859 257.048 138.435C256.039 137.947 254.91 137.768 253.8 137.92C252.69 138.071 251.65 138.547 250.81 139.288C250.203 139.901 250.043 140.453 250.24 140.699Z" fill="#263238"/>
<path d="M297.92 152.867C298.165 152.732 307.856 148.758 308.604 159C309.352 169.243 298.926 167.875 298.883 167.587C298.84 167.299 297.92 152.867 297.92 152.867Z" fill="#FFBE9D"/>
<path d="M301.76 163.465C301.803 163.429 301.944 163.576 302.256 163.692C302.694 163.846 303.174 163.821 303.593 163.625C304.642 163.147 305.433 161.368 305.341 159.516C305.303 158.637 305.069 157.777 304.655 157.001C304.536 156.688 304.343 156.409 304.091 156.187C303.84 155.966 303.539 155.81 303.213 155.731C303.005 155.693 302.79 155.728 302.605 155.831C302.421 155.934 302.278 156.098 302.201 156.296C302.085 156.59 302.164 156.792 302.109 156.811C302.054 156.829 301.876 156.657 301.931 156.228C301.969 155.971 302.095 155.735 302.287 155.56C302.417 155.442 302.569 155.353 302.735 155.296C302.9 155.239 303.075 155.216 303.25 155.228C303.677 155.279 304.083 155.439 304.43 155.693C304.777 155.946 305.053 156.285 305.231 156.676C305.727 157.526 306.009 158.484 306.053 159.467C306.139 161.533 305.225 163.539 303.771 164.073C303.503 164.173 303.215 164.212 302.93 164.187C302.644 164.161 302.368 164.072 302.121 163.925C301.76 163.711 301.692 163.49 301.76 163.465Z" fill="#EB996E"/>
<path d="M251.792 125.169C250.081 124.365 254.705 118.674 258.661 116.582C264.635 113.393 273.927 111.062 279.705 112.289C286.66 113.785 292.585 116.821 296.387 122.82C300.19 128.818 301.975 135.982 302.232 143.097C302.312 145.268 302.232 147.537 301.196 149.445C299.908 151.8 297.258 153.407 297.577 156.523C297.651 157.085 297.612 157.656 297.464 158.204C297.316 158.751 297.06 159.264 296.712 159.712C294.971 161.828 292.56 160.104 291.383 158.295C288.874 154.425 288.316 149.653 287.819 145.072C287.47 141.815 287.12 138.484 287.819 135.289C288.206 133.553 288.911 131.885 289.205 130.131C289.5 128.377 289.316 126.408 288.15 125.065C287.878 124.775 287.581 124.51 287.261 124.273C285.753 123.12 283.965 122.388 282.081 122.154C280.197 121.92 278.284 122.192 276.54 122.943C270.903 125.353 261.25 129.033 258.551 127.236C254.668 124.66 253.644 122.881 253.644 122.881L251.792 125.169Z" fill="#263238"/>
<path d="M279.069 110.94C273.322 109.419 266.919 109.934 261.828 113C259.129 114.632 256.75 117.116 256.093 120.201C255.437 123.286 256.971 126.948 259.964 127.935L260.172 128.052C264.637 129.241 267.44 128.469 271.697 126.684C275.285 125.175 278.394 122.703 281.988 121.219C285.836 119.635 290.069 119.237 294.145 120.078C289.956 115.877 284.828 112.461 279.069 110.94Z" fill="#263238"/>
<path d="M317.426 176.425C317.426 176.388 317.064 176.486 316.389 176.462C315.402 176.402 314.451 176.064 313.648 175.487C312.365 174.594 311.441 173.275 311.041 171.764C310.568 169.741 310.61 167.632 311.164 165.63C311.673 163.373 312.654 160.994 313.224 158.27C313.533 156.847 313.608 155.382 313.445 153.934C313.278 152.364 312.666 150.874 311.679 149.641C310.549 148.443 309.136 147.549 307.569 147.04C306.018 146.54 304.517 145.896 303.086 145.114C300.265 143.428 298.517 140.257 297.425 136.945C296.333 133.633 295.867 130.125 294.972 126.849C294.076 123.574 292.727 120.44 290.402 118.214C288.17 116.154 285.252 114.995 282.214 114.963C279.605 114.9 277.02 115.472 274.682 116.631C271.377 118.385 268.532 120.894 266.378 123.954C265.605 125.009 265.065 125.874 264.71 126.469C264.513 126.76 264.347 127.07 264.213 127.395C264.442 127.132 264.648 126.849 264.826 126.549C265.225 125.985 265.801 125.15 266.605 124.126C268.806 121.188 271.646 118.786 274.909 117.104C277.176 116.017 279.672 115.496 282.184 115.582C285.061 115.633 287.819 116.748 289.924 118.71C292.101 120.814 293.401 123.838 294.26 127.046C295.119 130.253 295.591 133.743 296.713 137.178C297.836 140.613 299.651 143.925 302.7 145.765C304.17 146.562 305.712 147.219 307.306 147.727C308.768 148.186 310.091 149.007 311.151 150.113C312.063 151.242 312.633 152.608 312.795 154.051C312.956 155.43 312.894 156.825 312.611 158.185C312.09 160.84 311.133 163.245 310.642 165.545C310.107 167.631 310.107 169.819 310.642 171.905C311.095 173.489 312.106 174.855 313.488 175.75C314.343 176.328 315.351 176.638 316.383 176.64C316.741 176.632 317.094 176.559 317.426 176.425Z" fill="#455A64"/>
<path d="M268.309 110.829C268.309 110.756 267.083 110.676 265.2 111.295C262.744 112.123 260.625 113.729 259.165 115.87C257.705 118.01 256.984 120.569 257.11 123.157C257.214 125.126 257.723 126.224 257.809 126.224C257.895 126.224 257.601 125.034 257.637 123.157C257.653 120.708 258.399 118.318 259.778 116.294C261.158 114.27 263.109 112.703 265.384 111.792C267.126 111.069 268.322 110.958 268.309 110.829Z" fill="#455A64"/>
<path d="M247.678 121.103C247.5 121.023 246.764 122.673 246.899 124.838C247.034 127.003 247.96 128.555 248.126 128.456C248.291 128.358 247.752 126.8 247.641 124.776C247.531 122.752 247.887 121.164 247.678 121.103Z" fill="#455A64"/>
<path d="M353.575 266.248C353.575 266.34 339.671 265.819 322.535 265.089C305.398 264.359 291.5 263.697 291.5 263.611C291.5 263.525 305.404 264.04 322.547 264.77C339.69 265.5 353.582 266.187 353.575 266.248Z" fill="#EB996E"/>
<path d="M268.579 205.663C266.637 206.042 264.675 206.313 262.703 206.472C260.744 206.739 258.773 206.903 256.797 206.963C258.738 206.59 260.697 206.32 262.666 206.154C264.627 205.887 266.601 205.723 268.579 205.663Z" fill="#EB996E"/>
<path d="M303.171 205.645C303.171 205.737 299.196 205.522 294.32 205.166C289.444 204.81 285.482 204.461 285.488 204.369C285.494 204.277 289.457 204.498 294.339 204.847C299.221 205.197 303.177 205.559 303.171 205.645Z" fill="#EB996E"/>
<path d="M249.628 258.704C249.468 258.544 249.328 258.365 249.211 258.17C248.96 257.821 248.598 257.299 248.181 256.649C247.328 255.355 246.2 253.54 245.022 251.485C243.845 249.43 242.863 247.529 242.182 246.137C241.845 245.438 241.569 244.867 241.404 244.475C241.297 244.281 241.215 244.075 241.158 243.861C241.301 244.038 241.42 244.231 241.514 244.438L242.385 246.051C243.115 247.413 244.133 249.289 245.304 251.344C246.476 253.399 247.568 255.226 248.371 256.551C248.745 257.165 249.058 257.692 249.316 258.121C249.444 258.302 249.549 258.497 249.628 258.704Z" fill="#EB996E"/>
<path d="M200.033 137.657C202.967 139.653 205.376 142.329 207.052 145.457C208.729 148.585 209.624 152.072 209.662 155.621C209.662 159.062 209.049 163.036 211.466 165.435C213.882 167.833 218.212 167.428 220.506 169.918C223.235 172.85 221.524 177.664 222.72 181.492C223.34 183.272 224.573 184.774 226.2 185.728C227.826 186.683 229.738 187.027 231.595 186.699C227.486 190.62 222.376 193.334 216.826 194.543L212.11 189.391C213.882 191.182 213.698 194.298 212.281 196.377C210.865 198.456 208.528 199.726 206.185 200.671C200.564 202.903 194.504 203.806 188.477 203.311C182.45 202.815 176.619 200.933 171.439 197.812" fill="#263238"/>
<path d="M138.19 172.96C138.84 170.274 140.085 167.735 140.447 164.987C141.226 159.099 137.89 152.8 140.288 147.366C141.993 143.496 146.108 141.343 150.04 139.779C153.971 138.215 158.209 136.829 160.975 133.645C163.012 131.302 164.042 128.217 166.048 125.868C168.937 122.52 173.469 121.103 177.848 120.483C182.338 119.87 187.048 119.913 191.262 121.581C195.475 123.249 199.149 126.727 200.229 131.137C200.756 133.29 200.67 135.59 201.517 137.632C202.455 139.877 204.412 141.527 205.694 143.594C207.001 145.817 207.533 148.411 207.208 150.969C206.883 153.527 205.718 155.906 203.897 157.731L176.07 200.192C169.752 203.167 153.732 201.419 148.322 197.033C142.913 192.648 136.559 179.707 138.19 172.96Z" fill="#263238"/>
<path d="M202.676 152.671C200.677 143.68 192.912 133.486 184.013 135.86L156.885 147.439C155.584 147.787 154.46 148.61 153.736 149.745C153.012 150.881 152.739 152.246 152.972 153.573L166.692 221.223L166.502 221.297C166.502 221.297 175.91 239.519 193.685 230.761C197.205 229.025 198.266 224.707 198.358 220.432H198.555C198.481 219.935 198.42 219.475 198.352 218.997C198.236 215.835 197.788 212.694 197.015 209.625C196.218 204.105 195.862 201.86 195.874 201.909C195.887 201.959 207.172 198.162 207.197 182.651C207.209 174.941 204.897 162.656 202.676 152.671Z" fill="#FFD6BE"/>
<path d="M181.964 168.403C182.049 168.909 181.933 169.427 181.641 169.849C181.349 170.271 180.904 170.561 180.4 170.66C180.156 170.718 179.903 170.726 179.655 170.685C179.408 170.643 179.171 170.552 178.959 170.418C178.747 170.284 178.564 170.109 178.421 169.903C178.278 169.697 178.177 169.464 178.125 169.218C178.04 168.714 178.156 168.197 178.446 167.777C178.737 167.356 179.181 167.066 179.683 166.968C179.927 166.909 180.18 166.899 180.428 166.94C180.676 166.981 180.913 167.071 181.126 167.204C181.338 167.338 181.522 167.513 181.666 167.719C181.81 167.925 181.911 168.157 181.964 168.403Z" fill="#263238"/>
<path d="M201.892 164.404C201.976 164.909 201.86 165.427 201.568 165.848C201.276 166.268 200.831 166.558 200.328 166.655C200.084 166.714 199.831 166.723 199.584 166.682C199.336 166.641 199.099 166.552 198.887 166.418C198.675 166.284 198.492 166.109 198.349 165.903C198.205 165.697 198.105 165.465 198.052 165.22C197.968 164.716 198.083 164.198 198.374 163.778C198.665 163.357 199.109 163.067 199.61 162.969C199.855 162.91 200.108 162.901 200.356 162.941C200.604 162.982 200.841 163.072 201.054 163.206C201.266 163.339 201.45 163.514 201.594 163.72C201.738 163.926 201.839 164.158 201.892 164.404Z" fill="#263238"/>
<path d="M201.837 159.645C201.653 160.019 199.745 159.031 197.5 159.528C195.255 160.025 193.912 161.712 193.593 161.448C193.44 161.331 193.593 160.706 194.139 159.933C194.902 158.95 195.989 158.268 197.206 158.007C198.408 157.744 199.664 157.916 200.751 158.492C201.561 158.958 201.935 159.467 201.837 159.645Z" fill="#263238"/>
<path d="M180.934 163.76C180.688 164.11 178.799 162.957 176.364 163.251C173.929 163.545 172.298 165.091 171.991 164.784C171.844 164.656 172.059 164.048 172.764 163.349C173.705 162.447 174.916 161.878 176.211 161.73C177.493 161.579 178.788 161.862 179.891 162.533C180.713 163.055 181.038 163.595 180.934 163.76Z" fill="#263238"/>
<path d="M190.553 177.425C190.522 177.309 191.779 176.879 193.846 176.278C194.374 176.143 194.858 175.953 194.895 175.579C194.848 175.02 194.634 174.488 194.282 174.052C193.576 172.825 192.84 171.599 192.068 170.237C188.97 164.803 186.633 160.295 186.854 160.172C187.075 160.05 189.768 164.355 192.865 169.795C193.613 171.139 194.337 172.421 195.018 173.647C195.457 174.237 195.674 174.962 195.631 175.696C195.583 175.895 195.49 176.082 195.36 176.24C195.229 176.398 195.064 176.525 194.877 176.61C194.594 176.739 194.294 176.829 193.987 176.879C191.89 177.327 190.577 177.542 190.553 177.425Z" fill="#263238"/>
<path d="M195.875 201.915C188.764 203.144 181.451 202.373 174.752 199.689C174.752 199.689 181.302 209.318 196.219 205.522L195.875 201.915Z" fill="#EB996E"/>
<path d="M190.453 182.596C189.978 182.158 189.399 181.849 188.771 181.698C188.143 181.547 187.487 181.558 186.865 181.731C186.41 181.844 185.983 182.048 185.609 182.331C185.235 182.613 184.921 182.968 184.688 183.375C184.462 183.766 184.363 184.218 184.403 184.668C184.444 185.118 184.623 185.544 184.914 185.889C185.601 186.595 186.81 186.595 187.76 186.153C188.693 185.649 189.516 184.965 190.183 184.141C190.393 183.938 190.562 183.697 190.68 183.43C190.738 183.302 190.758 183.16 190.736 183.022C190.714 182.883 190.652 182.754 190.557 182.651" fill="#FF725E"/>
<path d="M184.615 179.836C184.953 179.762 185.314 182.031 187.51 183.332C189.706 184.632 192.073 184.006 192.141 184.325C192.196 184.46 191.675 184.847 190.657 185.037C189.332 185.262 187.971 185.015 186.811 184.338C185.695 183.686 184.876 182.626 184.529 181.381C184.309 180.449 184.474 179.848 184.615 179.836Z" fill="#263238"/>
<path d="M180.156 156.609C180.039 157.222 177.911 157.265 175.507 157.946C173.103 158.626 171.214 159.608 170.821 159.172C170.637 158.951 170.895 158.363 171.606 157.688C172.567 156.846 173.707 156.234 174.94 155.898C176.173 155.562 177.466 155.512 178.721 155.75C179.708 155.946 180.199 156.326 180.156 156.609Z" fill="#263238"/>
<path d="M199.278 153.585C198.935 154.131 197.212 153.891 195.23 154.198C193.249 154.505 191.63 155.094 191.17 154.658C190.962 154.443 191.17 153.922 191.784 153.358C192.701 152.647 193.795 152.201 194.948 152.07C196.092 151.898 197.262 152.053 198.322 152.518C199.125 152.873 199.432 153.333 199.278 153.585Z" fill="#263238"/>
<path d="M150.881 150.12C152.108 147.838 154.561 146.526 156.892 145.409C166.97 140.573 177.588 136.954 188.522 134.627C190.073 136.786 189.049 139.969 187.105 141.785C185.161 143.6 182.548 144.459 180.137 145.581C177.727 146.703 175.298 148.341 174.47 150.868C173.593 153.554 174.752 156.56 174.004 159.283C172.722 163.975 166.472 165.95 165.221 170.654C164.27 174.205 166.564 177.726 167.355 181.32C167.761 183.147 167.771 185.04 167.386 186.872C167.001 188.704 166.23 190.432 165.123 191.942C164.016 193.451 162.6 194.707 160.969 195.625C159.338 196.544 157.53 197.103 155.665 197.267C153.874 184.235 152.081 171.204 150.286 158.173C149.925 155.456 149.587 152.524 150.881 150.12Z" fill="#263238"/>
<path d="M127.146 185.276C129.066 183.258 131.531 181.449 132.144 178.732C133.04 174.776 129.575 170.488 131.298 166.808C132.862 163.46 138.241 163.196 139.676 159.786C140.792 157.124 139.1 154.977 139.419 152.689C139.738 150.402 142.78 148.181 145.086 148.267L165.019 172.764C167.368 181.32 169.404 185.816 167.939 191.047C167.135 193.918 166.019 196.739 165.847 199.714C165.675 202.688 166.7 205.97 169.239 207.515C158.622 209.202 148.159 204.4 138.474 199.726L128.225 194.776C127.115 194.347 126.129 193.65 125.355 192.746C123.73 190.483 125.226 187.294 127.146 185.276Z" fill="#263238"/>
<path d="M138.002 197.125C138.382 197.215 138.771 197.259 139.161 197.254C140.284 197.282 141.402 197.114 142.467 196.757C144.174 196.204 145.706 195.214 146.914 193.887C148.508 192.094 149.416 189.796 149.477 187.398C149.524 186.009 149.294 184.625 148.803 183.325C148.209 181.957 147.435 180.674 146.503 179.51C145.521 178.315 144.722 176.982 144.129 175.554C143.62 174.101 143.479 172.334 144.344 170.973C145.209 169.611 146.993 169.133 148.637 168.323C149.553 167.956 150.317 167.287 150.801 166.427C151.285 165.567 151.461 164.568 151.299 163.594C151.121 161.644 150.146 159.914 149.643 158.123C149.356 157.244 149.277 156.31 149.41 155.394C149.574 154.491 150.06 153.679 150.778 153.106C152.237 151.88 154.188 151.548 156.071 151.266C158.009 151.043 159.859 150.334 161.45 149.206C162.977 148.086 164.169 146.569 164.897 144.82C165.498 143.139 165.831 141.373 165.884 139.588C165.936 137.934 166.16 136.29 166.553 134.682C166.995 133.209 167.75 131.849 168.767 130.695C170.451 128.779 172.702 127.449 175.193 126.898C177.684 126.347 180.286 126.602 182.622 127.628C184.233 128.298 185.712 129.249 186.989 130.438C188.066 131.471 189.017 132.628 189.822 133.884C189.822 133.884 189.792 133.786 189.7 133.615C189.568 133.356 189.423 133.104 189.264 132.86C188.67 131.91 187.962 131.037 187.154 130.26C185.881 129.014 184.391 128.012 182.757 127.303C180.584 126.333 178.182 125.997 175.826 126.334C172.958 126.792 170.332 128.213 168.38 130.364C167.3 131.568 166.496 132.993 166.025 134.541C165.615 136.178 165.374 137.853 165.308 139.539C165.251 141.262 164.926 142.965 164.345 144.587C163.654 146.231 162.528 147.656 161.088 148.709C159.571 149.775 157.809 150.441 155.966 150.647C154.126 150.966 152.01 151.26 150.379 152.652C149.549 153.318 148.987 154.261 148.797 155.308C148.648 156.318 148.732 157.348 149.042 158.32C149.588 160.215 150.532 161.883 150.692 163.68C150.844 164.533 150.696 165.412 150.272 166.167C149.848 166.922 149.175 167.507 148.367 167.82C147.594 168.219 146.754 168.519 145.957 168.936C145.119 169.322 144.403 169.929 143.884 170.691C142.884 172.291 143.093 174.217 143.638 175.763C144.252 177.237 145.078 178.614 146.092 179.848C147.01 180.967 147.774 182.205 148.361 183.528C148.84 184.765 149.072 186.084 149.042 187.41C149.006 189.715 148.164 191.935 146.662 193.684C145.499 194.99 144.021 195.976 142.369 196.549C140.964 197.019 139.481 197.215 138.002 197.125Z" fill="#455A64"/>
<path d="M122.281 179.835C122.127 180.114 122.031 180.421 121.999 180.737C121.893 181.672 122.131 182.614 122.668 183.387C123.046 183.944 123.556 184.399 124.152 184.711C124.873 185.07 125.681 185.219 126.483 185.141C127.459 185.044 128.39 184.681 129.174 184.091C129.958 183.502 130.565 182.709 130.93 181.798C131.356 180.747 131.529 179.61 131.432 178.48C131.301 177.27 130.952 176.094 130.402 175.009C129.366 172.758 127.648 170.629 127.403 167.931C127.297 167.269 127.327 166.594 127.491 165.944C127.654 165.295 127.948 164.685 128.354 164.153C129.231 163.116 130.678 162.76 132.144 162.631C133.61 162.503 135.211 162.527 136.732 161.785C137.493 161.405 138.114 160.793 138.504 160.037C138.886 159.285 139.095 158.457 139.118 157.614C139.185 155.934 138.67 154.388 138.357 152.892C138.007 151.442 137.972 149.934 138.253 148.47C138.803 145.678 140.398 143.201 142.712 141.545C144.92 139.969 147.588 139.601 149.992 139.27C152.396 138.938 154.751 138.607 156.671 137.663C159.721 136.204 162.159 133.717 163.559 130.64C164.1 129.546 164.441 128.364 164.565 127.15C164.258 128.313 163.847 129.446 163.338 130.536C162.71 131.795 161.902 132.956 160.94 133.983C159.677 135.345 158.155 136.442 156.463 137.209C154.623 138.092 152.329 138.399 149.9 138.699C147.471 139 144.748 139.38 142.368 141.067C139.913 142.794 138.219 145.402 137.639 148.347C137.336 149.891 137.367 151.483 137.731 153.014C138.056 154.548 138.541 156.081 138.48 157.584C138.418 159.086 137.78 160.601 136.45 161.227C135.119 161.853 133.579 161.84 132.076 162.018C130.574 162.196 128.93 162.527 127.9 163.76C127.445 164.354 127.116 165.035 126.933 165.76C126.749 166.486 126.715 167.241 126.832 167.98C127.002 169.355 127.442 170.682 128.127 171.887C128.74 173.058 129.402 174.138 129.93 175.223C130.466 176.251 130.813 177.366 130.954 178.517C131.054 179.571 130.905 180.634 130.519 181.62C130.193 182.469 129.642 183.213 128.924 183.771C128.206 184.329 127.349 184.68 126.446 184.785C125.706 184.875 124.956 184.756 124.281 184.442C123.606 184.1 123.044 183.571 122.661 182.919C122.278 182.266 122.091 181.517 122.122 180.762C122.171 180.148 122.318 179.848 122.281 179.835Z" fill="#263238"/>
<path d="M235.435 177.302C235.816 178.186 235.884 179.173 235.625 180.099C235.489 180.634 235.234 181.132 234.881 181.556C234.528 181.981 234.084 182.321 233.583 182.553C232.909 182.809 232.178 182.874 231.47 182.74C230.762 182.606 230.104 182.278 229.572 181.792C228.966 181.22 228.578 180.454 228.474 179.627C228.37 178.709 228.437 177.779 228.67 176.885C229.093 175.045 230.099 172.972 229.731 170.623C229.555 169.43 229.131 168.287 228.487 167.268C227.842 166.249 226.992 165.376 225.99 164.705C224.938 163.996 223.763 163.491 222.525 163.214C221.257 162.967 219.962 162.885 218.673 162.969C217.43 163.056 216.181 163.025 214.944 162.877C213.786 162.729 212.717 162.177 211.926 161.319C211.219 160.437 210.773 159.375 210.638 158.252C210.485 157.152 210.485 156.035 210.638 154.934C210.908 152.763 211.386 150.641 211.104 148.605C210.846 146.732 210.039 144.978 208.786 143.563C207.724 142.45 206.464 141.545 205.069 140.895C204.049 140.403 203.067 139.835 202.131 139.196C201.352 138.627 200.695 137.908 200.199 137.08C200.209 137.144 200.23 137.207 200.261 137.264C200.33 137.442 200.416 137.612 200.518 137.773C200.897 138.401 201.395 138.949 201.984 139.386C202.904 140.077 203.878 140.693 204.897 141.226C206.235 141.885 207.438 142.786 208.449 143.882C209.623 145.239 210.368 146.915 210.589 148.697C210.834 150.61 210.362 152.677 210.068 154.891C209.905 156.045 209.905 157.215 210.068 158.369C210.212 159.61 210.703 160.785 211.485 161.761C212.364 162.734 213.563 163.363 214.864 163.533C216.14 163.687 217.427 163.722 218.71 163.637C219.941 163.556 221.178 163.632 222.39 163.864C223.553 164.12 224.658 164.592 225.646 165.257C226.585 165.881 227.382 166.694 227.988 167.645C228.593 168.595 228.993 169.662 229.161 170.777C229.523 172.917 228.603 174.892 228.167 176.836C227.927 177.794 227.871 178.789 228.002 179.768C228.13 180.698 228.582 181.554 229.277 182.185C229.871 182.716 230.603 183.069 231.389 183.203C232.174 183.336 232.982 183.245 233.718 182.939C234.584 182.504 235.268 181.776 235.648 180.885C236.028 179.993 236.078 178.995 235.791 178.069C235.726 177.792 235.605 177.531 235.435 177.302Z" fill="#263238"/>
<path d="M226.136 250.074L224.051 281.354H147.09C147.09 281.354 144.845 270.087 143.496 259.379C142.784 253.687 141.098 250.792 140.883 250.326C140.331 249.148 144.269 218.794 144.269 218.794L182.443 214.501C190.493 213.314 198.625 212.776 206.761 212.894C220.199 213.195 223.935 221.101 224.413 231.037L226.136 250.074Z" fill="#FFD6BE"/>
<path d="M144.269 218.794C144.269 218.794 134.069 220.5 129.929 227.498C125.789 234.496 105.801 281.354 105.801 281.354L136.234 282.428L149.446 253.73L144.269 218.794Z" fill="#FFD6BE"/>
<path d="M143.521 259.379C143.521 259.379 154.187 242.5 168.834 249.197C183.48 255.895 186.78 268.137 186.78 268.137C186.78 268.137 193.698 244.714 210.037 246.45C226.377 248.185 224.42 263.482 224.359 260.667L224.077 281.354H146.588L143.521 259.379Z" fill="#263238"/>
<path d="M138.455 244.352C138.631 244.599 138.787 244.859 138.921 245.131C139.203 245.64 139.584 246.394 140.025 247.339C142.297 252.291 143.715 257.591 144.22 263.016C144.312 264.052 144.361 264.899 144.368 265.469C144.393 265.769 144.393 266.071 144.368 266.371C144.301 266.077 144.264 265.777 144.257 265.475C144.214 264.899 144.128 264.058 144.006 263.022C143.389 257.649 141.986 252.396 139.841 247.431C139.43 246.48 139.081 245.714 138.835 245.186C138.684 244.92 138.557 244.641 138.455 244.352Z" fill="#FFB294"/>
<path d="M179.181 216.893C174.17 237.452 174.618 252.301 179.623 254.239L172.533 278.196L161.922 280.294C172.594 285.102 181.549 284.93 181.549 284.93L175.059 278.871L182.61 255.086C192.423 255.398 196.514 220.451 196.514 220.451L179.181 216.893Z" fill="#FAFAFA"/>
<path d="M179.18 216.893L179.468 216.942L180.321 217.12L183.694 217.783L196.47 220.34H196.556V220.426C195.852 226.148 194.808 231.824 193.428 237.422C192.611 240.806 191.532 244.122 190.201 247.339C189.488 249.079 188.567 250.726 187.46 252.246C186.882 253.034 186.185 253.727 185.393 254.301C184.568 254.9 183.573 255.218 182.553 255.208L182.7 255.11C180.376 262.47 177.824 270.486 175.162 278.895L175.12 278.73C177.18 280.662 179.413 282.71 181.609 284.789L181.903 285.065H181.504C180.799 285.065 180.051 285.029 179.296 284.973C173.26 284.451 167.356 282.91 161.835 280.416L161.381 280.214L161.865 280.116L172.507 278.049L172.39 278.159C174.966 269.487 177.358 261.421 179.499 254.209L179.578 254.362C178.881 254.067 178.278 253.585 177.837 252.97C177.413 252.38 177.071 251.737 176.818 251.056C176.343 249.756 176.018 248.406 175.849 247.033C175.544 244.514 175.454 241.974 175.58 239.439C175.772 235.352 176.231 231.281 176.953 227.253C177.53 223.916 178.106 221.328 178.517 219.574C178.714 218.697 178.892 218.016 179.002 217.568C179.112 217.12 179.18 216.899 179.18 216.899C179.18 216.899 179.131 217.145 179.033 217.599C178.934 218.053 178.781 218.721 178.591 219.592C178.205 221.352 177.659 223.941 177.101 227.277C176.405 231.301 175.967 235.366 175.788 239.446C175.674 241.968 175.772 244.496 176.082 247.002C176.252 248.355 176.578 249.685 177.052 250.964C177.299 251.618 177.631 252.236 178.039 252.804C178.452 253.381 179.017 253.833 179.67 254.11L179.781 254.153L179.75 254.27C177.622 261.483 175.242 269.554 172.678 278.233V278.319H172.586L161.921 280.416L161.957 280.122C167.448 282.596 173.316 284.126 179.315 284.648C180.057 284.703 180.805 284.74 181.486 284.74L181.382 285.016L174.893 278.957L174.819 278.889V278.791C177.493 270.388 180.051 262.347 182.381 255.012L182.412 254.908H182.529C183.484 254.916 184.417 254.617 185.19 254.055C185.959 253.502 186.635 252.831 187.196 252.068C188.291 250.571 189.203 248.948 189.913 247.235C191.265 244.034 192.364 240.733 193.201 237.36C194.595 231.775 195.66 226.112 196.39 220.402L196.464 220.506L183.755 217.862L180.376 217.145L179.499 216.955L179.18 216.893Z" fill="#263238"/>
<path d="M179.278 226.167L193.299 228.921C193.299 228.921 189.496 254.681 182.743 254.098C175.991 253.515 175.009 243.168 179.278 226.167Z" fill="#FF725E"/>
<g opacity="0.3">
<path d="M176.641 243.788C182.075 241.445 187.349 238.881 192.189 235.459L191.459 238.36L176.917 246.333L176.641 243.788Z" fill="white"/>
</g>
<path d="M196.636 220.635C196.412 220.724 196.177 220.784 195.937 220.812C195.295 220.941 194.645 221.031 193.993 221.082C193.024 221.168 192.05 221.186 191.079 221.138C189.888 221.073 188.704 220.924 187.534 220.69C186.366 220.441 185.218 220.104 184.099 219.684C183.189 219.338 182.303 218.928 181.45 218.457C180.871 218.151 180.311 217.809 179.775 217.433C179.568 217.31 179.376 217.162 179.205 216.991C179.236 216.942 180.082 217.519 181.554 218.261C182.414 218.691 183.299 219.07 184.204 219.396C186.418 220.207 188.738 220.69 191.091 220.831C192.051 220.889 193.014 220.889 193.974 220.831C195.618 220.8 196.624 220.579 196.636 220.635Z" fill="#263238"/>
<path d="M140.086 282.336L156.916 258.293L158.468 242.267L167.526 231.129L171.145 227.516H184.344C184.344 227.516 185.123 230.877 180.462 232.423L175.028 232.944L171.666 236.305L176.843 234.238L192.366 238.636C192.366 238.636 192.366 242.518 189.263 242.261C186.16 242.003 178.652 240.188 178.652 240.188L169.207 244.328L177.867 246.904L186.411 259.066C186.411 259.066 183.823 262.176 181.504 260.618L180.989 262.948C179.306 262.23 177.736 261.271 176.328 260.102L173.74 258.036L170.378 257.514L170.562 264.089C170.601 265.7 170.154 267.286 169.281 268.64L160.51 282.403L140.086 282.336Z" fill="#FFD6BE"/>
<path d="M140.088 282.336H160.524L160.445 282.379L167.191 271.768C167.805 270.787 168.485 269.805 169.031 268.763C169.886 267.114 170.35 265.29 170.387 263.433C170.387 262.82 170.356 262.151 170.344 261.501C170.307 260.195 170.264 258.87 170.227 257.52V257.367H170.381L173.742 257.876H173.779C174.852 258.723 175.962 259.649 177.127 260.526C178.323 261.422 179.62 262.173 180.991 262.764L180.807 262.863C180.961 262.151 181.139 261.348 181.323 260.538L181.359 260.348L181.537 260.446C181.893 260.676 182.299 260.815 182.721 260.851C183.167 260.863 183.61 260.779 184.021 260.605C184.884 260.214 185.65 259.638 186.266 258.919V259.097L177.753 246.989L177.833 247.051L169.166 244.469L168.755 244.346L169.148 244.174L178.593 240.034H178.636H178.691C181.071 240.599 183.531 241.144 186.051 241.617C186.665 241.733 187.309 241.837 187.947 241.936C188.57 242.049 189.202 242.102 189.836 242.095C190.14 242.069 190.435 241.98 190.703 241.835C190.971 241.689 191.206 241.489 191.393 241.249C191.772 240.742 192.021 240.15 192.117 239.525C192.174 239.232 192.207 238.934 192.215 238.636L192.332 238.789L176.808 234.392H176.907L171.736 236.44L171.025 236.722L171.571 236.183L174.932 232.821L174.975 232.779H175.03L180.464 232.257H180.427C181.51 231.931 182.492 231.333 183.279 230.521C183.647 230.121 183.921 229.643 184.083 229.123C184.244 228.604 184.288 228.055 184.211 227.516L184.359 227.633H171.123L171.227 227.59L167.627 231.227L158.568 242.328V242.261C157.991 248.136 157.468 253.483 156.998 258.299V258.33L140.082 282.311C140.536 281.655 146.363 273.259 156.826 258.207V258.256C157.28 253.448 157.789 248.1 158.353 242.212V242.175V242.144L167.443 231.018L171.061 227.4L171.104 227.357H184.487V227.473C184.574 228.059 184.529 228.657 184.356 229.223C184.183 229.79 183.886 230.311 183.488 230.748C182.669 231.609 181.643 232.242 180.507 232.588H180.476L175.042 233.11L175.134 233.067L171.773 236.428L171.601 236.176L176.778 234.103H176.827H176.882L192.406 238.501L192.528 238.532V238.654C192.521 238.974 192.487 239.292 192.424 239.605C192.314 240.273 192.045 240.904 191.639 241.445C191.426 241.721 191.158 241.95 190.851 242.117C190.545 242.283 190.208 242.385 189.86 242.414C189.2 242.424 188.541 242.371 187.891 242.255C187.278 242.156 186.616 242.046 185.984 241.929C183.463 241.457 181.004 240.911 178.624 240.341H178.722L169.283 244.463V244.168L177.949 246.756H178.004L178.035 246.799L186.567 258.968L186.634 259.06L186.56 259.14C185.914 259.893 185.11 260.496 184.205 260.906C183.756 261.096 183.27 261.186 182.782 261.17C182.309 261.131 181.852 260.978 181.451 260.722L181.666 260.63C181.488 261.446 181.31 262.249 181.151 262.961L181.114 263.126L180.967 263.059C179.572 262.457 178.254 261.692 177.041 260.777C175.858 259.888 174.766 258.974 173.687 258.115L173.748 258.146L170.387 257.625L170.534 257.496C170.571 258.845 170.606 260.172 170.638 261.476C170.638 262.133 170.687 262.771 170.681 263.421C170.665 264.062 170.601 264.702 170.491 265.334C170.261 266.561 169.848 267.746 169.264 268.849C168.651 269.922 167.995 270.885 167.388 271.866C164.891 275.761 162.622 279.306 160.61 282.459V282.495H160.561L140.088 282.336Z" fill="#FFB294"/>
<path d="M181.498 260.618C181.336 260.418 181.194 260.202 181.075 259.974L179.971 258.177C179.505 257.422 178.935 256.533 178.26 255.576C177.923 255.098 177.555 254.607 177.144 254.123C176.751 253.625 176.266 253.209 175.715 252.896C175.121 252.636 174.505 252.431 173.875 252.283C173.261 252.123 172.648 251.994 172.084 251.865C170.937 251.626 169.894 251.436 169.017 251.252L166.944 250.878C166.688 250.847 166.435 250.791 166.189 250.712C166.448 250.697 166.707 250.711 166.962 250.755C167.459 250.811 168.189 250.896 169.054 251.025C169.919 251.154 170.986 251.326 172.12 251.553C172.697 251.669 173.304 251.798 173.93 251.957C174.583 252.104 175.221 252.31 175.837 252.571C176.431 252.909 176.951 253.364 177.364 253.908C177.781 254.405 178.149 254.908 178.481 255.392C179.149 256.367 179.707 257.281 180.149 258.048C180.591 258.815 180.934 259.459 181.161 259.888C181.3 260.118 181.413 260.363 181.498 260.618Z" fill="#FFB294"/>
<path d="M162.418 240.323C164.009 239.481 165.648 238.732 167.325 238.078C168.968 237.333 170.654 236.683 172.372 236.134C170.781 236.975 169.143 237.725 167.466 238.378C165.823 239.124 164.137 239.774 162.418 240.323Z" fill="#FFB294"/>
<path d="M234.791 230.448C234.781 229.529 234.507 228.632 234.001 227.864C233.495 227.097 232.778 226.492 231.937 226.121C231.096 225.75 230.166 225.63 229.258 225.774C228.35 225.918 227.503 226.32 226.818 226.933C225.144 225.247 222.439 224.4 220.298 225.437C218.158 226.473 217.232 229.687 218.875 231.398C218.204 231.478 217.558 231.697 216.977 232.041C216.396 232.386 215.893 232.848 215.502 233.399C215.111 233.95 214.84 234.576 214.706 235.239C214.571 235.901 214.578 236.583 214.724 237.243C214.87 237.902 215.152 238.524 215.553 239.068C215.954 239.611 216.465 240.065 217.052 240.399C217.639 240.733 218.29 240.94 218.962 241.007C219.634 241.074 220.313 241 220.954 240.789C221.383 241.891 222.132 242.841 223.105 243.514C224.078 244.187 225.23 244.554 226.413 244.567C227.597 244.547 228.755 244.224 229.779 243.63C230.802 243.035 231.656 242.187 232.258 241.169C232.839 240.138 233.194 238.996 233.3 237.818C233.405 236.64 233.26 235.454 232.872 234.336C233.654 233.972 234.277 233.335 234.626 232.546C234.974 231.756 235.024 230.867 234.767 230.043" fill="#F5F5F5"/>
<path d="M149.592 274.957C148.764 270.48 142.072 267.793 137.528 267.781C132.983 267.769 130.517 269.738 126.488 271.811C126.849 269.067 126.32 266.28 124.977 263.861C123.635 261.441 121.551 259.517 119.032 258.371C116.513 257.226 113.693 256.92 110.987 257.499C108.281 258.078 105.833 259.511 104.003 261.586C104.107 254.944 98.7159 248.651 92.1348 247.737C85.5538 246.823 78.6415 251.417 76.9426 257.82C74.9209 256.404 72.562 255.544 70.1029 255.328C67.6439 255.112 65.1713 255.547 62.9336 256.59C60.6959 257.632 58.772 259.245 57.3553 261.267C55.9385 263.288 55.0788 265.647 54.8626 268.106C46.2759 264.469 34.6226 270.087 31.6602 278.944H170.691C165.919 272.657 155.787 270.087 149.592 274.957ZM43.0007 276.687C42.4308 276.685 41.8741 276.515 41.4008 276.198C40.9276 275.88 40.5591 275.43 40.3418 274.903C40.1246 274.376 40.0684 273.797 40.1803 273.238C40.2922 272.679 40.5672 272.166 40.9706 271.763C41.374 271.361 41.8877 271.087 42.4467 270.976C43.0057 270.865 43.585 270.923 44.1114 271.141C44.6378 271.36 45.0876 271.729 45.4041 272.203C45.7206 272.677 45.8895 273.234 45.8895 273.804C45.8895 274.183 45.8147 274.558 45.6695 274.908C45.5242 275.259 45.3113 275.577 45.043 275.844C44.7747 276.112 44.4562 276.324 44.1057 276.469C43.7553 276.613 43.3798 276.687 43.0007 276.687ZM47.7847 275.202C47.6025 275.204 47.424 275.151 47.2719 275.05C47.1198 274.95 47.0009 274.807 46.9304 274.639C46.8598 274.471 46.8407 274.285 46.8755 274.107C46.9103 273.928 46.9974 273.763 47.1258 273.634C47.2543 273.505 47.4182 273.416 47.5968 273.38C47.7754 273.344 47.9607 273.362 48.1292 273.432C48.2977 273.501 48.4417 273.619 48.5431 273.771C48.6444 273.922 48.6986 274.1 48.6986 274.282C48.6986 274.525 48.6025 274.758 48.4313 274.931C48.2601 275.103 48.0276 275.201 47.7847 275.202ZM48.1466 272.203C47.893 272.203 47.6452 272.128 47.4344 271.987C47.2236 271.846 47.0593 271.646 46.9623 271.412C46.8652 271.178 46.8399 270.92 46.8893 270.671C46.9388 270.423 47.0609 270.194 47.2401 270.015C47.4194 269.836 47.6478 269.713 47.8965 269.664C48.1451 269.615 48.4029 269.64 48.6371 269.737C48.8713 269.834 49.0715 269.998 49.2124 270.209C49.3532 270.42 49.4284 270.668 49.4284 270.921C49.4268 271.261 49.2912 271.586 49.0512 271.826C48.8111 272.066 48.486 272.202 48.1466 272.203ZM65.3199 266.487C64.6816 266.488 64.0572 266.3 63.5259 265.946C62.9945 265.592 62.5801 265.089 62.335 264.5C62.0898 263.91 62.0251 263.261 62.1489 262.635C62.2727 262.009 62.5794 261.433 63.0304 260.982C63.4813 260.53 64.0561 260.222 64.6821 260.097C65.3081 259.972 65.9571 260.036 66.5469 260.28C67.1368 260.524 67.641 260.937 67.9958 261.468C68.3505 261.998 68.5399 262.622 68.5399 263.261C68.5407 263.684 68.4582 264.102 68.2971 264.493C68.1361 264.884 67.8995 265.24 67.6011 265.539C67.3027 265.839 66.9482 266.077 66.5578 266.239C66.1674 266.402 65.7489 266.486 65.326 266.487H65.3199Z" fill="#E0E0E0"/>
<path d="M266.879 277.803C263.505 271.584 255.146 268.64 248.608 271.388C248.188 269.923 247.454 268.568 246.458 267.415C245.461 266.263 244.226 265.341 242.838 264.714C241.45 264.086 239.942 263.769 238.418 263.782C236.895 263.796 235.393 264.142 234.016 264.794C233.479 262.967 232.476 261.312 231.106 259.99C229.735 258.668 228.044 257.726 226.199 257.255C224.354 256.785 222.418 256.803 220.582 257.308C218.746 257.812 217.073 258.786 215.727 260.133C214.5 261.36 213.537 262.887 211.992 263.641C210.734 264.254 209.281 264.254 207.907 264.475C205.956 264.812 204.114 265.608 202.531 266.797C200.949 267.986 199.671 269.534 198.805 271.314C196.376 270.679 193.814 270.773 191.437 271.583C189.061 272.393 186.976 273.884 185.44 275.871C183.515 275.041 181.361 274.906 179.347 275.489C177.333 276.071 175.585 277.336 174.4 279.066H267.511C267.296 279.066 267.087 277.803 266.879 277.803Z" fill="#EBEBEB"/>
<path d="M418.589 278.888H413.627V220.898C413.627 220.818 413.824 211.919 408.359 206.3C405.292 203.166 400.999 201.572 395.479 201.572C389.658 201.572 385.138 203.185 382.047 206.362C377.14 211.403 377.281 218.892 377.287 218.966L372.325 219.125C372.325 218.739 372.086 209.527 378.459 202.946C382.525 198.744 388.272 196.616 395.485 196.616C402.379 196.616 407.911 198.72 411.934 202.878C418.681 209.864 418.595 220.125 418.577 221.014L418.589 278.888Z" fill="#E0E0E0"/>
<path d="M418.588 278.889C418.588 278.889 418.588 278.656 418.588 278.214C418.588 277.772 418.588 277.104 418.588 276.245C418.588 274.509 418.588 271.952 418.588 268.695C418.588 262.151 418.552 252.693 418.527 241.003C418.527 235.164 418.527 228.773 418.527 221.91C418.61 218.37 418.078 214.842 416.957 211.483C415.772 207.898 413.7 204.67 410.934 202.099C407.972 199.477 404.319 197.763 400.409 197.162C398.398 196.842 396.36 196.719 394.325 196.794C392.257 196.854 390.201 197.133 388.192 197.628C386.144 198.141 384.185 198.956 382.377 200.045C381.464 200.594 380.602 201.224 379.801 201.928C379.39 202.271 379.016 202.651 378.636 203.025L377.562 204.252C374.841 207.712 373.153 211.871 372.693 216.249C372.573 217.207 372.516 218.172 372.521 219.138L372.361 218.984L377.317 218.825L377.164 218.99C377.187 217.225 377.432 215.469 377.894 213.765C378.335 212.077 379.015 210.46 379.912 208.963C380.802 207.48 381.946 206.166 383.291 205.08C384.63 204.022 386.134 203.193 387.744 202.627C390.906 201.596 394.243 201.212 397.557 201.498C400.777 201.666 403.889 202.714 406.555 204.528C407.19 204.99 407.789 205.501 408.346 206.055C408.628 206.325 408.867 206.632 409.131 206.92C409.388 207.208 409.628 207.511 409.848 207.828C410.753 209.058 411.492 210.403 412.044 211.827C413.116 214.567 413.707 217.472 413.792 220.413C413.792 226.124 413.792 231.545 413.792 236.636C413.755 256.98 413.725 272.001 413.712 278.876L413.669 278.833H417.417H418.644C418.644 278.833 418.263 278.833 417.454 278.833H413.682H413.639V278.79C413.639 271.915 413.602 256.888 413.559 236.55C413.559 231.46 413.559 226.044 413.559 220.334C413.474 217.421 412.887 214.545 411.823 211.833C411.273 210.434 410.543 209.113 409.652 207.901C409.44 207.588 409.204 207.29 408.947 207.012C408.689 206.73 408.456 206.429 408.18 206.166C407.637 205.622 407.05 205.123 406.426 204.675C403.773 202.912 400.685 201.912 397.502 201.786C394.236 201.512 390.948 201.892 387.83 202.903C386.256 203.459 384.784 204.267 383.469 205.295C382.155 206.361 381.036 207.648 380.163 209.097C379.279 210.568 378.612 212.159 378.182 213.82C377.728 215.494 377.487 217.219 377.464 218.954V219.113H377.311L372.355 219.273H372.196V219.113C372.189 218.131 372.249 217.149 372.374 216.175C372.831 211.74 374.532 207.524 377.28 204.013L378.366 202.786C378.758 202.406 379.139 202.02 379.593 201.67C380.405 200.953 381.282 200.313 382.212 199.756C384.043 198.649 386.03 197.822 388.106 197.303C390.143 196.801 392.228 196.517 394.325 196.457C396.377 196.386 398.431 196.513 400.458 196.837C404.426 197.447 408.132 199.191 411.13 201.86C413.904 204.468 415.975 207.734 417.153 211.355C418.287 214.748 418.819 218.315 418.723 221.892C418.723 228.773 418.723 235.189 418.723 241.04C418.723 252.736 418.68 262.2 418.668 268.744C418.668 272.007 418.668 274.534 418.668 276.264C418.668 277.11 418.668 277.766 418.668 278.208C418.668 278.649 418.588 278.889 418.588 278.889Z" fill="#263238"/>
<path d="M437.822 288.8H20.9516C19.6503 288.8 18.4022 288.283 17.4821 287.363C16.5619 286.443 16.0449 285.195 16.0449 283.893C16.0449 282.592 16.5619 281.344 17.4821 280.424C18.4022 279.504 19.6503 278.987 20.9516 278.987H437.822C439.123 278.987 440.371 279.504 441.292 280.424C442.212 281.344 442.729 282.592 442.729 283.893C442.729 285.195 442.212 286.443 441.292 287.363C440.371 288.283 439.123 288.8 437.822 288.8Z" fill="#455A64"/>
<path d="M437.228 279.066C437.228 279.152 344.179 279.226 229.418 279.226C114.657 279.226 21.584 279.152 21.584 279.066C21.584 278.981 114.621 278.907 229.418 278.907C344.216 278.907 437.228 278.974 437.228 279.066Z" fill="#263238"/>
<path d="M85.553 219.187H90.5333C92.4003 219.187 94.249 219.555 95.9739 220.269C97.6988 220.984 99.2661 222.031 100.586 223.351C101.906 224.671 102.954 226.239 103.668 227.963C104.383 229.688 104.75 231.537 104.75 233.404V278.944H71.3359V233.404C71.3359 229.633 72.8338 226.017 75.5 223.351C78.1662 220.685 81.7824 219.187 85.553 219.187Z" fill="#455A64"/>
<path d="M92.2765 185.123H83.8125V227.044H92.2765V185.123Z" fill="#455A64"/>
<path d="M92.2765 198.125H83.8125V210.999H92.2765V198.125Z" fill="#FF725E"/>
<path d="M88.5093 238.697H71.3359V271.719H88.5093V238.697Z" fill="#263238"/>
<path d="M360.873 246.946H349.76C348.747 246.946 347.926 247.767 347.926 248.78V277.006C347.926 278.018 348.747 278.839 349.76 278.839H360.873C361.886 278.839 362.707 278.018 362.707 277.006V248.78C362.707 247.767 361.886 246.946 360.873 246.946Z" fill="#EBEBEB"/>
<path d="M360.868 278.846C361.171 278.821 361.465 278.735 361.733 278.594C362.051 278.422 362.312 278.159 362.482 277.84C362.587 277.636 362.648 277.412 362.659 277.183C362.659 276.938 362.659 276.662 362.659 276.38C362.659 274.08 362.659 270.78 362.61 266.714C362.561 262.647 362.61 257.771 362.574 252.38V249.314C362.596 248.98 362.567 248.645 362.488 248.32C362.386 248.007 362.194 247.731 361.937 247.526C361.68 247.321 361.368 247.196 361.04 247.167C360.347 247.167 359.599 247.167 358.869 247.167H349.767C349.411 247.169 349.065 247.283 348.777 247.494C348.49 247.704 348.276 248 348.166 248.338C348.112 248.505 348.086 248.679 348.087 248.854V250.571C348.087 252.086 348.087 253.582 348.087 255.048C348.087 257.986 348.087 260.82 348.087 263.518C348.087 266.217 348.087 268.775 348.087 271.179C348.087 272.375 348.087 273.534 348.087 274.65C348.087 275.202 348.087 275.748 348.087 276.288C348.028 276.79 348.081 277.299 348.24 277.778C348.335 277.993 348.474 278.187 348.647 278.346C348.82 278.505 349.024 278.627 349.246 278.704C349.694 278.805 350.155 278.839 350.614 278.803H353.208L357.366 278.833H359.998H360.678H360.911C360.834 278.843 360.756 278.843 360.678 278.833H359.998L357.366 278.864H353.208H350.614H349.914C349.663 278.874 349.411 278.839 349.172 278.76C348.788 278.628 348.455 278.38 348.219 278.051C347.982 277.721 347.855 277.325 347.854 276.92V276.128C347.854 275.589 347.854 275.043 347.854 274.491C347.854 273.375 347.854 272.215 347.854 271.019C347.854 268.615 347.854 266.051 347.854 263.359C347.854 260.666 347.854 257.839 347.854 254.889V248.694C347.854 248.486 347.885 248.28 347.945 248.081C348.076 247.677 348.331 247.325 348.673 247.075C349.016 246.825 349.429 246.69 349.853 246.688H358.936C359.679 246.688 360.384 246.688 361.132 246.688C361.519 246.724 361.887 246.872 362.191 247.114C362.495 247.356 362.722 247.681 362.843 248.05C362.935 248.406 362.968 248.775 362.942 249.142V250.184C362.942 250.878 362.942 251.558 362.942 252.233C362.942 257.624 362.942 262.482 362.911 266.567C362.88 270.651 362.874 273.927 362.862 276.233C362.862 276.521 362.862 276.779 362.862 277.042C362.828 277.472 362.644 277.877 362.343 278.185C362.041 278.493 361.641 278.686 361.212 278.729C361.104 278.786 360.988 278.826 360.868 278.846Z" fill="#263238"/>
<path d="M357.273 230.086C357.189 229.916 357.064 229.769 356.91 229.658C356.756 229.547 356.577 229.476 356.389 229.45C356.201 229.424 356.01 229.444 355.831 229.509C355.653 229.574 355.493 229.681 355.366 229.822C354.303 230.939 353.371 232.174 352.587 233.502C351.485 235.323 351.082 237.483 351.453 239.58C351.919 241.641 353.581 243.493 355.672 243.775C358.163 243.064 358.831 240.978 359.23 238.476C359.69 235.606 358.592 232.76 357.273 230.086Z" fill="#FF725E"/>
<g opacity="0.3">
<path d="M356.249 235.826C356.21 235.745 356.151 235.674 356.078 235.621C356.005 235.567 355.92 235.533 355.83 235.52C355.74 235.507 355.649 235.517 355.564 235.548C355.479 235.579 355.402 235.63 355.342 235.698C354.833 236.233 354.388 236.826 354.017 237.464C353.49 238.331 353.299 239.36 353.477 240.359C353.577 240.853 353.82 241.307 354.177 241.662C354.534 242.018 354.988 242.26 355.483 242.358C356.673 242.021 356.992 241.027 357.182 239.838C357.403 238.451 356.875 237.096 356.249 235.826Z" fill="white"/>
</g>
<path d="M355.12 246.946C354.908 244.618 354.908 242.276 355.12 239.948C355.333 242.276 355.333 244.618 355.12 246.946Z" fill="#263238"/>
<path d="M357.686 240.997C357.594 240.997 358.005 239.402 357.974 237.421C357.944 235.44 357.508 233.882 357.606 233.858C358.094 234.981 358.329 236.197 358.293 237.421C358.36 238.643 358.152 239.865 357.686 240.997Z" fill="white"/>
<path d="M362.4 258.685C362.4 258.685 362.364 258.753 362.223 258.802C362.12 258.833 362.012 258.84 361.906 258.824C361.8 258.808 361.698 258.769 361.609 258.71C361.336 258.537 361.122 258.284 360.996 257.986C360.858 257.616 360.607 257.298 360.278 257.079C360.06 257 359.826 256.975 359.595 257.005C359.365 257.035 359.145 257.119 358.953 257.25C358.5 257.496 358.107 257.937 357.561 258.268C357.279 258.453 356.953 258.561 356.617 258.581C356.259 258.596 355.906 258.507 355.599 258.324C354.986 257.937 354.518 257.359 354.268 256.68C353.985 256.017 353.808 255.349 353.519 254.779C353.27 254.217 352.837 253.757 352.293 253.472C351.76 253.305 351.2 253.238 350.643 253.276C350.376 253.278 350.112 253.224 349.867 253.119C349.622 253.013 349.402 252.858 349.22 252.663C348.942 252.33 348.75 251.934 348.662 251.509C348.59 251.199 348.547 250.883 348.533 250.565C348.502 250.297 348.512 250.026 348.564 249.761C348.608 250.023 348.639 250.288 348.656 250.553C348.693 250.859 348.753 251.162 348.833 251.46C348.932 251.849 349.121 252.208 349.385 252.509C349.55 252.679 349.747 252.812 349.966 252.9C350.185 252.989 350.419 253.031 350.655 253.024C351.249 252.973 351.847 253.04 352.415 253.221C353.019 253.528 353.499 254.032 353.777 254.65C354.09 255.263 354.268 255.932 354.537 256.563C354.761 257.18 355.182 257.706 355.733 258.06C355.983 258.215 356.272 258.294 356.566 258.289C356.86 258.283 357.146 258.193 357.389 258.029C357.892 257.735 358.291 257.299 358.806 257.029C359.034 256.882 359.294 256.792 359.565 256.767C359.835 256.743 360.107 256.784 360.358 256.888C360.719 257.138 360.99 257.497 361.131 257.913C361.236 258.195 361.424 258.438 361.671 258.612C361.773 258.691 361.896 258.74 362.025 258.753C362.154 258.766 362.284 258.743 362.4 258.685Z" fill="#263238"/>
<path d="M378.36 259.489H367.246C366.233 259.489 365.412 260.31 365.412 261.323V277.012C365.412 278.025 366.233 278.846 367.246 278.846H378.36C379.372 278.846 380.193 278.025 380.193 277.012V261.323C380.193 260.31 379.372 259.489 378.36 259.489Z" fill="#EBEBEB"/>
<path d="M378.36 278.846C378.569 278.816 378.774 278.765 378.973 278.692C379.261 278.579 379.514 278.393 379.709 278.152C379.904 277.911 380.032 277.624 380.083 277.318C380.126 275.699 380.083 273.295 380.083 270.357C380.083 268.879 380.083 267.29 380.083 265.536C380.083 264.672 380.083 263.776 380.083 262.85V261.445C380.105 260.997 379.954 260.558 379.66 260.219C379.51 260.048 379.328 259.91 379.123 259.812C378.919 259.714 378.696 259.658 378.47 259.648H367.252C366.996 259.647 366.743 259.706 366.514 259.818C366.284 259.931 366.083 260.095 365.927 260.298C365.772 260.499 365.664 260.732 365.608 260.979C365.574 261.239 365.561 261.502 365.572 261.764V265.003C365.572 267.119 365.572 269.161 365.572 271.136C365.572 273.111 365.572 274.933 365.572 276.656C365.525 277.06 365.596 277.468 365.774 277.834C365.957 278.173 366.248 278.441 366.602 278.594C366.959 278.724 367.34 278.774 367.718 278.741H368.847L375.826 278.797H377.722H378.212H378.384C378.327 278.806 378.269 278.806 378.212 278.797H377.722L375.826 278.827L368.847 278.876H367.694C367.278 278.917 366.859 278.864 366.467 278.723C366.062 278.548 365.725 278.244 365.51 277.858C365.311 277.456 365.228 277.005 365.271 276.558C365.271 274.824 365.271 272.984 365.271 271.038C365.271 269.088 365.271 267.045 365.271 264.905V261.666C365.257 261.381 365.269 261.096 365.308 260.814C365.375 260.519 365.504 260.243 365.688 260.004C365.874 259.763 366.113 259.567 366.386 259.432C366.659 259.297 366.96 259.226 367.264 259.225H378.427C378.694 259.239 378.955 259.306 379.196 259.423C379.436 259.54 379.65 259.704 379.825 259.906C380.165 260.3 380.341 260.809 380.316 261.329C380.316 261.807 380.316 262.273 380.316 262.733C380.316 263.659 380.316 264.573 380.316 265.42C380.316 267.149 380.316 268.762 380.316 270.241C380.285 273.191 380.316 275.558 380.23 277.226C380.17 277.55 380.025 277.851 379.809 278.099C379.594 278.347 379.315 278.533 379.004 278.637C378.811 278.763 378.589 278.834 378.36 278.846Z" fill="#263238"/>
<path d="M374.589 242.181C374.505 242.011 374.38 241.864 374.226 241.753C374.072 241.642 373.893 241.571 373.705 241.545C373.517 241.519 373.325 241.539 373.147 241.604C372.969 241.669 372.809 241.776 372.682 241.917C371.622 243.037 370.69 244.271 369.903 245.597C368.799 247.42 368.398 249.583 368.775 251.681C369.235 253.736 370.897 255.588 372.988 255.87C375.478 255.159 376.147 253.073 376.546 250.577C377.006 247.701 375.908 244.855 374.589 242.181Z" fill="#FF725E"/>
<g opacity="0.3">
<path d="M373.564 247.921C373.525 247.84 373.466 247.769 373.393 247.716C373.32 247.662 373.234 247.628 373.145 247.615C373.055 247.602 372.963 247.612 372.878 247.643C372.793 247.674 372.717 247.725 372.656 247.793C372.151 248.331 371.707 248.923 371.332 249.559C370.805 250.428 370.613 251.459 370.792 252.46C370.891 252.954 371.134 253.407 371.492 253.762C371.849 254.117 372.303 254.357 372.798 254.453C373.987 254.116 374.306 253.122 374.496 251.933C374.748 250.553 374.196 249.191 373.564 247.921Z" fill="white"/>
</g>
<path d="M372.423 259.041C372.211 256.713 372.211 254.371 372.423 252.043C372.636 254.371 372.636 256.713 372.423 259.041Z" fill="#263238"/>
<path d="M375.006 253.092C374.908 253.092 375.319 251.497 375.289 249.516C375.258 247.535 374.822 245.977 374.921 245.953C375.414 247.074 375.649 248.292 375.608 249.516C375.671 250.738 375.466 251.958 375.006 253.092Z" fill="white"/>
<path d="M379.721 270.78C379.721 270.78 379.678 270.848 379.543 270.897C379.44 270.927 379.332 270.934 379.226 270.918C379.12 270.902 379.019 270.864 378.93 270.805C378.656 270.632 378.442 270.379 378.316 270.081C378.178 269.711 377.927 269.393 377.599 269.173C377.38 269.095 377.146 269.07 376.915 269.1C376.685 269.13 376.465 269.214 376.274 269.345C375.826 269.591 375.427 270.032 374.888 270.363C374.602 270.546 374.275 270.656 373.937 270.682C373.579 270.695 373.225 270.604 372.919 270.419C372.307 270.032 371.839 269.454 371.588 268.775C371.306 268.112 371.134 267.45 370.846 266.873C370.595 266.314 370.163 265.856 369.619 265.573C369.087 265.4 368.527 265.333 367.969 265.377C367.703 265.377 367.439 265.323 367.194 265.217C366.95 265.112 366.729 264.957 366.546 264.764C366.271 264.429 366.079 264.034 365.988 263.611C365.919 263.3 365.876 262.984 365.859 262.666C365.823 262.399 365.823 262.129 365.859 261.863C365.909 262.126 365.941 262.392 365.958 262.66C365.991 262.966 366.048 263.27 366.129 263.568C366.231 263.953 366.42 264.309 366.681 264.61C366.846 264.779 367.044 264.912 367.262 265C367.481 265.089 367.715 265.132 367.951 265.125C368.545 265.074 369.143 265.141 369.711 265.322C370.314 265.63 370.794 266.134 371.073 266.751C371.386 267.364 371.563 268.033 371.833 268.664C372.065 269.287 372.496 269.815 373.06 270.167C373.311 270.319 373.6 270.397 373.893 270.39C374.187 270.384 374.472 270.294 374.716 270.13C375.219 269.836 375.624 269.4 376.133 269.131C376.361 268.983 376.621 268.893 376.891 268.869C377.162 268.844 377.434 268.885 377.684 268.989C378.047 269.24 378.319 269.601 378.457 270.02C378.566 270.3 378.753 270.543 378.997 270.719C379.101 270.793 379.223 270.837 379.351 270.848C379.478 270.859 379.606 270.835 379.721 270.78Z" fill="#263238"/>
<path d="M384.592 275.515H343.1V279.067H384.592V275.515Z" fill="#263238"/>
<path d="M238.589 110.02C238.297 108.23 237.462 106.573 236.197 105.272C235.011 103.953 233.441 103.039 231.707 102.66C230.228 102.373 228.696 102.581 227.347 103.252C225.998 103.923 224.908 105.018 224.243 106.37C223.485 105.13 222.351 104.165 221.007 103.613C219.662 103.062 218.177 102.953 216.767 103.304C215.054 103.76 213.527 104.74 212.4 106.107C211.2 107.466 210.449 109.162 210.247 110.964C210.03 113.262 210.557 115.569 211.75 117.545C213.13 119.546 214.971 121.186 217.116 122.329C220.594 124.31 225.169 126.782 225.169 126.782C225.169 126.782 228.911 123.838 232.284 121.691C234.37 120.442 236.126 118.711 237.405 116.644C238.498 114.619 238.913 112.297 238.589 110.02Z" fill="#FF725E"/>
<path d="M245.415 74.4401C245.351 73.4334 244.981 72.4703 244.354 71.6801C243.77 70.8831 242.95 70.2891 242.011 69.9812C241.208 69.7386 240.348 69.7683 239.563 70.0655C238.779 70.3628 238.115 70.9111 237.675 71.6249C237.431 71.1159 237.077 70.6675 236.638 70.3124C236.229 69.9873 235.759 69.7481 235.255 69.609C234.751 69.4699 234.225 69.4338 233.707 69.5028C232.731 69.6649 231.832 70.1307 231.137 70.8337C230.395 71.5177 229.884 72.416 229.677 73.4036C229.426 74.6643 229.59 75.9724 230.143 77.1326C230.798 78.3148 231.725 79.3239 232.848 80.0766C234.688 81.3646 237.055 82.99 237.055 82.99C237.055 82.99 239.294 81.5609 241.281 80.5366C242.504 79.9596 243.572 79.0997 244.397 78.0281C245.11 76.9712 245.467 75.7141 245.415 74.4401Z" fill="#FF725E"/>
<path d="M197.986 96.1154C197.829 95.4667 197.475 94.8822 196.974 94.441C196.501 93.9852 195.896 93.6911 195.245 93.6007C194.899 93.5686 194.55 93.6063 194.22 93.7116C193.889 93.817 193.582 93.9879 193.319 94.2141C193.005 94.4807 192.761 94.8196 192.608 95.2015C192.293 94.7685 191.849 94.4462 191.34 94.2809C190.831 94.1156 190.283 94.1159 189.774 94.2815C189.155 94.4998 188.621 94.9076 188.247 95.4469C187.848 95.9797 187.621 96.6216 187.597 97.2869C187.579 98.1387 187.837 98.9735 188.333 99.6666C188.893 100.365 189.615 100.916 190.436 101.274C191.773 101.887 193.503 102.684 193.503 102.684C193.503 102.684 194.791 101.494 195.956 100.611C196.688 100.093 197.285 99.4073 197.698 98.6117C198.064 97.8333 198.165 96.9567 197.986 96.1154Z" fill="#FF725E"/>
<path d="M203.887 82.9407C203.887 82.9407 204.028 83.0818 204.285 83.2965C204.653 83.6005 205.088 83.811 205.555 83.9098C206.239 84.0454 206.949 83.9727 207.591 83.7013C208.365 83.3359 209.008 82.7404 209.431 81.9962C210.169 80.5956 210.47 79.0063 210.296 77.433C210.222 76.2063 210.118 75.4519 210.167 75.4458C210.245 75.6097 210.293 75.7863 210.308 75.9671C210.376 76.3045 210.456 76.7951 210.523 77.4146C210.601 78.1404 210.601 78.8723 210.523 79.5981C210.432 80.5017 210.15 81.3756 209.695 82.1618C209.242 82.9748 208.538 83.62 207.689 84.0018C206.99 84.2834 206.22 84.3392 205.488 84.1613C204.997 84.0405 204.546 83.793 204.181 83.4437C204.042 83.304 203.94 83.1308 203.887 82.9407Z" fill="#263238"/>
<path d="M217.977 84.1184C217.379 84.0823 216.786 83.992 216.204 83.8485C215.553 83.7263 214.922 83.5093 214.334 83.2045C213.593 82.8104 213.027 82.1543 212.745 81.3645C212.477 80.5974 212.336 79.7914 212.328 78.9787C212.307 78.3225 212.344 77.6657 212.438 77.016C212.49 76.4137 212.65 75.8256 212.911 75.2803C212.96 75.2803 212.763 75.9488 212.665 77.0467C212.496 78.4583 212.626 79.8897 213.046 81.248C213.301 81.9716 213.811 82.5775 214.481 82.9531C215.039 83.2551 215.635 83.4819 216.253 83.6277C216.841 83.7391 217.418 83.9033 217.977 84.1184Z" fill="#263238"/>
<path d="M209.761 91.1413C209.712 91.1413 209.865 90.7119 209.878 90.025C209.908 89.1344 209.652 88.2575 209.148 87.5226C208.617 86.8029 207.872 86.2703 207.02 86.0015C206.369 85.793 205.922 85.8053 205.928 85.7501C206.308 85.6513 206.708 85.6641 207.081 85.7869C208.025 85.9943 208.86 86.5424 209.426 87.3265C209.992 88.1106 210.248 89.0757 210.148 90.0373C210.128 90.4349 209.994 90.8185 209.761 91.1413Z" fill="#263238"/>
<path d="M213.766 90.5402C213.455 90.278 213.239 89.92 213.153 89.5221C213.018 89.0553 212.985 88.5648 213.057 88.0841C213.129 87.6034 213.304 87.1441 213.57 86.7375C213.849 86.3341 214.213 85.9973 214.638 85.7513C215.062 85.5053 215.535 85.3562 216.024 85.3146C216.419 85.2441 216.827 85.2999 217.189 85.4741C217.189 85.5354 216.735 85.4189 216.054 85.5354C215.612 85.5989 215.187 85.7541 214.808 85.9912C214.429 86.2284 214.104 86.542 213.853 86.9122C213.603 87.2824 213.432 87.7009 213.353 88.1408C213.274 88.5808 213.287 89.0324 213.392 89.4669C213.497 89.8312 213.622 90.1895 213.766 90.5402Z" fill="#263238"/>
<path d="M244.22 94.2628C244.545 94.5912 244.952 94.8263 245.398 94.9436C245.881 95.0537 246.385 95.0152 246.845 94.8332C247.4 94.5938 247.867 94.1889 248.183 93.674C248.739 92.6919 248.995 91.568 248.919 90.4418C248.883 89.9661 248.883 89.4884 248.919 89.0127C249.073 89.4695 249.156 89.9474 249.164 90.4295C249.311 91.6133 249.068 92.8129 248.471 93.8458C248.12 94.4187 247.593 94.8622 246.968 95.1092C246.452 95.2969 245.889 95.3162 245.361 95.1644C245.007 95.0669 244.688 94.8713 244.441 94.6002C244.251 94.41 244.202 94.269 244.22 94.2628Z" fill="#263238"/>
<path d="M254.297 95.4345C253.864 95.4161 253.436 95.3461 253.021 95.2259C252.553 95.1285 252.102 94.961 251.684 94.7291C251.152 94.4246 250.754 93.9323 250.567 93.3491C250.275 92.3249 250.238 91.2449 250.457 90.2027C250.507 89.7706 250.645 89.3531 250.862 88.9761C250.911 88.9761 250.77 89.4667 250.678 90.2457C250.535 91.2411 250.596 92.2551 250.856 93.2265C251.018 93.7401 251.363 94.1765 251.825 94.4531C252.209 94.6823 252.622 94.8616 253.051 94.9867C253.485 95.0772 253.904 95.2279 254.297 95.4345Z" fill="#263238"/>
<path d="M248.26 100.28C248.211 100.28 248.322 99.9671 248.34 99.4764C248.364 98.846 248.195 98.2233 247.856 97.6916C247.498 97.1728 246.988 96.7784 246.396 96.5631C245.936 96.3914 245.623 96.373 245.623 96.3239C245.623 96.2748 245.948 96.2196 246.463 96.3239C247.142 96.4957 247.732 96.9134 248.12 97.496C248.507 98.0786 248.664 98.7844 248.561 99.4764C248.481 100.022 248.291 100.298 248.26 100.28Z" fill="#263238"/>
<path d="M251.125 99.9732C251.125 99.9732 250.849 99.7585 250.702 99.2372C250.604 98.8952 250.585 98.5354 250.647 98.185C250.708 97.8346 250.849 97.5028 251.057 97.2146C251.266 96.9263 251.537 96.6892 251.85 96.5211C252.164 96.353 252.511 96.2583 252.867 96.2441C253.413 96.2441 253.719 96.3913 253.701 96.422C253.683 96.4527 253.376 96.422 252.891 96.4649C252.265 96.5606 251.701 96.8946 251.315 97.3972C250.958 97.921 250.817 98.5629 250.923 99.1881C250.996 99.642 251.174 99.918 251.125 99.9732Z" fill="#263238"/>
</svg>
