<svg width="24" height="24" viewBox="0 0 24 24" fill="none" xmlns="http://www.w3.org/2000/svg">
<g clip-path="url(#clip0_279_224)">
<path d="M23.9531 12C23.9531 17.9473 19.6096 22.88 13.9219 23.7993V15.5156H16.6711H16.7113L16.7174 15.4759L17.2495 12.0071L17.2577 11.9531H17.2031H13.9219V9.74906C13.9219 9.28136 14.0365 8.82533 14.3292 8.48681C14.6209 8.14956 15.0954 7.92188 15.8306 7.92188H17.3438H17.3906V7.875V4.92188V4.88232L17.3516 4.87567L17.3438 4.92188L17.3516 4.87566L17.3516 4.87566L17.3514 4.87562L17.3506 4.87549L17.3475 4.87498L17.3357 4.873L17.2896 4.86552C17.2493 4.85908 17.1903 4.8499 17.1155 4.83888C16.9658 4.81685 16.7527 4.78748 16.4984 4.75812C15.99 4.69942 15.3166 4.64062 14.6576 4.64062C13.2776 4.64062 12.1315 5.05898 11.3303 5.86093C10.529 6.66293 10.0781 7.84315 10.0781 9.35625V11.9531H7.07812H7.03125V12V15.4688V15.5156H7.07812H10.0781V23.7993C4.39038 22.88 0.046875 17.9472 0.046875 12C0.046875 5.39851 5.39851 0.046875 12 0.046875C18.6015 0.046875 23.9531 5.39851 23.9531 12Z" fill="#559EFA" stroke="#559EFA" stroke-width="0.09375"/>
<path d="M16.6711 15.4688L17.2031 12H13.875V9.74906C13.875 8.79994 14.3399 7.875 15.8306 7.875H17.3438V4.92188C17.3438 4.92188 15.9705 4.6875 14.6575 4.6875C11.9166 4.6875 10.125 6.34875 10.125 9.35625V12H7.07812V15.4688H10.125V23.8542C10.7453 23.9514 11.3722 24.0002 12 24C12.6278 24.0002 13.2547 23.9514 13.875 23.8542V15.4688H16.6711Z" fill="white"/>
</g>
<defs>
<clipPath id="clip0_279_224">
<rect width="24" height="24" fill="white"/>
</clipPath>
</defs>
</svg>
