<svg width="60" height="60" viewBox="0 0 60 60" fill="none" xmlns="http://www.w3.org/2000/svg">
<path d="M41.4805 26.4039L36.1953 31.0164L37.7785 37.8836C37.8623 38.2426 37.8384 38.6183 37.7098 38.9638C37.5812 39.3093 37.3536 39.6092 37.0555 39.826C36.7574 40.0429 36.4019 40.167 36.0336 40.183C35.6654 40.1989 35.3005 40.1059 34.9848 39.9156L28.9953 36.2828L23.0188 39.9156C22.703 40.1059 22.3382 40.1989 21.9699 40.183C21.6016 40.167 21.2462 40.0429 20.9481 39.826C20.6499 39.6092 20.4224 39.3093 20.2938 38.9638C20.1652 38.6183 20.1412 38.2426 20.225 37.8836L21.8059 31.0234L16.5196 26.4039C16.24 26.1628 16.0378 25.8444 15.9384 25.4889C15.839 25.1333 15.8468 24.7562 15.9608 24.4051C16.0748 24.0539 16.2899 23.7442 16.5793 23.5148C16.8686 23.2854 17.2192 23.1466 17.5871 23.1156L24.5551 22.5121L27.275 16.0246C27.4171 15.6842 27.6566 15.3934 27.9636 15.1889C28.2706 14.9844 28.6312 14.8752 29 14.8752C29.3689 14.8752 29.7295 14.9844 30.0364 15.1889C30.3434 15.3934 30.583 15.6842 30.725 16.0246L33.4531 22.5121L40.4188 23.1156C40.7867 23.1466 41.1373 23.2854 41.4266 23.5148C41.716 23.7442 41.9311 24.0539 42.0451 24.4051C42.1592 24.7562 42.1669 25.1333 42.0675 25.4889C41.9681 25.8444 41.766 26.1628 41.4864 26.4039H41.4805Z" fill="url(#paint0_linear_544_1171)"/>
<circle cx="30" cy="30" r="29.5" stroke="url(#paint1_linear_544_1171)"/>
<defs>
<linearGradient id="paint0_linear_544_1171" x1="29.003" y1="14.8752" x2="29.003" y2="40.1847" gradientUnits="userSpaceOnUse">
<stop stop-color="#FF00C7"/>
<stop offset="1" stop-color="#2400FF" stop-opacity="0.74"/>
</linearGradient>
<linearGradient id="paint1_linear_544_1171" x1="30" y1="0" x2="30" y2="60" gradientUnits="userSpaceOnUse">
<stop stop-color="#FF3D00"/>
<stop offset="1" stop-color="#00FFFF" stop-opacity="0.6"/>
</linearGradient>
</defs>
</svg>
