<svg width="40" height="40" viewBox="0 0 40 40" fill="none" xmlns="http://www.w3.org/2000/svg">
<circle cx="20" cy="20" r="20" fill="url(#paint0_linear_187_317)" fill-opacity="0.5"/>
<path d="M15.6594 23.6485L19.0095 18.8083L18.4817 19.5585C18.1292 20.0586 17.7468 20.6114 17.3345 21.2167C16.9221 21.8221 16.54 22.3787 16.1882 22.8866L15.6594 23.6485ZM13.7998 24.6165L17.7653 18.8083L13.7998 13H23.6327C24.0024 13 24.3508 13.0787 24.6779 13.2362C25.005 13.3937 25.2765 13.6141 25.4923 13.8974L29.1063 18.7018C28.8933 18.6488 28.6675 18.6088 28.4291 18.5817C28.1906 18.5553 27.9611 18.544 27.7405 18.5479L24.6233 14.4521C24.5044 14.3036 24.3659 14.1859 24.2079 14.0987C24.0491 14.0116 23.8574 13.968 23.6327 13.968H15.6594L19.0095 18.8083L15.6594 23.6485H21.1928C21.1543 23.8098 21.135 23.9679 21.135 24.1228L21.133 24.6165H13.7998ZM27.0282 26.3851L29.9557 23.6785L29.3104 23.0715L27.0282 25.1847L26.0427 24.2409L25.3964 24.8527L27.0282 26.3851ZM27.6766 28.6C26.5282 28.6 25.5538 28.2244 24.7532 27.4732C23.9526 26.722 23.5526 25.8069 23.5533 24.7278C23.5533 23.6501 23.9533 22.7353 24.7532 21.9834C25.5531 21.2316 26.5276 20.8557 27.6766 20.8557C28.8249 20.8557 29.7993 21.2316 30.5999 21.9834C31.4005 22.7353 31.8005 23.6501 31.7998 24.7278C31.7998 25.8069 31.3999 26.722 30.5999 27.4732C29.7987 28.2244 28.8242 28.6 27.6766 28.6Z" fill="#FDF7FF"/>
<defs>
<linearGradient id="paint0_linear_187_317" x1="20" y1="0" x2="20" y2="40" gradientUnits="userSpaceOnUse">
<stop stop-opacity="0.54"/>
<stop offset="1" stop-opacity="0.49"/>
</linearGradient>
</defs>
</svg>
