<svg width="24" height="24" viewBox="0 0 24 24" fill="none" xmlns="http://www.w3.org/2000/svg">
<path d="M12 2.25C14.4744 2.25 16.7272 3.17906 18.4467 4.69973L15.9674 7.17908C14.8887 6.28913 13.5088 5.75 12 5.75C8.54843 5.75 5.75 8.54843 5.75 12C5.75 15.4516 8.54843 18.25 12 18.25C14.7212 18.25 17.0286 16.5081 17.8872 14.0834L18.0052 13.75H17.6515H12.25V10.25H20.75V10.2915H21H21.5981C21.6965 10.8468 21.75 11.4174 21.75 12C21.75 17.3844 17.3844 21.75 12 21.75C6.61557 21.75 2.25 17.3844 2.25 12C2.25 6.61557 6.61557 2.25 12 2.25Z" fill="#808080" stroke="#808080" stroke-width="0.5"/>
<path d="M3.15302 7.3455L6.43851 9.755C7.32752 7.554 9.48052 6 12 6C13.5295 6 14.921 6.577 15.9805 7.5195L18.809 4.691C17.023 3.0265 14.634 2 12 2C8.15902 2 4.82802 4.1685 3.15302 7.3455Z" fill="#FF3D00"/>
<path d="M12 22.0001C14.583 22.0001 16.93 21.0116 18.7045 19.4041L15.6095 16.7851C14.5717 17.5743 13.3037 18.0011 12 18.0001C9.39897 18.0001 7.19047 16.3416 6.35847 14.0271L3.09747 16.5396C4.75247 19.7781 8.11347 22.0001 12 22.0001Z" fill="#4CAF50"/>
<path d="M21.8055 10.0415H21V10H12V14H17.6515C17.2571 15.1082 16.5467 16.0766 15.608 16.7855L15.6095 16.7845L18.7045 19.4035C18.4855 19.6025 22 17 22 12C22 11.3295 21.931 10.675 21.8055 10.0415Z" fill="#1976D2"/>
</svg>
