<svg width="40" height="40" viewBox="0 0 40 40" fill="none" xmlns="http://www.w3.org/2000/svg">
<circle cx="20" cy="20" r="20" fill="black" fill-opacity="0.5"/>
<path d="M15.825 25.175L22.2 22.2L25.175 15.825L18.8 18.8L15.825 25.175ZM20.5 21.35C20.2592 21.35 20.0574 21.2684 19.8948 21.1052C19.7322 20.942 19.6506 20.7403 19.65 20.5C19.65 20.2592 19.7316 20.0574 19.8948 19.8948C20.058 19.7322 20.2597 19.6506 20.5 19.65C20.7408 19.65 20.9428 19.7316 21.106 19.8948C21.2692 20.058 21.3506 20.2597 21.35 20.5C21.35 20.7408 21.2684 20.9428 21.1052 21.106C20.942 21.2692 20.7403 21.3506 20.5 21.35ZM20.5 29C19.3242 29 18.2192 28.7767 17.185 28.3302C16.1508 27.8837 15.2512 27.2782 14.4862 26.5137C13.7212 25.7487 13.1158 24.8492 12.6698 23.815C12.2238 22.7808 12.0006 21.6758 12 20.5C12 19.3242 12.2233 18.2192 12.6698 17.185C13.1163 16.1508 13.7218 15.2512 14.4862 14.4862C15.2512 13.7212 16.1508 13.1158 17.185 12.6698C18.2192 12.2238 19.3242 12.0006 20.5 12C21.6758 12 22.7808 12.2233 23.815 12.6698C24.8492 13.1163 25.7487 13.7218 26.5137 14.4862C27.2787 15.2512 27.8845 16.1508 28.331 17.185C28.7776 18.2192 29.0006 19.3242 29 20.5C29 21.6758 28.7767 22.7808 28.3302 23.815C27.8837 24.8492 27.2782 25.7487 26.5137 26.5137C25.7487 27.2787 24.8492 27.8845 23.815 28.331C22.7808 28.7776 21.6758 29.0006 20.5 29ZM20.5 27.3C22.3983 27.3 24.0062 26.6412 25.3237 25.3237C26.6412 24.0062 27.3 22.3983 27.3 20.5C27.3 18.6017 26.6412 16.9937 25.3237 15.6762C24.0062 14.3587 22.3983 13.7 20.5 13.7C18.6017 13.7 16.9937 14.3587 15.6762 15.6762C14.3587 16.9937 13.7 18.6017 13.7 20.5C13.7 22.3983 14.3587 24.0062 15.6762 25.3237C16.9937 26.6412 18.6017 27.3 20.5 27.3Z" fill="#FDF7FF"/>
</svg>
