<svg width="60" height="60" viewBox="0 0 60 60" fill="none" xmlns="http://www.w3.org/2000/svg">
<path d="M40.1938 18.822C40.0441 18.672 39.8663 18.5529 39.6706 18.4717C39.4748 18.3905 39.265 18.3487 39.053 18.3487C38.8411 18.3487 38.6313 18.3905 38.4355 18.4717C38.2398 18.5529 38.062 18.672 37.9123 18.822L29.9997 26.7184L22.0871 18.8058C21.9373 18.656 21.7594 18.5371 21.5637 18.4561C21.368 18.375 21.1582 18.3333 20.9463 18.3333C20.7344 18.3333 20.5247 18.375 20.3289 18.4561C20.1332 18.5371 19.9553 18.656 19.8055 18.8058C19.6557 18.9556 19.5369 19.1334 19.4558 19.3292C19.3747 19.5249 19.333 19.7347 19.333 19.9465C19.333 20.1584 19.3747 20.3682 19.4558 20.5639C19.5369 20.7597 19.6557 20.9375 19.8055 21.0873L27.7181 28.9999L19.8055 36.9125C19.6557 37.0623 19.5369 37.2402 19.4558 37.4359C19.3747 37.6316 19.333 37.8414 19.333 38.0533C19.333 38.2651 19.3747 38.4749 19.4558 38.6707C19.5369 38.8664 19.6557 39.0443 19.8055 39.1941C19.9553 39.3439 20.1332 39.4627 20.3289 39.5438C20.5247 39.6249 20.7344 39.6666 20.9463 39.6666C21.1582 39.6666 21.368 39.6249 21.5637 39.5438C21.7594 39.4627 21.9373 39.3439 22.0871 39.1941L29.9997 31.2815L37.9123 39.1941C38.0621 39.3439 38.2399 39.4627 38.4357 39.5438C38.6314 39.6249 38.8412 39.6666 39.053 39.6666C39.2649 39.6666 39.4747 39.6249 39.6704 39.5438C39.8662 39.4627 40.044 39.3439 40.1938 39.1941C40.3436 39.0443 40.4625 38.8664 40.5435 38.6707C40.6246 38.4749 40.6663 38.2651 40.6663 38.0533C40.6663 37.8414 40.6246 37.6316 40.5435 37.4359C40.4625 37.2402 40.3436 37.0623 40.1938 36.9125L32.2812 28.9999L40.1938 21.0873C40.8087 20.4724 40.8087 19.4368 40.1938 18.822Z" fill="url(#paint0_linear_544_1168)"/>
<circle cx="30" cy="30" r="29.5" stroke="url(#paint1_linear_544_1168)"/>
<defs>
<linearGradient id="paint0_linear_544_1168" x1="29.9997" y1="18.3333" x2="29.9997" y2="39.6666" gradientUnits="userSpaceOnUse">
<stop stop-color="#BFF7A4"/>
<stop offset="1" stop-color="#AF4C52"/>
</linearGradient>
<linearGradient id="paint1_linear_544_1168" x1="30" y1="0" x2="30" y2="60" gradientUnits="userSpaceOnUse">
<stop stop-color="#3C2BFC"/>
<stop offset="1" stop-color="#3A1BFB" stop-opacity="0.71"/>
</linearGradient>
</defs>
</svg>
