<svg width="24" height="24" viewBox="0 0 24 24" fill="none" xmlns="http://www.w3.org/2000/svg">
<path d="M18.3284 22.4766H18.3281L8.71451 9.92583C8.81904 10.4119 9.59857 11.859 10.8797 13.1372C12.1608 14.4155 13.5661 15.1458 14.054 15.2499L14.0491 15.2728C14.0491 15.2728 14.0491 15.2728 14.0491 15.2728C14.1799 15.3008 14.2828 15.2935 14.4143 15.2313C14.5436 15.1702 14.7012 15.0558 14.9425 14.8715C14.9529 14.8636 14.9633 14.8556 14.9737 14.8476C15.0332 14.8021 15.0941 14.7556 15.1573 14.7091L15.1574 14.709C15.6575 14.337 16.0464 14.079 16.5618 14.079H16.5647C17.0134 14.079 17.3981 14.273 18.045 14.5992L18.0475 14.6005C18.4686 14.8129 19.1605 15.2061 19.8528 15.6527C20.5455 16.0996 21.2367 16.5989 21.6574 17.0233L21.674 17.0068L21.6574 17.0233C22.0689 17.4381 22.2944 17.6991 22.4045 17.9905C22.5679 18.4233 22.4178 18.763 22.3142 18.9971L22.3112 19.0039L22.3112 19.004L22.3035 19.0213C22.2882 19.0555 22.2716 19.0926 22.2543 19.1332L22.2543 19.1333C22.0576 19.5996 21.8183 20.0467 21.5396 20.4692C21.0425 21.2128 20.5406 21.7858 19.7034 22.1755L19.7032 22.1756C19.2737 22.3788 18.8035 22.4817 18.3284 22.4766ZM14.2031 21.0938L14.2146 21.0734C14.2146 21.0734 14.2145 21.0733 14.2145 21.0733L14.2031 21.0938ZM7.74106 16.2313C5.49825 13.9899 4.40741 12.5395 2.87989 9.75986L2.85935 9.77115L2.87989 9.75985C1.15516 6.62313 1.45235 4.98508 1.77714 4.29061L1.77716 4.29058C2.16641 3.45527 2.74079 2.95524 3.48681 2.4571C3.91025 2.17968 4.35834 1.94187 4.82542 1.74668L4.82564 1.74658C4.87264 1.72638 4.91633 1.70711 4.9553 1.68974L4.95538 1.6897C5.18718 1.58528 5.53072 1.43142 5.96636 1.5965L5.96642 1.59653C6.25828 1.70609 6.52031 1.93073 6.93601 2.34126L6.93602 2.34127C7.36007 2.75949 7.86289 3.43551 8.31376 4.12268C8.76449 4.80964 9.16217 5.50599 9.37623 5.96401C9.66516 6.58463 9.85311 6.98833 9.85357 7.44055C9.85356 7.96885 9.58818 8.37718 9.26045 8.824L9.26044 8.82402C9.20153 8.90452 9.14304 8.98157 9.08609 9.05659L9.07929 9.06555L7.74106 16.2313Z" fill="#808080" stroke="#808080" stroke-width="0.046875"/>
</svg>
