<svg width="24" height="24" viewBox="0 0 24 24" fill="none" xmlns="http://www.w3.org/2000/svg">
<path d="M17.5 8C17.5 8.39782 17.342 8.77936 17.0607 9.06066C16.7794 9.34196 16.3978 9.5 16 9.5C15.6022 9.5 15.2206 9.34196 14.9393 9.06066C14.658 8.77936 14.5 8.39782 14.5 8C14.5 7.60218 14.658 7.22064 14.9393 6.93934C15.2206 6.65804 15.6022 6.5 16 6.5C16.3978 6.5 16.7794 6.65804 17.0607 6.93934C17.342 7.22064 17.5 7.60218 17.5 8Z" fill="#333333" stroke="#464646"/>
<path d="M1.752 13.4999C1.75 13.0281 1.75 12.5292 1.75 12.001V11.943C1.75 9.62054 1.75104 7.85074 1.93553 6.47968L1.93555 6.47958C2.12208 5.09117 2.50191 4.07408 3.28775 3.28736C4.07422 2.50099 5.09093 2.12212 6.48053 1.93555L6.48073 1.93553C7.85076 1.75104 9.62051 1.75 11.943 1.75H12.057C14.3795 1.75 16.1493 1.75104 17.5203 1.93553L17.5204 1.93555C18.9087 2.12206 19.9258 2.50184 20.7124 3.28755C21.4989 4.07405 21.8779 5.09082 22.0644 6.48053L22.0645 6.48073C22.249 7.85076 22.25 9.62051 22.25 11.943V12.031C22.25 13.9474 22.2496 15.4862 22.1477 16.7333L22.1476 16.7335C22.0456 17.9889 21.8401 18.9744 21.4107 19.772L21.4105 19.7724C21.2234 20.1208 20.9926 20.4323 20.7124 20.7124C19.9259 21.4989 18.9092 21.8779 17.5195 22.0644L17.5193 22.0645C16.1492 22.249 14.3795 22.25 12.057 22.25H11.943C9.62054 22.25 7.85074 22.249 6.47968 22.0645L6.47958 22.0645C5.09128 21.8779 4.07425 21.4982 3.28755 20.7124C2.59 20.0149 2.21213 19.1355 2.00635 17.9729L2.0062 17.972C1.79994 16.8179 1.76002 15.3629 1.752 13.4999ZM1.752 13.4999L1.252 13.502M1.752 13.4999L1.252 13.502M1.252 13.502C1.26 15.36 1.299 16.857 1.514 18.06L6.414 1.44C4.969 1.634 3.829 2.039 2.934 2.934C2.04 3.829 1.634 4.969 1.44 6.413C1.25 7.825 1.25 9.634 1.25 11.943V12.001C1.25 12.529 1.25 13.029 1.252 13.502ZM6.54631 2.43047L6.54667 2.43042C7.88756 2.25095 9.63611 2.25 12 2.25C14.3639 2.25 16.1114 2.25095 17.4523 2.43042L17.4526 2.43046C18.7874 2.60996 19.6801 2.96321 20.3582 3.64014L20.3589 3.64076C21.0357 4.31876 21.39 5.21232 21.5695 6.54736L21.5696 6.54767C21.7491 7.88856 21.75 9.63611 21.75 12C21.75 13.9384 21.7494 15.4636 21.6494 16.6934C21.6494 16.6935 21.6494 16.6935 21.6494 16.6935L21.151 16.653C21.0839 17.4795 20.973 18.1265 20.8024 18.6501L6.54631 2.43047ZM6.54631 2.43047C5.21237 2.61 4.31857 2.96432 3.64145 3.64145C2.96323 4.31966 2.60996 5.21257 2.43046 6.54736L2.43042 6.54767C2.25095 7.88856 2.25 9.63611 2.25 12V12.844V13.946L3.07928 13.2203L4.08028 12.3443L4.08033 12.3442C4.42395 12.0434 4.86906 11.8845 5.32549 11.8996C5.78189 11.9147 6.21548 12.1027 6.53845 12.4256C6.53847 12.4256 6.53849 12.4256 6.5385 12.4256L10.8284 16.7156L10.8285 16.7156C11.2446 17.1316 11.7942 17.3876 12.3804 17.4383C12.9667 17.4891 13.552 17.3314 14.0335 16.9931L14.034 16.9927L14.3315 16.7831M6.54631 2.43047L14.3315 16.7831M14.3315 16.7831C14.3316 16.783 14.3318 16.7829 14.3319 16.7828L14.3315 16.7831Z" fill="#333333" stroke="#464646"/>
</svg>
