<svg width="20" height="20" viewBox="0 0 20 20" fill="none" xmlns="http://www.w3.org/2000/svg">
<path d="M15.0974 4.9111C15.0225 4.8361 14.9336 4.77659 14.8358 4.73599C14.7379 4.69539 14.633 4.6745 14.527 4.6745C14.421 4.6745 14.3161 4.69539 14.2183 4.73599C14.1204 4.77659 14.0315 4.8361 13.9566 4.9111L10.0003 8.85931L6.04403 4.90301C5.96912 4.82811 5.8802 4.76869 5.78233 4.72815C5.68446 4.68761 5.57957 4.66675 5.47364 4.66675C5.36771 4.66675 5.26282 4.68761 5.16495 4.72815C5.06708 4.76869 4.97816 4.82811 4.90325 4.90301C4.82835 4.97791 4.76893 5.06684 4.72839 5.16471C4.68786 5.26257 4.66699 5.36747 4.66699 5.4734C4.66699 5.57933 4.68786 5.68422 4.72839 5.78209C4.76893 5.87995 4.82835 5.96888 4.90325 6.04378L8.85955 10.0001L4.90325 13.9564C4.82835 14.0313 4.76893 14.1202 4.72839 14.2181C4.68786 14.3159 4.66699 14.4208 4.66699 14.5268C4.66699 14.6327 4.68786 14.7376 4.72839 14.8355C4.76893 14.9333 4.82835 15.0222 4.90325 15.0972C4.97816 15.1721 5.06708 15.2315 5.16495 15.272C5.26282 15.3125 5.36771 15.3334 5.47364 15.3334C5.57957 15.3334 5.68446 15.3125 5.78233 15.272C5.8802 15.2315 5.96912 15.1721 6.04403 15.0972L10.0003 11.1409L13.9566 15.0972C14.0315 15.1721 14.1205 15.2315 14.2183 15.272C14.3162 15.3125 14.4211 15.3334 14.527 15.3334C14.6329 15.3334 14.7378 15.3125 14.8357 15.272C14.9336 15.2315 15.0225 15.1721 15.0974 15.0972C15.1723 15.0222 15.2317 14.9333 15.2723 14.8355C15.3128 14.7376 15.3337 14.6327 15.3337 14.5268C15.3337 14.4208 15.3128 14.3159 15.2723 14.2181C15.2317 14.1202 15.1723 14.0313 15.0974 13.9564L11.1411 10.0001L15.0974 6.04378C15.4048 5.73634 15.4048 5.21854 15.0974 4.9111Z" fill="#333333"/>
</svg>
