<svg width="515" height="344" viewBox="0 0 515 344" fill="none" xmlns="http://www.w3.org/2000/svg">
<path d="M32.4727 94.3271H86.8567C86.8567 94.3271 82.05 85.5721 68.0489 86.8493C54.6795 88.0647 53.9997 82.5439 47.2017 81.8641C40.4037 81.1843 34.7387 86.3961 32.4727 94.3271Z" fill="#F5F5F5"/>
<path d="M89.1152 68.3574H188.833C188.833 68.3574 180.016 52.31 154.342 54.6241C129.821 56.8557 128.571 46.7274 116.108 45.4777C103.645 44.2279 93.2696 53.8138 89.1152 68.3574Z" fill="#F5F5F5"/>
<path d="M325.219 132.712L350.09 108.534C350.09 108.534 328.405 134.587 326.853 134.051C325.301 133.515 325.219 132.712 325.219 132.712Z" fill="#F5F5F5"/>
<path d="M351.017 42.5044L352.747 43.4108L351.051 44.3859L350.145 46.1163L349.17 44.4203L347.439 43.5138L349.136 42.5388L350.042 40.8015L351.017 42.5044Z" fill="#E0E0E0"/>
<path d="M327.519 131.751L329.256 132.657L327.553 133.632L326.647 135.362L325.672 133.666L323.941 132.76L325.637 131.785L326.551 130.054L327.519 131.751Z" fill="#E0E0E0"/>
<path d="M234.256 107.573L235.994 108.486L234.291 109.454L233.384 111.192L232.416 109.489L230.679 108.582L232.382 107.614L233.288 105.877L234.256 107.573Z" fill="#E0E0E0"/>
<path d="M161.195 117.042L162.932 117.948L161.229 118.924L160.323 120.654L159.348 118.958L157.617 118.045L159.313 117.076L160.227 115.339L161.195 117.042Z" fill="#E0E0E0"/>
<path d="M221.814 134.889L222.686 135.342L221.834 135.829L221.381 136.695L220.894 135.843L220.028 135.39L220.873 134.902L221.326 134.037L221.814 134.889Z" fill="#E0E0E0"/>
<path d="M297.704 46.9679L298.57 47.4211L297.718 47.9087L297.265 48.7739L296.777 47.9293L295.912 47.4692L296.764 46.9885L297.217 46.1165L297.704 46.9679Z" fill="#E0E0E0"/>
<path d="M462.264 99.6007L463.136 100.061L462.284 100.541L461.831 101.414L461.344 100.562L460.479 100.109L461.33 99.6213L461.783 98.7561L462.264 99.6007Z" fill="#E0E0E0"/>
<path d="M297.704 146.864L298.57 147.324L297.718 147.805L297.265 148.677L296.777 147.825L295.912 147.372L296.764 146.884L297.217 146.019L297.704 146.864Z" fill="#E0E0E0"/>
<path d="M251.094 151.959H305.478C305.478 151.959 300.671 143.211 286.67 144.481C273.301 145.697 272.621 140.176 265.823 139.496C259.025 138.816 253.38 144.028 251.094 151.959Z" fill="#F5F5F5"/>
<path d="M395.349 61.065H449.767C449.767 61.065 444.96 52.31 430.925 53.5597C417.555 54.7751 416.876 49.2475 410.078 48.5677C403.28 47.8879 397.615 53.134 395.349 61.065Z" fill="#F5F5F5"/>
<path d="M392.086 123.043H469.288C469.288 123.043 462.456 110.615 442.583 112.421C423.597 114.151 422.67 106.309 412.981 105.341C403.292 104.373 395.286 111.782 392.086 123.043Z" fill="#EBEBEB"/>
<path d="M442.09 136.956L430.931 161.36L434.262 161.497L424.806 180.888H429.771L422.025 198.117H465.34L455.803 180.888L460.369 180.676L451.229 161.291L454.608 161.078L442.09 136.956Z" fill="#E0E0E0"/>
<path d="M443.793 164.051C443.862 164.051 443.793 178.787 443.58 196.956C443.367 215.126 443.113 229.916 443.12 229.861C443.12 228.9 443.12 215.132 443.333 196.956C443.546 178.78 443.725 164.051 443.793 164.051Z" fill="#263238"/>
<path d="M449.546 170.327C448.716 171.606 447.817 172.839 446.855 174.022C445.956 175.256 444.991 176.441 443.964 177.572C444.793 176.29 445.691 175.054 446.656 173.871C447.553 172.637 448.518 171.454 449.546 170.327Z" fill="#263238"/>
<path d="M443.676 177.05C442.744 176.479 441.856 175.838 441.019 175.134C440.13 174.498 439.292 173.793 438.513 173.026C440.332 174.237 442.058 175.582 443.676 177.05Z" fill="#263238"/>
<path d="M443.36 189.025C443.039 188.828 442.74 188.598 442.467 188.339C441.931 187.892 441.204 187.274 440.407 186.601C439.61 185.929 438.828 185.338 438.285 184.905C437.967 184.69 437.672 184.441 437.406 184.164C437.752 184.32 438.077 184.518 438.374 184.754C438.951 185.146 439.748 185.723 440.551 186.395C441.355 187.068 442.096 187.714 442.611 188.195C442.895 188.439 443.146 188.718 443.36 189.025Z" fill="#263238"/>
<path d="M449.554 181.623C448.636 182.963 447.65 184.256 446.601 185.496C445.619 186.789 444.569 188.029 443.456 189.211C444.371 187.869 445.357 186.576 446.409 185.338C447.393 184.047 448.443 182.807 449.554 181.623Z" fill="#263238"/>
<path d="M386.627 144.605L381.745 155.282L383.201 155.344L379.06 163.831H381.237L377.845 171.364H396.797L392.629 163.831L394.627 163.735L390.624 155.255L392.107 155.159L386.627 144.605Z" fill="#E0E0E0"/>
<path d="M387.369 156.464C387.369 156.464 387.369 162.911 387.28 170.884C387.191 178.856 387.074 185.304 387.074 185.304C387.074 184.885 387.074 178.863 387.17 170.884C387.266 162.905 387.342 156.464 387.369 156.464Z" fill="#263238"/>
<path d="M389.889 159.21C389.527 159.77 389.132 160.309 388.708 160.824C388.319 161.366 387.897 161.885 387.444 162.376C387.444 162.376 387.952 161.634 388.625 160.762C389.017 160.222 389.439 159.703 389.889 159.21Z" fill="#263238"/>
<path d="M387.322 162.149C386.913 161.902 386.525 161.622 386.161 161.311C385.773 161.031 385.406 160.724 385.062 160.391C385.471 160.639 385.859 160.919 386.223 161.229C386.611 161.509 386.978 161.817 387.322 162.149Z" fill="#263238"/>
<path d="M387.183 167.389C387.042 167.303 386.911 167.201 386.792 167.087L385.906 166.324C385.549 166.029 385.22 165.768 384.979 165.583C384.84 165.492 384.713 165.384 384.602 165.26C384.749 165.334 384.889 165.421 385.02 165.521C385.275 165.693 385.611 165.947 385.975 166.208C386.339 166.469 386.662 166.784 386.874 166.99C386.993 167.11 387.097 167.244 387.183 167.389Z" fill="#263238"/>
<path d="M389.896 164.154C389.896 164.154 389.34 164.93 388.605 165.844C387.87 166.757 387.231 167.491 387.231 167.471C387.231 167.45 387.788 166.695 388.522 165.775C388.949 165.209 389.408 164.668 389.896 164.154Z" fill="#263238"/>
<path d="M481.642 317.927C481.642 318.03 381.279 318.105 257.514 318.105C133.749 318.105 33.3584 318.05 33.3584 317.927C33.3584 317.803 133.701 317.748 257.514 317.748C381.327 317.748 481.642 317.851 481.642 317.927Z" fill="#263238"/>
<path d="M493.953 199.078L492.676 198.543L488.948 196.936C485.665 195.562 480.831 193.441 474.528 190.934C466.899 187.855 459.105 185.205 451.181 182.996C441.904 180.497 431.013 178.451 418.908 178.739C406.802 179.028 393.673 182.255 380.667 188.05C367.662 193.846 354.697 201.997 341.616 211.225C335.059 215.833 328.412 220.653 321.511 225.432C314.61 230.212 307.448 234.936 299.84 239.228C292.231 243.519 284.163 247.509 275.353 249.631C270.929 250.737 266.367 251.189 261.812 250.97C259.516 250.81 257.238 250.461 255 249.926C252.759 249.342 250.566 248.584 248.443 247.66C244.238 245.763 240.233 243.451 236.488 240.759C232.738 238.136 229.175 235.327 225.604 232.574L204.571 216.3L164.8 185.482C158.455 180.593 152.282 175.786 146.081 171.392C140.104 167.097 133.861 163.184 127.39 159.677C121.35 156.4 114.981 153.767 108.39 151.822C102.299 150.052 95.9936 149.127 89.6509 149.075C83.8899 149.059 78.1462 149.704 72.5323 150.998L68.6252 151.98L64.8897 153.126C63.6537 153.484 62.4932 153.992 61.3259 154.411C60.1586 154.829 59.005 155.262 57.8926 155.784C50.3387 159.048 43.1354 163.069 36.393 167.787C30.8379 171.666 26.7797 175.052 24.033 177.325L20.9774 179.996L19.9268 180.895L20.9499 179.968L24.033 177.277C26.7797 174.983 30.7967 171.584 36.3518 167.663C43.0904 162.907 50.2993 158.855 57.8651 155.571C58.9569 155.056 60.1105 154.651 61.2984 154.198C62.4864 153.744 63.6331 153.264 64.8691 152.907L68.5702 151.753L72.4842 150.764C78.1121 149.454 83.8726 148.8 89.6509 148.814C96.0142 148.863 102.341 149.787 108.452 151.561C115.064 153.503 121.453 156.136 127.514 159.416C134.002 162.932 140.263 166.851 146.26 171.151C152.44 175.539 158.62 180.339 164.985 185.235L204.777 216.018L225.824 232.306C229.388 235.053 232.958 237.868 236.694 240.484C240.418 243.165 244.403 245.466 248.587 247.351C250.695 248.267 252.871 249.018 255.096 249.596C257.313 250.133 259.571 250.48 261.846 250.633C266.369 250.852 270.899 250.406 275.291 249.308C284.046 247.2 292.073 243.217 299.647 238.946C307.221 234.675 314.397 229.937 321.291 225.172C328.185 220.406 334.839 215.558 341.404 210.978C354.498 201.749 367.442 193.537 380.543 187.796C393.645 182.056 406.705 178.767 418.866 178.533C431.027 178.3 441.938 180.325 451.215 182.845C459.141 185.07 466.935 187.739 474.562 190.838C480.859 193.365 485.679 195.48 488.982 196.901L492.697 198.536C493.528 198.879 493.953 199.078 493.953 199.078Z" fill="#263238"/>
<path d="M150.382 305.821C149.942 304.077 151.068 302.339 152.38 301.083C153.691 299.826 155.195 298.714 155.868 297.045C156.96 294.353 155.532 290.865 157.386 288.599C158.477 287.281 160.414 286.848 161.382 285.434C161.833 284.655 162.131 283.797 162.261 282.907C163.312 278.426 165.543 274.307 168.722 270.979C168.925 274.979 168.044 278.96 166.175 282.502C165.426 283.875 164.506 285.289 164.245 286.869C163.833 289.437 165.248 292.087 164.602 294.607C163.868 297.485 160.62 299.414 160.448 302.367C160.304 304.88 162.508 307.091 162.302 309.597C162.166 310.664 161.778 311.684 161.169 312.571C159.205 315.784 156.362 317.988 152.023 317.892L146.729 318.05L150.382 305.821Z" fill="#006DF8" fill-opacity="0.31"/>
<g opacity="0.3">
<path d="M150.382 305.821C149.942 304.077 151.068 302.34 152.38 301.083C153.691 299.826 155.195 298.714 155.868 297.045C156.96 294.354 155.532 290.865 157.386 288.599C158.477 287.281 160.414 286.848 161.382 285.434C161.833 284.655 162.131 283.797 162.261 282.907C163.312 278.426 165.543 274.307 168.722 270.979C168.925 274.979 168.044 278.96 166.175 282.502C165.426 283.875 164.506 285.29 164.245 286.869C163.833 289.437 165.248 292.088 164.602 294.608C163.868 297.485 160.62 299.414 160.448 302.367C160.304 304.88 162.508 307.091 162.302 309.598C162.166 310.665 161.778 311.684 161.169 312.571C159.205 315.784 156.362 317.989 152.023 317.893L146.729 318.05L150.382 305.821Z" fill="black"/>
</g>
<path d="M145.609 318.085C145.125 318.158 144.632 318.146 144.153 318.05C143.565 317.957 142.988 317.808 142.429 317.604C141.665 317.331 140.95 316.935 140.314 316.43C139.933 316.119 139.635 315.718 139.449 315.262C139.291 314.749 139.21 314.214 139.209 313.676C139.2 313.105 139.161 312.534 139.092 311.966C138.996 311.36 138.778 310.778 138.454 310.257C137.836 309.158 136.806 308.114 136.483 306.624C136.233 305.081 136.291 303.503 136.654 301.982C136.909 300.396 137.156 298.666 136.558 297.011C135.961 295.356 134.849 293.852 134.279 291.984C133.709 290.117 133.99 288.07 133.88 286.065C133.841 285.051 133.608 284.053 133.194 283.126C132.768 282.186 132.177 281.3 131.724 280.311C130.79 278.313 130.639 276.047 130.399 273.836C130.275 272.717 130.159 271.59 130.035 270.451C129.966 269.303 129.775 268.166 129.465 267.058C129.117 265.941 128.701 264.845 128.222 263.776C127.971 263.223 127.769 262.648 127.618 262.06C127.529 261.457 127.474 260.849 127.453 260.24C127.402 259.017 127.457 257.793 127.618 256.58C127.769 255.358 127.996 254.149 128.133 252.927V252.714V252.467L128.346 252.577C129.464 253.157 130.434 253.986 131.182 255.001C131.911 255.99 132.494 257.079 132.912 258.235C133.678 260.494 134.238 262.817 134.588 265.177C134.905 267.427 135.629 269.6 136.723 271.59C137.3 272.538 137.994 273.403 138.605 274.337C139.255 275.239 139.698 276.273 139.902 277.365C140.205 279.604 138.955 281.561 139.216 283.545C139.335 284.517 139.658 285.453 140.163 286.292C140.644 287.143 141.2 287.926 141.736 288.723C142.266 289.497 142.726 290.317 143.109 291.174C143.475 292.013 143.689 292.911 143.741 293.825C143.858 295.617 143.597 297.306 143.741 298.906C143.877 300.428 144.314 301.907 145.025 303.26C145.657 304.571 146.357 305.752 146.948 306.899C147.243 307.448 147.508 308.011 147.744 308.588C147.954 309.129 148.106 309.691 148.197 310.264C148.345 311.265 148.345 312.283 148.197 313.285C148.05 314.683 147.52 316.014 146.666 317.13C146.532 317.293 146.388 317.446 146.234 317.59C146.126 317.7 146.009 317.798 145.883 317.886C145.684 318.03 145.581 318.092 145.581 318.092C145.956 317.792 146.301 317.456 146.611 317.089C147.434 315.969 147.937 314.647 148.067 313.264C148.19 312.276 148.174 311.275 148.019 310.291C147.922 309.73 147.768 309.18 147.559 308.65C147.339 308.107 147.057 307.551 146.762 306.981C146.165 305.848 145.451 304.674 144.805 303.356C144.078 301.978 143.627 300.471 143.48 298.92C143.349 297.292 143.604 295.589 143.48 293.845C143.427 292.959 143.216 292.089 142.855 291.277C142.471 290.438 142.012 289.636 141.482 288.881C140.946 288.091 140.383 287.301 139.896 286.436C139.369 285.57 139.034 284.6 138.914 283.593C138.666 281.478 139.902 279.508 139.6 277.413C139.401 276.368 138.972 275.381 138.344 274.523C137.746 273.616 137.046 272.751 136.455 271.776C135.335 269.753 134.593 267.542 134.265 265.253C133.937 262.921 133.402 260.622 132.665 258.386C132.257 257.26 131.691 256.199 130.983 255.234C130.257 254.26 129.317 253.466 128.236 252.913L128.483 252.776C128.483 252.844 128.483 252.92 128.483 252.989C128.346 254.232 128.112 255.44 127.968 256.649C127.811 257.843 127.756 259.049 127.803 260.254C127.803 260.844 127.872 261.462 127.961 262.018C128.106 262.586 128.302 263.14 128.545 263.673C129.028 264.755 129.448 265.865 129.802 266.997C130.11 268.119 130.303 269.269 130.378 270.43C130.495 271.57 130.619 272.703 130.735 273.822C130.976 276.047 131.127 278.272 132.019 280.201C132.459 281.163 133.049 282.048 133.482 283.017C133.907 283.981 134.141 285.019 134.169 286.072C134.272 288.132 133.997 290.11 134.54 291.923C135.082 293.735 136.222 295.232 136.799 296.949C137.376 298.666 137.142 300.465 136.881 302.044C136.524 303.535 136.457 305.08 136.682 306.597C136.984 308.018 137.987 309.055 138.612 310.181C138.94 310.727 139.161 311.331 139.264 311.96C139.329 312.534 139.361 313.112 139.36 313.69C139.359 314.211 139.433 314.729 139.58 315.228C139.755 315.663 140.036 316.048 140.397 316.347C141.013 316.854 141.709 317.253 142.457 317.528C143.004 317.74 143.569 317.898 144.146 318.002C144.503 318.062 144.863 318.099 145.224 318.112L145.609 318.085Z" fill="#263238"/>
<path d="M129.238 255.632C129.257 255.686 129.273 255.741 129.286 255.797C129.286 255.921 129.355 256.079 129.403 256.271C129.499 256.69 129.623 257.322 129.815 258.104C130.007 258.887 130.502 259.78 130.9 260.851C131.298 261.922 131.745 263.199 132.136 264.614C132.528 266.028 132.885 267.594 133.249 269.276C133.56 271.071 134.119 272.813 134.91 274.454C135.343 275.319 135.824 276.191 136.208 277.146C136.581 278.125 136.83 279.147 136.95 280.188C137.208 282.341 137.577 284.479 138.055 286.594L140.98 298.844L143.432 308.835L145.059 315.578L145.478 317.412C145.519 317.611 145.554 317.769 145.581 317.892C145.587 317.947 145.587 318.002 145.581 318.057C145.581 318.057 145.581 318.009 145.519 317.899C145.457 317.789 145.444 317.618 145.389 317.432C145.272 316.986 145.107 316.382 144.901 315.606C144.482 313.992 143.899 311.706 143.171 308.89C142.443 306.075 141.598 302.669 140.651 298.92C139.703 295.171 138.742 291.016 137.698 286.67C137.217 284.546 136.848 282.398 136.593 280.236C136.491 279.219 136.261 278.22 135.906 277.262C135.535 276.335 135.061 275.463 134.629 274.598C133.833 272.931 133.276 271.16 132.974 269.338C132.617 267.649 132.287 266.083 131.903 264.676C131.572 263.405 131.178 262.151 130.722 260.92C130.337 259.828 129.877 258.921 129.692 258.111C129.506 257.301 129.417 256.683 129.335 256.257C129.335 256.065 129.273 255.9 129.252 255.777C129.242 255.729 129.238 255.681 129.238 255.632Z" fill="#263238"/>
<path d="M144.675 318.098C141.242 316.038 140.274 309.783 141.736 306.034C143.199 302.285 145.74 298.872 146.152 294.869C146.467 291.792 145.465 288.634 146.213 285.626C147.202 281.575 151.185 278.45 151.164 274.282C151.164 271.941 149.832 269.73 149.949 267.416C150.1 264.552 152.311 262.286 153.691 259.766C155.799 255.907 155.964 251.334 156.699 247.001C157.433 242.668 159.116 238.033 162.975 235.925C163.524 239.612 164.479 242.105 164.142 247.125C164.025 248.917 161.924 252.336 161.615 256.257C161.437 258.606 161.306 260.954 161.148 263.302C161.111 265.595 160.724 267.869 160.002 270.046C159.363 271.68 158.347 273.163 157.873 274.852C156.98 278.031 158.113 281.485 157.385 284.699C156.767 287.446 154.865 289.773 154.46 292.541C153.897 296.427 156.397 300.485 155.085 304.214C154.433 306.054 152.908 307.524 152.469 309.426C152.126 310.902 152.469 312.461 152.174 313.944C151.672 316.327 147.106 318.311 144.675 318.153" fill="#006DF8" fill-opacity="0.31"/>
<path d="M162 239.551C162.007 239.619 162.007 239.688 162 239.757L161.917 240.361C161.835 240.89 161.739 241.672 161.553 242.682C161.368 243.691 160.825 244.838 160.4 246.211C159.974 247.585 159.507 249.164 159.109 250.935C158.71 252.707 158.36 254.671 158.003 256.786C157.712 259.06 157.102 261.281 156.19 263.385C155.703 264.49 155.147 265.596 154.735 266.77C154.329 267.976 154.078 269.229 153.986 270.499C153.779 273.199 153.424 275.885 152.922 278.546C151.837 283.998 150.8 289.19 149.852 293.914C148.905 298.638 147.964 302.841 147.209 306.432L145.396 314.857C145.176 315.839 145.005 316.601 144.888 317.151C144.826 317.398 144.785 317.59 144.744 317.741C144.718 317.859 144.7 317.978 144.689 318.098C144.678 317.977 144.678 317.855 144.689 317.734C144.689 317.583 144.757 317.384 144.799 317.137C144.908 316.588 145.053 315.819 145.245 314.837C145.65 312.818 146.234 309.934 146.955 306.384C147.676 302.834 148.555 298.563 149.523 293.852C150.491 289.142 151.487 283.937 152.572 278.491C153.065 275.838 153.418 273.161 153.629 270.471C153.728 269.173 153.988 267.893 154.405 266.66C154.838 265.458 155.394 264.353 155.888 263.261C156.792 261.179 157.402 258.981 157.701 256.731C158.072 254.63 158.429 252.659 158.848 250.887C159.267 249.116 159.734 247.523 160.221 246.149C160.709 244.776 161.21 243.643 161.423 242.654C161.636 241.665 161.746 240.876 161.849 240.347C161.897 240.1 161.938 239.901 161.965 239.75C161.967 239.682 161.979 239.615 162 239.551Z" fill="#263238"/>
<path d="M470.258 296.64C469.263 298.075 467.312 297.601 466.413 296.729C465.589 295.774 465.026 294.622 464.779 293.385C463.989 290.639 463.186 287.734 463.776 284.925C463.92 284.076 464.295 283.282 464.861 282.632C465.145 282.31 465.509 282.068 465.917 281.932C466.325 281.795 466.761 281.769 467.182 281.856C468.164 282.117 468.775 283.078 469.242 283.992C470.543 286.689 471.223 289.643 471.233 292.637C471.33 294.036 470.999 295.432 470.286 296.64" fill="#006DF8" fill-opacity="0.31"/>
<g opacity="0.2">
<path d="M470.258 296.64C469.263 298.075 467.312 297.601 466.413 296.729C465.589 295.774 465.026 294.622 464.779 293.385C463.989 290.639 463.186 287.734 463.776 284.925C463.92 284.076 464.295 283.282 464.861 282.632C465.145 282.31 465.509 282.068 465.917 281.932C466.325 281.795 466.761 281.769 467.182 281.856C468.164 282.117 468.775 283.078 469.242 283.992C470.543 286.689 471.223 289.643 471.233 292.637C471.33 294.036 470.999 295.432 470.286 296.64" fill="black"/>
</g>
<path d="M466.509 303.857C464.831 303.069 462.944 302.841 461.126 303.205C460.132 303.291 459.196 303.71 458.469 304.393C458.125 304.748 457.934 305.223 457.934 305.718C457.934 306.212 458.125 306.687 458.469 307.043C458.96 307.378 459.553 307.528 460.144 307.469C461.565 307.469 463.145 307.201 464.264 308.059C464.91 308.547 465.342 309.357 466.118 309.597C466.506 309.687 466.912 309.648 467.276 309.487C467.64 309.326 467.942 309.052 468.137 308.705C468.503 307.99 468.584 307.163 468.363 306.391C468.27 305.854 468.055 305.346 467.733 304.907C467.412 304.467 466.993 304.108 466.509 303.857Z" fill="#006DF8" fill-opacity="0.31"/>
<path d="M473.012 298.7C472.492 298.027 472.147 297.237 472.006 296.398C471.864 295.56 471.932 294.7 472.202 293.894C472.747 292.284 473.729 290.858 475.037 289.774C476.517 288.454 478.241 287.437 480.112 286.78C480.836 286.484 481.617 286.35 482.399 286.388C482.788 286.412 483.166 286.53 483.499 286.733C483.833 286.935 484.113 287.215 484.314 287.549C484.85 288.565 484.314 289.801 483.786 290.811C482.807 292.588 481.691 294.287 480.448 295.892C479.532 297.252 478.265 298.339 476.782 299.037C475.257 299.614 473.671 299.545 472.868 298.494" fill="#006DF8" fill-opacity="0.31"/>
<path d="M470.326 317.927C470.277 317.715 470.247 317.499 470.237 317.281C470.189 316.807 470.134 316.21 470.065 315.503C469.977 314.631 469.844 313.765 469.667 312.907C469.437 311.86 469.12 310.833 468.72 309.838C468.333 308.841 467.805 307.905 467.154 307.057C466.622 306.368 465.944 305.805 465.17 305.409C464.645 305.145 464.082 304.967 463.501 304.88C463.283 304.873 463.067 304.843 462.855 304.791C463.084 304.765 463.314 304.765 463.542 304.791C464.144 304.837 464.732 304.991 465.279 305.244C466.088 305.645 466.795 306.225 467.346 306.94C468.034 307.79 468.589 308.74 468.994 309.755C469.398 310.765 469.713 311.808 469.935 312.873C470.106 313.744 470.22 314.624 470.278 315.51C470.34 316.265 470.361 316.883 470.368 317.295C470.38 317.506 470.366 317.719 470.326 317.927Z" fill="#263238"/>
<path d="M470.21 316.821C470.192 316.721 470.192 316.619 470.21 316.519V315.654C470.21 314.905 470.21 313.827 470.21 312.488C470.141 309.817 469.915 306.123 469.468 302.065C469.022 298.006 468.425 294.36 467.882 291.765C467.759 291.078 467.628 290.515 467.504 290C467.381 289.485 467.292 289.032 467.195 288.675C467.099 288.317 467.044 288.057 466.996 287.837C466.965 287.739 466.946 287.637 466.941 287.535C466.987 287.626 467.022 287.723 467.044 287.823C467.113 288.036 467.195 288.311 467.298 288.647C467.401 288.984 467.525 289.45 467.649 289.965C467.772 290.48 467.93 291.071 468.068 291.723C468.787 295.13 469.325 298.573 469.681 302.037C470.121 306.102 470.327 309.803 470.368 312.488C470.368 313.827 470.368 314.912 470.32 315.661C470.32 316.011 470.32 316.292 470.272 316.519C470.262 316.621 470.241 316.723 470.21 316.821Z" fill="#263238"/>
<path d="M470.189 309.687C470.165 309.387 470.165 309.087 470.189 308.787C470.189 308.211 470.299 307.373 470.464 306.35C470.914 303.68 471.679 301.073 472.743 298.583C473.777 296.073 475.257 293.77 477.11 291.785C477.433 291.448 477.775 291.13 478.134 290.831L478.607 290.46L479.006 290.186C479.243 290 479.498 289.839 479.768 289.705C478.892 290.387 478.062 291.125 477.282 291.916C475.487 293.916 474.048 296.208 473.025 298.693C472.434 300.048 471.934 301.441 471.528 302.861C471.136 304.166 470.882 305.368 470.683 306.377C470.484 307.386 470.388 308.224 470.326 308.794C470.304 309.095 470.258 309.393 470.189 309.687Z" fill="#263238"/>
<path d="M77.1147 283.593C77.9957 283.742 78.8378 284.066 79.5905 284.548C80.3432 285.029 80.9912 285.657 81.4956 286.395C82.4987 287.878 83.1471 289.572 83.3908 291.346C83.9608 294.779 83.0406 298.604 81.7772 301.817C78.3438 300.19 76.4624 296.152 75.6521 294.037C74.3749 290.707 74.0934 283.909 77.1147 283.593Z" fill="#006DF8" fill-opacity="0.31"/>
<path d="M86.8923 306.59C86.3689 305.739 86.0805 304.764 86.0563 303.765C86.0322 302.767 86.2733 301.779 86.755 300.904C87.25 300.037 87.9132 299.278 88.7055 298.671C89.4979 298.063 90.4036 297.62 91.3694 297.368C91.8001 297.202 92.2618 297.133 92.7221 297.165C93.1824 297.197 93.6301 297.33 94.0337 297.553C94.3712 297.823 94.6306 298.177 94.7851 298.58C94.9397 298.984 94.9837 299.421 94.9126 299.847C94.7594 300.699 94.3826 301.495 93.8208 302.154C92.0149 304.489 89.8381 306.411 86.8923 306.59Z" fill="#006DF8" fill-opacity="0.31"/>
<path d="M86.0135 317.364C85.9402 317.13 85.9009 316.887 85.8968 316.643C85.8487 316.183 85.7938 315.517 85.7457 314.686C85.5863 312.51 85.7202 310.323 86.144 308.183C86.5843 306.021 87.605 304.02 89.0967 302.394C89.5543 301.913 90.0685 301.489 90.6279 301.131C90.8371 300.985 91.0692 300.876 91.3146 300.808C90.6074 301.345 89.9439 301.938 89.3301 302.58C87.9526 304.215 87.0082 306.17 86.5835 308.265C86.1728 310.375 86.0046 312.524 86.0822 314.672C86.1142 315.57 86.0913 316.469 86.0135 317.364Z" fill="#263238"/>
<path d="M77.9238 288.737C78.0958 289.096 78.2404 289.468 78.3564 289.849C78.6174 290.577 78.9744 291.627 79.4002 292.932C80.2516 295.548 81.3709 299.174 82.5108 303.232C83.6506 307.29 84.5708 310.943 85.2574 313.621C85.5733 314.954 85.8205 316.038 85.9441 316.794C86.0474 317.178 86.1164 317.571 86.1501 317.968C85.9982 317.599 85.8787 317.218 85.793 316.828C85.5802 316.018 85.2986 314.96 84.9553 313.683C84.2686 311.033 83.273 307.366 82.14 303.335C81.007 299.304 79.922 295.665 79.1392 293.035L78.2122 289.918C78.0778 289.534 77.9813 289.139 77.9238 288.737Z" fill="#263238"/>
<path d="M82.271 309.824C81.407 307.903 80.0972 306.215 78.4504 304.902C76.8035 303.588 74.8671 302.686 72.8019 302.271C71.7513 302.072 70.4535 302.099 69.8698 302.992C69.2861 303.884 69.7874 305.093 70.4191 305.958C71.7678 307.74 73.6138 309.081 75.7243 309.815C77.8349 310.548 80.1153 310.64 82.2779 310.078" fill="#006DF8" fill-opacity="0.31"/>
<path d="M73.9552 305.299C74.1862 305.288 74.4176 305.311 74.6419 305.368C74.9111 305.406 75.1772 305.464 75.4384 305.539C75.7897 305.622 76.1359 305.726 76.4753 305.848C77.3617 306.159 78.215 306.557 79.0228 307.036C81.0131 308.219 82.6991 309.851 83.9462 311.802C84.4547 312.594 84.8803 313.436 85.2166 314.315C85.3494 314.65 85.464 314.991 85.5599 315.338C85.6457 315.596 85.7123 315.86 85.759 316.128C85.8228 316.351 85.8529 316.582 85.8483 316.814C85.7728 316.814 85.5874 315.86 84.9625 314.418C84.5985 313.575 84.1596 312.766 83.651 312.001C82.4025 310.121 80.7629 308.533 78.8443 307.345C78.0639 306.858 77.2411 306.442 76.386 306.102C74.9166 305.567 73.9415 305.375 73.9552 305.299Z" fill="#263238"/>
<path d="M395.52 45.1619L397.257 46.0683L395.554 47.0434L394.648 48.7738L393.68 47.0777L391.942 46.1645L393.645 45.1963L394.552 43.459L395.52 45.1619Z" fill="#006DF8" fill-opacity="0.31"/>
<path d="M187.569 137.34L189.306 138.253L187.603 139.222L186.697 140.959L185.728 139.256L183.991 138.35L185.694 137.374L186.601 135.644L187.569 137.34Z" fill="#263238"/>
<path d="M461.344 75.5469L463.075 76.4533L461.378 77.4215L460.472 79.1588L459.497 77.4559L457.76 76.5495L459.463 75.5813L460.369 73.844L461.344 75.5469Z" fill="#263238"/>
<path d="M341.307 78.2044L343.044 79.1108L341.348 80.079L340.435 81.8163L339.467 80.1133L337.729 79.2069L339.432 78.2387L340.339 76.5015L341.307 78.2044Z" fill="#263238"/>
<path d="M223.146 80.9237L224.011 81.3838L223.159 81.8644L222.706 82.7365L222.219 81.885L221.354 81.4318L222.205 80.9443L222.658 80.0791L223.146 80.9237Z" fill="#006DF8" fill-opacity="0.31"/>
<path d="M164.717 79.5983L165.589 80.0515L164.738 80.539L164.284 81.4042L163.797 80.5528L162.932 80.0996L163.776 79.612L164.236 78.7468L164.717 79.5983Z" fill="#263238"/>
<path d="M251.464 44.3104L252.336 44.7637L251.485 45.2512L251.031 46.1164L250.544 45.2718L249.679 44.8186L250.523 44.331L250.977 43.459L251.464 44.3104Z" fill="#263238"/>
<path d="M404.097 88.5937L404.969 89.0468L404.117 89.5275L403.664 90.3996L403.177 89.5481L402.312 89.0949L403.163 88.6074L403.616 87.7422L404.097 88.5937Z" fill="#263238"/>
<path d="M257.988 128.88L258.853 129.333L258.001 129.821L257.548 130.686L257.067 129.835L256.195 129.382L257.047 128.901L257.5 128.029L257.988 128.88Z" fill="#006DF8" fill-opacity="0.31"/>
<path d="M365.079 135.568L365.951 136.021L365.1 136.509L364.647 137.374L364.159 136.523L363.294 136.07L364.139 135.589L364.599 134.717L365.079 135.568Z" fill="#263238"/>
<path d="M64.2307 55.0705L65.0959 55.5237L64.2444 56.0043L63.7912 56.8764L63.3105 56.0249L62.4385 55.5717L63.2899 55.0842L63.7431 54.219L64.2307 55.0705Z" fill="#263238"/>
<path d="M305.23 112.009C300.135 112.015 295.138 110.608 290.794 107.945C286.451 105.282 282.93 101.467 280.625 96.924C278.319 92.3806 277.318 87.2869 277.733 82.2089C278.148 77.1308 279.962 72.2672 282.975 68.1584C279.763 70.505 277.096 73.5193 275.159 76.9941C273.221 80.4689 272.059 84.3219 271.752 88.2883C271.445 92.2548 272 96.2408 273.38 99.9724C274.759 103.704 276.93 107.093 279.743 109.906C282.556 112.719 285.945 114.89 289.676 116.269C293.408 117.648 297.394 118.204 301.36 117.897C305.327 117.589 309.18 116.427 312.655 114.49C316.129 112.553 319.144 109.886 321.49 106.674C316.777 110.138 311.08 112.007 305.23 112.009Z" fill="#263238"/>
<path d="M351.03 327.409L349.732 319.41L415.323 308.739L417.836 314.363L351.03 327.409Z" fill="#455A64"/>
<path d="M417.164 314.081C416.939 314.142 416.709 314.179 416.477 314.191L414.499 314.418L407.227 315.18C401.089 315.832 392.608 316.725 383.338 318.373C378.71 319.204 374.336 320.186 370.388 321.216C366.439 322.246 362.91 323.276 359.902 324.003C356.895 324.731 354.409 325.219 352.734 325.466C351.875 325.59 351.209 325.679 350.756 325.713C350.529 325.749 350.299 325.765 350.069 325.761C350.292 325.688 350.523 325.64 350.756 325.617L352.713 325.281C354.416 324.978 356.833 324.45 359.834 323.674C362.834 322.898 366.343 321.854 370.292 320.79C374.24 319.725 378.628 318.73 383.27 317.906C392.56 316.251 401.061 315.406 407.207 314.843C410.283 314.569 412.776 314.369 414.499 314.246L416.484 314.109C416.709 314.083 416.937 314.074 417.164 314.081Z" fill="#263238"/>
<path d="M366.261 316.704C366.636 316.691 367.012 316.724 367.38 316.8C368.066 316.896 369.131 317.054 370.401 317.253L371.088 317.357L370.442 317.59C368.382 318.352 365.533 319.348 362.429 320.412C359.119 321.552 356.118 322.555 353.935 323.262C352.85 323.612 351.964 323.887 351.346 324.072C351.035 324.191 350.709 324.269 350.378 324.306C350.659 324.127 350.964 323.988 351.284 323.894C351.882 323.66 352.754 323.33 353.832 322.939C355.981 322.156 358.968 321.099 362.278 319.959C365.375 318.895 368.211 317.947 370.326 317.26V317.597C369.062 317.356 368.039 317.151 367.332 316.993C366.965 316.939 366.605 316.842 366.261 316.704Z" fill="#263238"/>
<path d="M416.484 310.758C416.388 310.868 416.277 310.965 416.155 311.046C415.816 311.294 415.455 311.51 415.077 311.692C413.667 312.334 412.141 312.682 410.593 312.715C408.636 312.825 406.329 312.509 403.795 312.42C401.038 312.409 398.293 312.765 395.63 313.477C392.767 314.164 390.013 314.85 387.466 315.187C385.216 315.508 382.947 315.684 380.675 315.716C378.731 315.716 377.166 315.647 376.088 315.551C375.545 315.503 375.126 315.455 374.845 315.414C374.563 315.372 374.412 315.352 374.419 315.331C374.977 315.301 375.537 315.301 376.095 315.331C377.18 315.365 378.738 315.407 380.668 315.331C382.924 315.254 385.173 315.043 387.404 314.699C389.931 314.342 392.643 313.649 395.52 312.962C398.224 312.245 401.012 311.899 403.808 311.932C406.383 312.049 408.656 312.392 410.579 312.33C412.094 312.325 413.594 312.034 415.001 311.472C415.99 311.101 416.457 310.717 416.484 310.758Z" fill="#263238"/>
<path d="M348.971 313.752L350.488 305.793L415.77 318.229L416.209 324.374L348.971 313.752Z" fill="#263238"/>
<path d="M415.666 323.88C415.433 323.862 415.203 323.818 414.98 323.749L413.05 323.282L405.957 321.497C399.969 320.007 391.695 317.94 382.425 316.319C377.783 315.509 373.34 314.946 369.282 314.548C365.224 314.15 361.55 313.916 358.481 313.58C355.411 313.243 352.932 312.852 351.236 312.502C350.392 312.323 349.739 312.172 349.3 312.055C349.066 312.011 348.836 311.947 348.613 311.863C348.845 311.869 349.075 311.901 349.3 311.959L351.25 312.316C352.953 312.611 355.418 312.955 358.494 313.243C361.571 313.532 365.231 313.765 369.303 314.115C373.374 314.466 377.838 315.042 382.487 315.853C391.777 317.473 400.051 319.595 406.025 321.174C409.006 321.964 411.416 322.637 413.078 323.104L414.986 323.66C415.218 323.716 415.446 323.789 415.666 323.88Z" fill="#455A64"/>
<path d="M366.941 308.911C367.299 309.032 367.642 309.193 367.964 309.391C368.602 309.721 369.516 310.222 370.642 310.847L371.239 311.177H370.553C368.335 311.177 365.341 311.142 362.065 311.081C358.563 311.019 355.398 310.929 353.139 310.847C351.992 310.806 351.079 310.758 350.426 310.723C350.091 310.729 349.756 310.69 349.431 310.607C349.759 310.547 350.093 310.524 350.426 310.538C351.072 310.538 351.999 310.538 353.173 310.538C355.46 310.538 358.625 310.538 362.1 310.634C365.375 310.689 368.369 310.772 370.587 310.847L370.498 311.177C369.392 310.49 368.499 309.975 367.895 309.584C367.551 309.399 367.23 309.173 366.941 308.911Z" fill="#455A64"/>
<path d="M416.169 320.529C416.038 320.599 415.9 320.652 415.756 320.687C415.355 320.803 414.944 320.882 414.527 320.921C412.982 321.039 411.428 320.843 409.961 320.344C408.086 319.781 406.026 318.696 403.678 317.741C401.088 316.79 398.385 316.182 395.637 315.935C392.719 315.599 389.897 315.297 387.397 314.747C385.171 314.283 382.979 313.673 380.833 312.921C378.999 312.275 377.557 311.651 376.575 311.197C376.088 310.964 375.71 310.778 375.456 310.641C375.202 310.504 375.078 310.435 375.085 310.415C375.618 310.588 376.141 310.792 376.651 311.026C377.653 311.431 379.109 312.001 380.943 312.598C383.088 313.3 385.273 313.875 387.486 314.322C389.979 314.844 392.767 315.125 395.726 315.462C398.512 315.711 401.25 316.341 403.863 317.336C406.246 318.325 408.265 319.43 410.091 320.021C411.517 320.533 413.028 320.766 414.541 320.708C415.585 320.673 416.155 320.481 416.169 320.529Z" fill="#455A64"/>
<path d="M411.19 317.336C411.003 317.325 410.817 317.302 410.633 317.267L409.047 317.013C407.674 316.787 405.682 316.443 403.224 315.997C398.315 315.118 391.551 313.827 384.08 312.365L364.956 308.622L359.161 307.496L357.588 307.173C357.405 307.142 357.224 307.098 357.046 307.043C357.233 307.045 357.419 307.066 357.602 307.105L359.188 307.359C360.562 307.585 362.553 307.929 365.004 308.375C369.914 309.254 376.678 310.545 384.149 312.014L403.272 315.75L409.068 316.876L410.64 317.199C410.827 317.226 411.011 317.272 411.19 317.336Z" fill="#006DF8" fill-opacity="0.31"/>
<path d="M375.84 284.479L371.624 277.612L373.389 258.578L377.653 264.991L377.021 271.755L381.787 262.828L380.427 255.076L381.835 239.942L384.163 252.185L386.689 249.871L387.534 263.021L385.756 282.165L375.84 284.479Z" fill="#006DF8" fill-opacity="0.31"/>
<path opacity="0.2" d="M375.84 284.479L371.624 277.612L373.389 258.578L377.653 264.991L377.021 271.755L381.787 262.828L380.427 255.076L381.835 239.942L384.163 252.185L386.689 249.871L387.534 263.021L385.756 282.165L375.84 284.479Z" fill="black"/>
<path d="M368.974 283.38L371.981 306.088L383.517 313.862L389.477 314.418L400.354 304.331L402.023 286.45L394.991 277.468L394.669 263.563L391.215 270.876L389.491 257.074L381.471 273.671L376.767 279.473L368.974 283.38Z" fill="#006DF8" fill-opacity="0.31"/>
<path d="M400.223 232.972L394.915 238.411L396.288 243.931L400.628 239.482L400.223 232.972Z" fill="#006DF8" fill-opacity="0.31"/>
<g opacity="0.2">
<path d="M385.493 311.918C384.216 309.789 382.905 307.537 382.829 305.051C382.893 303.195 383.317 301.369 384.079 299.675C385.127 296.928 386.23 294.198 387.389 291.483C388.487 294.133 389.59 296.786 390.698 299.441C391.57 301.536 392.456 303.802 391.914 305.999C391.522 307.578 390.444 308.89 389.394 310.119C388.343 311.348 387.1 312.653 385.528 312.495" fill="white"/>
</g>
<g opacity="0.2">
<path d="M384.156 313.443L378.175 306.047C377.383 305.219 376.806 304.21 376.493 303.108C376.211 301.687 376.822 300.252 377.413 298.933C380.736 291.531 384.142 283.992 389.635 278.024C389.814 281.712 391.819 285.015 393.639 288.221C395.458 291.428 397.209 294.964 396.804 298.631C396.536 301.076 395.335 303.301 394.566 305.628C394.133 307.256 393.617 308.86 393.021 310.435C392.415 312.013 391.211 313.289 389.67 313.985C387.507 314.802 385.117 313.827 383.016 312.873" fill="white"/>
</g>
<path d="M413.448 308.911C413.159 309.013 412.86 309.085 412.556 309.124L410.104 309.577L401.995 311.019C398.829 311.582 395.966 312.111 393.899 312.509L391.447 312.983C391.15 313.056 390.847 313.102 390.541 313.12C390.821 312.998 391.114 312.906 391.413 312.845C391.983 312.687 392.786 312.495 393.844 312.262C395.904 311.795 398.76 311.232 401.933 310.669C405.105 310.105 407.975 309.639 410.063 309.33C411.107 309.172 411.951 309.055 412.535 308.986C412.835 308.926 413.142 308.9 413.448 308.911Z" fill="#006DF8" fill-opacity="0.31"/>
<path d="M103.995 53.4226L71.9961 117.969L81.5545 118.333L54.438 169.62H68.6795L46.4658 215.194H170.643L143.3 169.62L156.401 169.05L130.198 117.784L139.887 117.214L103.995 53.4226Z" fill="#455A64"/>
<path d="M109.406 128.297C109.591 128.297 109.337 167.272 108.843 215.332C108.348 263.391 107.806 317.926 107.62 317.926C107.435 317.926 107.689 263.439 108.183 215.359C108.678 167.279 109.227 128.297 109.406 128.297Z" fill="#263238"/>
<path d="M124.63 144.887C124.774 144.996 121.581 149.377 117.502 154.665C113.423 159.952 109.997 164.161 109.866 164.052C109.736 163.942 112.908 159.561 116.994 154.266C121.079 148.972 124.478 144.777 124.63 144.887Z" fill="#263238"/>
<path d="M109.103 162.678C108.993 162.822 105.842 160.556 102.065 157.611C98.2882 154.665 95.3218 152.165 95.4317 152.021C95.5415 151.877 98.6933 154.15 102.47 157.089C106.247 160.028 109.22 162.534 109.103 162.678Z" fill="#263238"/>
<path d="M108.258 194.327C108.19 194.395 107.304 193.674 105.896 192.486C104.489 191.298 102.552 189.664 100.403 187.893C98.2537 186.121 96.2349 184.548 94.786 183.409C93.3372 182.269 92.4514 181.555 92.5063 181.472C93.4184 181.889 94.2781 182.412 95.0676 183.031C96.5851 184.081 98.6383 185.599 100.822 187.378C103.005 189.156 104.942 190.859 106.24 192.143C106.994 192.792 107.671 193.524 108.258 194.327Z" fill="#263238"/>
<path d="M124.643 174.77C124.787 174.887 121.292 179.474 116.836 185.015C112.379 190.557 108.658 194.958 108.493 194.848C108.328 194.739 111.844 190.145 116.3 184.603C120.757 179.062 124.506 174.654 124.643 174.77Z" fill="#263238"/>
<path d="M58.0432 145.855L35.9188 190.495L42.5246 190.742L23.7786 226.208H33.6254L18.2646 257.726H104.132L85.2284 226.208L94.2855 225.817L76.1644 190.364L82.8594 189.973L58.0432 145.855Z" fill="#263238"/>
<path d="M61.7997 197.636C61.9301 197.636 61.7585 224.588 61.4151 257.823C61.0718 291.057 60.7285 318.009 60.5637 318.009C60.3989 318.009 60.6117 291.064 60.9551 257.816C61.2984 224.568 61.6623 197.63 61.7997 197.636Z" fill="#263238"/>
<path d="M72.3129 209.11C72.4159 209.186 70.2048 212.214 67.3895 215.874C64.5741 219.534 62.1983 222.439 62.0953 222.356C61.9923 222.274 64.2033 219.252 67.0255 215.592C69.8477 211.933 72.2099 209.035 72.3129 209.11Z" fill="#263238"/>
<path d="M61.5785 221.409C61.503 221.512 59.3194 219.939 56.71 217.907C54.1007 215.874 52.0476 214.144 52.1231 214.041C52.1986 213.938 54.3822 215.51 56.9916 217.543C59.6009 219.575 61.654 221.313 61.5785 221.409Z" fill="#263238"/>
<path d="M60.9882 243.307C60.4052 242.938 59.8601 242.512 59.3608 242.036C58.3858 241.212 57.0468 240.079 55.543 238.857C54.0392 237.635 52.659 236.543 51.6565 235.753C51.0854 235.365 50.5582 234.916 50.084 234.414C50.7137 234.715 51.306 235.088 51.8487 235.527C52.8993 236.255 54.3207 237.305 55.8314 238.534C57.342 239.763 58.6604 240.944 59.5806 241.83C60.1114 242.26 60.5845 242.756 60.9882 243.307Z" fill="#263238"/>
<path d="M72.3256 229.772C72.4217 229.848 70.0046 233.02 66.9284 236.859C63.8521 240.697 61.2702 243.725 61.1672 243.657C61.0642 243.588 63.4882 240.402 66.5713 236.57C69.6544 232.739 72.2294 229.69 72.3256 229.772Z" fill="#263238"/>
<path d="M255.398 278.429C255.398 278.429 254.025 293.227 263.816 293.962C273.608 294.697 291.688 294.401 294.771 292.492C297.855 290.583 300.203 287.205 300.649 284.115C301.096 281.025 296.577 274.282 296.577 274.282L255.398 278.429Z" fill="#455A64"/>
<path d="M298.857 291.771C298.857 291.867 289.58 291.95 278.134 291.95C266.687 291.95 257.41 291.867 257.41 291.771C257.41 291.675 266.687 291.593 278.134 291.593C289.58 291.593 298.857 291.668 298.857 291.771Z" fill="#263238"/>
<path d="M332.491 181.06L333.048 178.217C333.076 178.06 333.072 177.899 333.036 177.744C333 177.589 332.933 177.442 332.838 177.314C332.744 177.185 332.624 177.077 332.486 176.997C332.349 176.916 332.196 176.864 332.038 176.844L328.996 176.453C328.996 176.453 328.557 177.139 328.907 177.689C329.257 178.238 331.338 178.547 331.338 178.547V181.362L332.491 181.06Z" fill="#AA6550"/>
<path d="M268.343 227.396C269.3 227.383 270.245 227.176 271.121 226.789C271.996 226.402 272.785 225.843 273.439 225.144C274.094 224.445 274.601 223.622 274.93 222.723C275.259 221.824 275.403 220.868 275.354 219.912C275.162 216.032 274.942 212.111 274.942 212.111C274.942 212.111 280.751 211.04 280.662 205.244C280.572 199.449 279.185 186.018 279.185 186.018C275.831 184.685 272.181 184.273 268.614 184.823C265.047 185.374 261.691 186.867 258.894 189.149L258.05 189.836L261.147 220.983C261.325 222.759 262.164 224.403 263.496 225.59C264.829 226.778 266.558 227.422 268.343 227.396Z" fill="#FFBE9D"/>
<path d="M332.573 178.025L325.707 181.307C325.439 179.151 323.763 177.022 323.86 178.107C323.956 179.192 323.942 184.823 323.942 184.823L314.411 205.423C313.12 208.685 310.456 210.758 308.458 211.26L299.387 214.082L303.067 226.078L315.674 221.752C317.289 221.198 318.751 220.274 319.944 219.052C321.136 217.831 322.026 216.348 322.541 214.72L330.973 188.071C331.545 186.354 332.003 184.601 332.347 182.825C332.549 181.233 332.624 179.628 332.573 178.025Z" fill="#B78876"/>
<path d="M237.985 247.474C237.985 247.474 246.775 224.615 247.537 223.86C252.295 219.198 258.881 219.053 258.881 219.053L276.809 217.611C276.809 217.611 290.756 214.59 298.858 212.475L303.94 229.017L288.503 234.222L288.709 253.449L293.516 267.717C294.451 269.378 295.266 271.104 295.954 272.881L296.592 274.536L255.131 278.656C254.561 273.849 259.039 261.311 259.039 261.311L254.335 242.736L253.497 250.07L237.985 247.474Z" fill="#E0E0E0"/>
<path d="M288.263 238.96C287.529 238.863 286.783 238.931 286.079 239.159C285.263 239.445 284.504 239.875 283.841 240.429C282.964 241.18 282.132 241.98 281.348 242.826C280.377 243.884 279.163 244.689 277.812 245.174C276.218 245.629 274.526 245.61 272.943 245.119C271.209 244.605 269.581 243.784 268.137 242.695C266.626 241.597 265.191 240.312 263.653 239.104C262.198 237.89 260.565 236.908 258.812 236.192C257.169 235.551 255.431 235.189 253.668 235.121C250.675 234.991 247.71 235.743 245.14 237.284C243.409 238.33 241.884 239.685 240.642 241.281C240.21 241.851 239.901 242.318 239.702 242.654C239.608 242.823 239.5 242.984 239.379 243.135C239.444 242.951 239.527 242.774 239.626 242.606C240.905 240.321 242.752 238.405 244.989 237.044C247.597 235.426 250.628 234.62 253.696 234.73C255.502 234.784 257.286 235.146 258.97 235.801C260.767 236.526 262.439 237.526 263.927 238.767C265.472 239.983 266.901 241.267 268.391 242.352C269.789 243.422 271.368 244.231 273.053 244.742C274.566 245.222 276.186 245.253 277.716 244.831C279.025 244.378 280.204 243.612 281.149 242.599C281.955 241.762 282.808 240.971 283.703 240.23C284.402 239.681 285.192 239.26 286.038 238.987C286.575 238.819 287.14 238.763 287.7 238.822C287.893 238.841 288.082 238.888 288.263 238.96Z" fill="#FAFAFA"/>
<path d="M289.031 256.394C289.031 256.442 288.564 256.484 287.747 256.751C286.617 257.168 285.558 257.759 284.609 258.502C283.38 259.409 282.062 260.679 280.448 261.936C278.669 263.299 276.632 264.287 274.46 264.84C272.288 265.38 270.035 265.518 267.813 265.245C266.004 265.022 264.241 264.517 262.588 263.748C261.955 263.457 261.34 263.126 260.747 262.76C260.246 262.403 259.807 262.107 259.47 261.84C259.118 261.561 258.787 261.256 258.481 260.926C259.788 261.94 261.207 262.8 262.711 263.488C264.35 264.2 266.086 264.663 267.861 264.861C270.035 265.105 272.234 264.961 274.357 264.435C276.477 263.898 278.469 262.944 280.214 261.627C281.821 260.404 283.167 259.141 284.437 258.255C285.421 257.512 286.527 256.947 287.706 256.587C288.027 256.495 288.356 256.433 288.688 256.401C288.801 256.381 288.917 256.378 289.031 256.394Z" fill="#FAFAFA"/>
<path d="M291.702 218.744C292.141 218.462 292.635 218.274 293.151 218.195C294.38 217.924 295.652 217.913 296.885 218.162C298.119 218.412 299.286 218.916 300.313 219.644C300.755 219.919 301.135 220.281 301.432 220.708C300.989 220.458 300.56 220.183 300.148 219.884C298.073 218.609 295.614 218.11 293.206 218.477C292.71 218.595 292.208 218.684 291.702 218.744Z" fill="#FAFAFA"/>
<path d="M270.719 275.696C271.831 275.431 272.916 275.064 273.96 274.598C275.072 274.055 276.138 273.421 277.146 272.703L280.881 270.038C282.143 269.147 283.493 268.39 284.912 267.779C286.09 267.313 287.322 266.999 288.579 266.845C289.422 266.745 290.272 266.722 291.12 266.777C291.431 266.783 291.74 266.829 292.04 266.914C290.892 266.924 289.746 266.998 288.606 267.134C287.385 267.327 286.191 267.663 285.049 268.136C283.664 268.752 282.344 269.504 281.108 270.382C279.776 271.295 278.533 272.229 277.359 273.018C276.32 273.731 275.219 274.349 274.07 274.866C273.582 275.085 273.108 275.23 272.696 275.367C272.284 275.504 271.92 275.559 271.625 275.621C271.327 275.68 271.023 275.705 270.719 275.696Z" fill="#FAFAFA"/>
<path d="M276.336 180.792C286.842 181.802 282.804 195.583 285.427 199.758C286.402 201.303 288.009 202.457 289.3 203.816C290.591 205.176 291.594 206.954 291.03 208.671C290.55 210.161 288.97 211.5 289.334 212.99C289.547 213.78 290.282 214.363 290.838 215.009C291.487 215.789 291.936 216.716 292.146 217.709C292.357 218.702 292.323 219.731 292.047 220.708C291.42 222.746 290.23 224.564 288.613 225.954C283.917 230.321 276.253 232.182 269.73 230.555C267.794 230.074 265.802 229.305 263.832 229.765C262.623 230.047 261.607 230.768 260.488 231.269C256.162 233.219 250.421 231.482 248.031 227.952C245.642 224.423 246.363 219.712 249.151 216.279C251.149 213.814 254.239 211.569 254.198 208.623C254.156 205.677 250.957 203.095 252.062 200.321C252.749 198.529 255.104 197.43 255.804 195.638C256.505 193.846 255.303 191.834 255.077 189.891C254.768 187.268 256.34 184.706 258.16 182.523C260.46 179.776 263.488 177.187 267.327 176.446C271.165 175.704 275.759 177.531 276.308 180.813" fill="#263238"/>
<path d="M275.292 231.461C276.067 231.334 276.822 231.103 277.537 230.775C278.361 230.382 279.099 229.829 279.707 229.147C280.51 228.245 281.045 227.137 281.252 225.947C281.519 224.506 281.31 223.016 280.654 221.704C280.325 220.983 279.913 220.269 279.528 219.5C279.1 218.709 278.805 217.853 278.656 216.966C278.54 216.008 278.753 215.04 279.26 214.219C279.803 213.402 280.452 212.661 281.19 212.015C281.933 211.376 282.599 210.652 283.174 209.859C283.468 209.471 283.68 209.028 283.798 208.556C283.916 208.084 283.938 207.593 283.861 207.112C283.593 206.157 283.062 205.296 282.33 204.626C281.643 203.94 280.881 203.253 280.236 202.477C279.572 201.725 279.132 200.802 278.965 199.813C278.849 198.874 278.893 197.922 279.096 196.998C279.473 195.212 280.016 193.599 280.236 192.026C280.494 190.578 280.505 189.097 280.27 187.645C280.109 186.596 279.728 185.593 279.153 184.701C278.578 183.809 277.821 183.048 276.933 182.468C276.256 182.072 275.514 181.8 274.742 181.664H274.9C275.052 181.671 275.204 181.689 275.353 181.719C275.935 181.825 276.495 182.029 277.008 182.324C277.944 182.895 278.745 183.661 279.357 184.57C279.97 185.479 280.38 186.509 280.558 187.59C280.813 189.074 280.813 190.59 280.558 192.074C280.352 193.681 279.81 195.329 279.46 197.073C279.266 197.952 279.227 198.858 279.343 199.751C279.498 200.669 279.91 201.523 280.531 202.216C281.149 202.951 281.904 203.59 282.591 204.345C283.382 205.066 283.951 205.997 284.232 207.03C284.323 207.563 284.305 208.11 284.178 208.636C284.052 209.163 283.82 209.658 283.497 210.092C282.9 210.912 282.208 211.658 281.437 212.317C280.726 212.939 280.099 213.65 279.569 214.432C279.094 215.181 278.895 216.072 279.006 216.952C279.247 218.689 280.304 220.118 280.936 221.601C281.606 222.975 281.808 224.53 281.513 226.03C281.28 227.267 280.704 228.414 279.851 229.34C279.211 230.028 278.438 230.579 277.578 230.96C277.037 231.197 276.466 231.361 275.882 231.448C275.683 231.448 275.525 231.482 275.422 231.489L275.292 231.461Z" fill="#455A64"/>
<path d="M256.058 194.134C255.952 193.746 255.883 193.348 255.852 192.946C255.713 191.853 255.663 190.751 255.701 189.65C255.748 187.994 256.155 186.368 256.895 184.885C257.863 183.098 259.263 181.582 260.967 180.476C264.579 178.1 268.843 177.764 271.473 178.808C272.542 179.173 273.468 179.868 274.117 180.792C274.282 181.044 274.414 181.316 274.508 181.602C274.551 181.7 274.574 181.805 274.577 181.912C274.398 181.557 274.199 181.213 273.98 180.882C273.313 180.033 272.406 179.406 271.377 179.082C268.823 178.149 264.696 178.512 261.194 180.82C259.546 181.889 258.186 183.346 257.232 185.063C256.502 186.493 256.081 188.061 255.996 189.664C255.924 190.752 255.924 191.844 255.996 192.932C256.048 193.331 256.069 193.733 256.058 194.134Z" fill="#455A64"/>
<path d="M272.792 184.026C272.108 183.95 271.416 184.028 270.766 184.253C269.903 184.616 269.139 185.178 268.536 185.895C267.933 186.611 267.509 187.461 267.299 188.373C267.006 189.632 266.908 190.929 267.01 192.218C267.079 193.592 267.306 195.109 267.367 196.709C267.506 198.399 267.245 200.097 266.605 201.667C265.919 203.322 264.319 204.469 263.817 206.158C263.611 207.002 263.661 207.889 263.962 208.705C264.223 209.536 264.607 210.326 264.93 211.136C265.277 211.935 265.489 212.787 265.555 213.656C265.578 214.498 265.417 215.335 265.081 216.108C264.428 217.47 263.673 218.78 262.822 220.028C262.087 221.09 261.616 222.312 261.448 223.592C261.388 224.653 261.626 225.709 262.135 226.641C262.499 227.371 262.939 228.062 263.447 228.701C263.852 229.23 264.195 229.628 264.415 229.896C264.539 230.03 264.652 230.175 264.751 230.328C264.607 230.218 264.474 230.094 264.353 229.958C264.113 229.704 263.749 229.319 263.316 228.804C262.79 228.178 262.33 227.499 261.943 226.778C261.397 225.811 261.137 224.708 261.194 223.599C261.349 222.267 261.819 220.991 262.568 219.877C263.396 218.638 264.13 217.339 264.765 215.991C265.079 215.268 265.23 214.485 265.204 213.697C265.135 212.875 264.929 212.069 264.593 211.315C264.277 210.525 263.907 209.728 263.611 208.856C263.288 207.965 263.235 206.997 263.46 206.075C263.761 205.194 264.227 204.378 264.834 203.672C265.397 203.02 265.877 202.301 266.262 201.53C266.885 200.008 267.144 198.362 267.017 196.723C266.962 195.15 266.749 193.654 266.695 192.239C266.605 190.915 266.723 189.585 267.045 188.298C267.279 187.357 267.738 186.486 268.381 185.761C269.024 185.035 269.833 184.475 270.739 184.129C271.364 183.903 272.041 183.862 272.689 184.013L272.792 184.026Z" fill="#455A64"/>
<path d="M292.327 264.215C292.51 264.578 292.663 264.955 292.787 265.341C293.069 266.069 293.474 267.127 294.009 268.404C294.545 269.681 295.252 271.192 296.118 272.812C296.983 274.433 298.068 276.156 299.015 278.072C299.994 279.854 300.602 281.817 300.801 283.84C300.823 284.739 300.632 285.631 300.244 286.443C299.933 287.147 299.556 287.821 299.118 288.455C298.495 289.373 297.782 290.226 296.99 291.002C296.772 291.213 296.542 291.413 296.303 291.6C296.223 291.67 296.133 291.728 296.035 291.771C296.035 291.771 296.351 291.476 296.88 290.906C297.626 290.103 298.301 289.236 298.899 288.317C299.314 287.688 299.67 287.021 299.963 286.326C300.324 285.553 300.496 284.706 300.464 283.854C300.252 281.884 299.653 279.975 298.699 278.237C297.759 276.335 296.674 274.618 295.829 272.97C295.065 271.517 294.377 270.025 293.769 268.5C293.254 267.202 292.89 266.131 292.65 265.39C292.533 265.012 292.444 264.703 292.389 264.524C292.357 264.424 292.336 264.32 292.327 264.215Z" fill="#006DF8" fill-opacity="0.31"/>
<path d="M326.099 203.384C326.089 203.444 326.076 203.504 326.057 203.562C326.057 203.699 325.975 203.864 325.913 204.077C325.769 204.551 325.577 205.203 325.329 206.034L323.105 213.217C322.864 213.972 322.631 214.768 322.349 215.592C322.039 216.455 321.599 217.266 321.045 217.996C320.453 218.771 319.76 219.464 318.985 220.056C318.586 220.365 318.174 220.66 317.742 220.942C317.522 221.091 317.292 221.226 317.055 221.347L316.334 221.663C312.413 223.214 308.025 224.636 303.425 226.147L303.102 226.25L303.219 226.023C303.521 227.012 303.823 227.987 304.118 228.941L304.166 229.106L304.002 229.161L288.558 234.338L288.661 234.201C288.661 235.362 288.661 236.474 288.661 237.525C288.661 238.575 288.723 239.585 288.723 240.525C288.723 242.414 288.689 244.048 288.668 245.394C288.648 246.74 288.668 247.79 288.668 248.504C288.668 248.841 288.668 249.116 288.668 249.322C288.679 249.415 288.679 249.51 288.668 249.603C288.647 249.513 288.635 249.421 288.634 249.328C288.634 249.143 288.634 248.868 288.579 248.504C288.545 247.818 288.517 246.733 288.517 245.387C288.517 244.041 288.517 242.407 288.517 240.532C288.517 239.591 288.428 238.603 288.428 237.538C288.428 236.474 288.394 235.362 288.373 234.201V234.098L288.476 234.064L303.905 228.825L303.789 229.044C303.493 228.09 303.198 227.115 302.896 226.133L302.841 225.961L303.013 225.906L303.329 225.803C307.922 224.299 312.324 222.885 316.217 221.36L316.904 221.051C317.127 220.94 317.343 220.814 317.55 220.674C317.975 220.392 318.387 220.111 318.779 219.809C319.549 219.238 320.242 218.568 320.839 217.817C321.381 217.114 321.811 216.331 322.116 215.496C322.404 214.693 322.645 213.89 322.892 213.141C323.867 210.14 324.663 207.71 325.22 205.993C325.494 205.169 325.714 204.523 325.872 204.056L326.05 203.548C326.058 203.491 326.075 203.436 326.099 203.384Z" fill="#006DF8" fill-opacity="0.31"/>
<path d="M329.963 179.268C330.08 179.213 332.49 172.49 332.799 171.859C333.266 170.891 333.314 172.374 333.067 174.2C332.861 175.745 332.572 178.025 332.572 178.025L329.963 179.268Z" fill="#B78876"/>
<path d="M283.861 189.231C283.861 189.231 283.909 189.403 283.984 189.74C284.06 190.076 284.142 190.577 284.238 191.23C284.334 191.882 284.417 192.672 284.485 193.599C284.554 194.526 284.595 195.583 284.733 196.737C284.833 197.99 285.259 199.195 285.969 200.232C286.758 201.324 287.871 202.292 288.907 203.459C289.455 204.043 289.958 204.667 290.411 205.327C290.909 206.024 291.228 206.833 291.338 207.682C291.382 208.138 291.299 208.596 291.098 209.007C290.894 209.402 290.642 209.771 290.349 210.106C290.063 210.419 289.807 210.759 289.587 211.122C289.4 211.485 289.358 211.905 289.471 212.297C289.862 213.958 291.407 215.16 291.84 216.877C292.276 218.485 292.187 220.191 291.586 221.745C291.066 223.141 290.253 224.41 289.203 225.467C288.276 226.363 287.235 227.132 286.106 227.753C284.47 228.62 282.755 229.326 280.983 229.862C280.359 230.061 279.871 230.205 279.541 230.294C279.375 230.354 279.202 230.396 279.026 230.418C279.187 230.343 279.352 230.279 279.521 230.225L280.935 229.731C282.679 229.147 284.367 228.412 285.982 227.534C287.081 226.911 288.093 226.144 288.99 225.254C289.999 224.22 290.778 222.985 291.276 221.628C291.839 220.141 291.919 218.514 291.503 216.98C291.242 216.182 290.852 215.433 290.349 214.762C289.79 214.049 289.373 213.235 289.12 212.365C289 211.904 289.054 211.416 289.271 210.992C289.502 210.606 289.771 210.245 290.075 209.914C290.37 209.636 290.604 209.3 290.762 208.926C290.919 208.552 290.996 208.149 290.988 207.744C290.885 206.951 290.588 206.197 290.123 205.547C289.683 204.901 289.196 204.288 288.667 203.713C287.631 202.672 286.648 201.578 285.721 200.438C284.997 199.354 284.57 198.099 284.485 196.799C284.362 195.631 284.341 194.574 284.286 193.647C284.231 192.72 284.163 191.93 284.101 191.278C284.039 190.625 283.963 190.131 283.909 189.788C283.87 189.605 283.854 189.418 283.861 189.231Z" fill="#006DF8" fill-opacity="0.31"/>
<path d="M218.559 179.549L216.986 211.988L230.878 213.299L231.647 205.423C231.647 205.423 236.543 206.632 238.033 202.1C238.98 199.209 239.832 176.528 239.832 176.528L218.559 179.549Z" fill="#FFBE9D"/>
<path d="M241.02 180.319C241.405 183.354 237.161 185.125 237.161 185.125L236.392 192.267C235.727 192.219 235.059 192.219 234.394 192.267C234.758 188.895 230.411 189.554 229.972 191.855C229.532 194.155 232.032 195.535 232.032 195.535C230.294 198.206 229.587 199.607 227.122 202.106C224.458 204.812 223.002 205.032 220.255 204.949L217.22 204.805C217.22 204.805 216.142 202.216 215.346 196.091C214.968 193.145 212.668 189.286 213.32 184.5C215.181 170.891 228.221 172.326 228.221 172.326C235.032 172.518 240.1 173.273 241.02 180.319Z" fill="#263238"/>
<path d="M237.326 184.885C238.913 184.337 240.342 183.409 241.489 182.182C242.636 180.955 243.465 179.467 243.905 177.846C244.308 176.607 244.219 175.26 243.657 174.084C243.019 172.964 241.501 172.291 240.368 172.916C240.368 172.026 240.054 171.165 239.48 170.484C238.906 169.804 238.11 169.349 237.232 169.199C236.355 169.05 235.453 169.215 234.686 169.667C233.919 170.118 233.336 170.827 233.041 171.666C232.602 171.127 232.006 170.737 231.337 170.549C230.667 170.361 229.955 170.384 229.299 170.616C228.65 170.866 228.062 171.254 227.577 171.753C227.092 172.252 226.722 172.85 226.491 173.507C226.037 174.831 225.921 176.247 226.154 177.627" fill="#263238"/>
<path d="M212.469 175.718C212.469 175.67 212.709 175.56 213.155 175.519C213.735 175.477 214.316 175.576 214.849 175.806C215.382 176.037 215.852 176.393 216.218 176.844C216.493 177.187 216.582 177.455 216.541 177.476C216.03 176.906 215.403 176.454 214.701 176.151C213.999 175.847 213.24 175.699 212.476 175.718H212.469Z" fill="#263238"/>
<path d="M216.018 174.152C215.981 174.643 216.002 175.136 216.08 175.622C216.272 176.411 216.829 176.837 216.767 176.926C216.705 177.016 216.561 176.926 216.327 176.714C216.029 176.45 215.816 176.103 215.716 175.718C215.604 175.337 215.604 174.931 215.716 174.551C215.847 174.262 215.977 174.132 216.018 174.152Z" fill="#263238"/>
<path d="M237.058 188.421C237.058 188.421 237.058 188.455 236.955 188.517C236.844 188.608 236.727 188.69 236.605 188.764C236.133 189.051 235.607 189.238 235.06 189.314C233.02 189.478 230.996 188.843 229.415 187.542C228.867 187.141 228.4 186.637 228.042 186.059C227.839 185.739 227.702 185.381 227.64 185.007C227.577 184.633 227.59 184.251 227.678 183.882C227.736 183.452 227.931 183.052 228.233 182.74C228.536 182.429 228.931 182.223 229.359 182.153C229.788 182.083 230.227 182.153 230.613 182.351C230.999 182.55 231.311 182.868 231.503 183.257C231.728 183.652 231.864 184.092 231.901 184.545C231.938 184.998 231.875 185.454 231.716 185.88C231.415 186.753 230.917 187.545 230.26 188.194C229.581 188.885 228.757 189.417 227.847 189.752C226.938 190.087 225.965 190.216 225 190.131C224.032 190.031 223.095 189.727 222.253 189.238C221.413 188.768 220.719 188.074 220.248 187.233C219.998 186.824 219.852 186.36 219.822 185.881C219.792 185.402 219.88 184.924 220.077 184.486C220.301 184.08 220.634 183.744 221.04 183.518C221.446 183.292 221.907 183.185 222.37 183.209C222.6 183.228 222.823 183.294 223.025 183.404C223.227 183.514 223.404 183.665 223.544 183.848C223.795 184.205 223.936 184.627 223.95 185.063C223.967 185.864 223.765 186.655 223.366 187.35C222.669 188.601 221.519 189.537 220.152 189.966C219.027 190.328 217.808 190.274 216.719 189.815C215.908 189.483 215.186 188.965 214.611 188.304C214.25 187.899 213.962 187.434 213.759 186.931C213.7 186.803 213.654 186.67 213.622 186.533C213.622 186.437 213.622 186.388 213.622 186.388C213.888 187.064 214.269 187.689 214.748 188.236C215.319 188.857 216.023 189.341 216.808 189.65C217.851 190.062 219.005 190.096 220.07 189.746C221.356 189.319 222.433 188.421 223.084 187.233C223.451 186.587 223.636 185.854 223.62 185.111C223.608 184.741 223.486 184.382 223.27 184.081C223.158 183.936 223.018 183.815 222.857 183.728C222.696 183.64 222.518 183.588 222.336 183.573C221.94 183.559 221.549 183.655 221.205 183.85C220.86 184.046 220.577 184.332 220.386 184.679C220.222 185.063 220.153 185.482 220.184 185.899C220.215 186.316 220.345 186.719 220.564 187.075C221.046 187.848 221.704 188.496 222.485 188.965C223.265 189.434 224.146 189.711 225.055 189.774C225.969 189.854 226.889 189.732 227.75 189.415C228.61 189.098 229.39 188.594 230.033 187.94C230.652 187.332 231.122 186.59 231.407 185.77C231.549 185.392 231.608 184.988 231.579 184.585C231.551 184.182 231.436 183.79 231.242 183.436C231.062 183.107 230.786 182.84 230.452 182.67C230.117 182.499 229.74 182.434 229.367 182.481C229.023 182.574 228.712 182.762 228.469 183.023C228.226 183.284 228.062 183.608 227.994 183.958C227.915 184.289 227.902 184.632 227.957 184.968C228.011 185.304 228.131 185.625 228.31 185.915C228.645 186.465 229.08 186.947 229.594 187.336C231.124 188.625 233.089 189.281 235.087 189.169C235.79 189.064 236.462 188.808 237.058 188.421Z" fill="#455A64"/>
<path d="M217.625 209.77C217.625 209.77 201.268 207.098 194.717 225.563L190.007 239.983L203.678 242.599L202.71 279.171L245.078 275.353L242.633 248.202L239.371 247.66L240.058 242.386L256.462 236.495C256.462 236.495 243.766 207.943 229.538 210.298L217.625 209.77Z" fill="#006DF8" fill-opacity="0.31"/>
<path d="M262.993 293.893L236.852 295.177C229.985 296.022 218.044 296.049 210.704 295.5C200.898 294.765 202.704 279.253 202.704 279.253L245.229 275.264C248.601 274.09 252.253 273.985 255.687 274.962C255.687 274.962 253.765 292.176 262.993 293.893Z" fill="#263238"/>
<path d="M190.007 240.031C190.007 240.031 186.21 256.511 186.162 258.722C186.093 261.599 189.753 266.557 193.104 267.23C198.474 268.308 203.679 263.618 203.679 263.618L204.331 241.487L190.007 240.031Z" fill="#006DF8" fill-opacity="0.31"/>
<path d="M285.701 260.034L288.132 261.029C290.419 261.716 291.661 262.231 292.527 261.901C293.68 261.469 292.877 260.219 292.877 260.219C292.877 260.219 294.696 260.349 294.937 259.319C294.974 259.102 294.941 258.879 294.844 258.682C294.746 258.485 294.589 258.323 294.394 258.221C294.394 258.221 296.029 258.269 296.55 257.795C297.237 257.163 296.454 256.319 296.454 256.319C298.865 255.948 299.201 254.705 298.796 254.403C298.391 254.101 296.619 254.156 296.619 254.156C295.205 253.984 291.325 253.579 293.399 252.219C295.472 250.86 296.557 249.04 296.509 248.34C296.481 248.181 296.403 248.035 296.288 247.922C296.173 247.809 296.025 247.735 295.866 247.71C295.706 247.686 295.543 247.711 295.399 247.783C295.254 247.855 295.136 247.971 295.06 248.113C294.544 248.771 293.941 249.355 293.268 249.85C292.742 250.269 292.147 250.595 291.51 250.812C290.762 251.066 290.137 251.251 289.574 251.395L286.546 252.563L285.701 260.034Z" fill="#FFBE9D"/>
<path d="M198.906 233.013C198.95 233.113 198.976 233.22 198.982 233.329L199.126 234.242L199.614 237.614C200.019 240.512 200.575 244.419 201.179 248.731C201.784 253.043 202.312 257.019 202.649 259.876C202.82 261.304 202.944 262.457 203.02 263.261L203.095 264.181C203.11 264.29 203.11 264.401 203.095 264.511C203.052 264.408 203.027 264.299 203.02 264.188C202.978 263.941 202.93 263.639 202.875 263.275C202.752 262.423 202.587 261.283 202.395 259.903C201.983 257.005 201.433 253.098 200.822 248.786C200.211 244.474 199.689 240.505 199.353 237.648C199.188 236.22 199.057 235.059 198.982 234.263C198.982 233.892 198.927 233.576 198.906 233.336C198.896 233.229 198.896 233.12 198.906 233.013Z" fill="#263238"/>
<g opacity="0.2">
<path d="M229.945 226.943C229.945 226.943 229.759 239.626 231.476 247.838C231.626 249.06 231.339 250.296 230.666 251.327C230.027 252.322 228.736 252.611 227.576 252.817L217.42 254.616C220.54 256.492 223.306 258.902 225.591 261.737C226.855 263.309 227.974 265.012 229.327 266.509C230.679 268.006 234.017 270.265 236.035 270.306C239.901 270.389 242.524 265.657 243.946 264.215L239.373 247.735L239.915 243.011L229.945 226.943Z" fill="black"/>
</g>
<g opacity="0.2">
<path d="M199.079 234.675C198.346 239.189 197.824 243.728 197.513 248.292C197.328 251.114 197.225 253.991 197.952 256.724C198.68 259.457 200.363 262.066 202.91 263.288L199.079 234.675Z" fill="black"/>
</g>
<path d="M239.372 247.708L235.334 256.387L208.554 253.05L207.538 252.006C207.106 251.643 206.604 251.203 206.041 250.633C205.561 250.161 205.164 249.611 204.867 249.006C204.464 248.271 204.168 247.483 203.988 246.664C203.98 246.503 203.922 246.348 203.823 246.221C203.723 246.095 203.586 246.002 203.431 245.957C203.276 245.911 203.111 245.916 202.958 245.968C202.806 246.021 202.674 246.121 202.58 246.252C202.237 246.863 202.436 248.999 203.727 251.059C205.018 253.119 201.344 251.876 199.992 251.43C199.992 251.43 198.405 250.619 197.932 250.743C197.458 250.867 197.211 252.116 199.229 253.49C199.229 253.49 198.138 253.902 198.508 254.787C198.783 255.433 200.28 256.092 200.28 256.092C200.061 256.101 199.85 256.179 199.677 256.314C199.505 256.45 199.379 256.636 199.319 256.847C199.113 257.891 200.816 258.557 200.816 258.557C200.816 258.557 199.552 259.34 200.411 260.226C201.049 260.913 202.381 260.981 204.757 261.318H205.286C212.091 263.336 238.644 270.766 243.245 265.067C246.975 260.517 249.807 255.3 251.588 249.692L239.372 247.708Z" fill="#B78876"/>
<path d="M235.568 236.749C235.568 236.749 246.891 253.428 251.361 255.028C255.832 256.628 286.793 262.21 286.793 262.21L288.242 251.121C288.242 251.121 261.188 242.228 260.247 241.542C259.56 241.033 251.897 227.918 247.434 221.518C243.067 215.242 234.964 209.769 230.775 218.085C230.734 218.167 230.823 218.009 230.775 218.085C225.831 225.913 235.568 236.749 235.568 236.749Z" fill="#006DF8" fill-opacity="0.31"/>
<path d="M248.003 222.37C247.332 222.095 246.644 221.866 245.943 221.683C243.991 221.274 241.973 221.296 240.03 221.745C237.158 222.455 234.411 223.601 231.887 225.144C228.975 226.751 225.803 228.763 222.026 229.807C220.191 230.341 218.269 230.513 216.368 230.315C214.612 230.068 212.906 229.544 211.314 228.763C208.265 227.314 205.759 225.611 203.424 224.643C201.615 223.805 199.656 223.338 197.663 223.27C196.934 223.281 196.207 223.343 195.486 223.455C196.191 223.235 196.925 223.126 197.663 223.132C199.685 223.145 201.682 223.587 203.52 224.43C205.896 225.378 208.43 227.06 211.451 228.475C213.014 229.235 214.687 229.743 216.409 229.978C218.255 230.164 220.12 229.994 221.902 229.477C225.617 228.454 228.769 226.469 231.701 224.87C234.255 223.326 237.036 222.193 239.941 221.512C241.918 221.076 243.967 221.095 245.936 221.567C246.661 221.728 247.358 221.999 248.003 222.37Z" fill="#EBEBEB"/>
<path d="M251.004 226.888C250.272 226.596 249.522 226.351 248.758 226.153C246.649 225.707 244.467 225.726 242.366 226.208C239.695 226.744 236.714 228.104 233.569 229.882C230.425 231.66 226.998 233.789 222.919 234.915C220.941 235.488 218.87 235.672 216.822 235.458C214.924 235.196 213.081 234.63 211.363 233.782C208.074 232.224 205.368 230.39 202.841 229.346C200.89 228.43 198.774 227.919 196.62 227.843C195.831 227.857 195.044 227.928 194.265 228.055C195.027 227.819 195.822 227.701 196.62 227.705C198.803 227.729 200.957 228.209 202.944 229.113C205.505 230.136 208.245 231.956 211.5 233.487C213.191 234.307 215.001 234.856 216.863 235.114C218.869 235.318 220.895 235.132 222.83 234.565C226.84 233.46 230.246 231.324 233.412 229.594C236.577 227.863 239.592 226.469 242.338 225.961C244.471 225.494 246.682 225.513 248.807 226.016C249.577 226.2 250.317 226.493 251.004 226.888Z" fill="#EBEBEB"/>
<path d="M235.368 213.601C234.834 213.705 234.308 213.85 233.796 214.034C232.435 214.63 231.295 215.635 230.534 216.911C229.987 217.769 229.603 218.721 229.401 219.719C229.172 220.865 229.13 222.041 229.277 223.201C229.434 224.488 229.724 225.756 230.142 226.984C230.581 228.31 231.12 229.6 231.756 230.843C233.041 233.22 234.474 235.514 236.048 237.71C237.483 239.77 238.843 241.548 239.996 243.045C241.15 244.542 242.125 245.723 242.798 246.541L243.567 247.481C243.666 247.584 243.751 247.7 243.821 247.825C243.712 247.735 243.611 247.636 243.519 247.529C243.32 247.33 243.038 247.028 242.688 246.63C242.001 245.84 240.985 244.68 239.797 243.196C238.609 241.713 237.236 239.935 235.78 237.895C234.18 235.691 232.73 233.38 231.44 230.981C230.794 229.724 230.25 228.417 229.813 227.074C229.386 225.822 229.096 224.528 228.948 223.214C228.811 222.021 228.865 220.814 229.106 219.637C229.332 218.61 229.744 217.632 230.321 216.753C231.125 215.451 232.33 214.446 233.754 213.89C234.269 213.693 234.817 213.595 235.368 213.601Z" fill="#263238"/>
<path d="M322.945 317.981H193.638C190.237 317.981 186.974 316.63 184.568 314.225C182.163 311.819 180.812 308.556 180.812 305.155C180.812 303.47 181.143 301.803 181.788 300.247C182.433 298.691 183.378 297.278 184.569 296.087C185.76 294.896 187.174 293.952 188.73 293.308C190.287 292.664 191.954 292.334 193.638 292.334H322.945C324.629 292.333 326.298 292.663 327.855 293.306C329.412 293.95 330.827 294.894 332.019 296.085C333.211 297.275 334.156 298.689 334.801 300.245C335.446 301.802 335.778 303.47 335.778 305.155C335.778 306.84 335.446 308.508 334.801 310.065C334.156 311.621 333.211 313.036 332.019 314.227C330.827 315.418 329.412 316.363 327.855 317.007C326.298 317.651 324.63 317.982 322.945 317.981Z" fill="#455A64"/>
<path d="M193.192 317.975C200.272 317.975 206.012 312.235 206.012 305.155C206.012 298.074 200.272 292.334 193.192 292.334C186.112 292.334 180.372 298.074 180.372 305.155C180.372 312.235 186.112 317.975 193.192 317.975Z" fill="#263238"/>
<path d="M195.959 302.895C195.959 302.895 196.014 302.944 196.09 303.053C196.194 303.221 196.271 303.404 196.316 303.596C196.448 304.312 196.371 305.05 196.097 305.725C195.938 306.214 195.706 306.677 195.41 307.098C195.227 307.335 194.992 307.528 194.723 307.661C194.441 307.792 194.135 307.867 193.824 307.881C193.188 307.899 192.553 307.829 191.935 307.675C191.25 307.521 190.627 307.168 190.143 306.658C189.893 306.394 189.71 306.073 189.611 305.723C189.511 305.372 189.499 305.003 189.573 304.646C189.717 304.001 190.058 303.415 190.548 302.971C191.385 302.308 192.358 301.839 193.398 301.598H193.858H193.906C194.485 301.771 195.026 302.053 195.499 302.429C195.822 302.717 195.911 302.937 195.898 302.944C195.884 302.95 195.746 302.765 195.424 302.525C194.934 302.21 194.396 301.978 193.831 301.838H193.872L193.419 301.879C192.432 302.142 191.513 302.61 190.72 303.253C190.285 303.653 189.985 304.178 189.862 304.756C189.801 305.058 189.813 305.371 189.898 305.667C189.983 305.964 190.137 306.235 190.349 306.459C190.787 306.917 191.351 307.235 191.97 307.373C192.553 307.524 193.153 307.598 193.755 307.592C194.018 307.6 194.279 307.546 194.517 307.435C194.755 307.324 194.965 307.159 195.128 306.954C195.416 306.572 195.647 306.151 195.815 305.704C196.102 305.075 196.214 304.379 196.138 303.692C196.095 303.423 196.036 303.157 195.959 302.895Z" fill="#455A64"/>
<path d="M199.131 303.149C199.216 303.26 199.283 303.383 199.33 303.513C199.498 303.874 199.633 304.249 199.736 304.633C199.909 305.244 199.949 305.886 199.852 306.514C199.695 307.351 199.318 308.13 198.76 308.773C198.037 309.6 197.146 310.263 196.147 310.718C195.148 311.174 194.063 311.412 192.965 311.417C191.662 311.43 190.377 311.106 189.236 310.476C188.01 309.798 186.983 308.811 186.256 307.613C185.974 307.157 185.755 306.665 185.604 306.15C185.438 305.62 185.468 305.047 185.686 304.536C186.2 303.651 186.975 302.946 187.904 302.518C188.303 302.294 188.682 302.037 189.037 301.749C189.366 301.453 189.663 301.124 189.923 300.767C190.188 300.411 190.482 300.078 190.802 299.771C191.132 299.478 191.528 299.268 191.956 299.16C193.165 298.775 194.472 298.841 195.636 299.345C196.53 299.697 197.318 300.274 197.923 301.021C198.308 301.492 198.637 302.006 198.905 302.552C199.008 302.739 199.088 302.937 199.145 303.143C198.749 302.432 198.289 301.759 197.772 301.131C197.165 300.429 196.39 299.893 195.519 299.572C194.41 299.109 193.172 299.063 192.031 299.441C191.652 299.541 191.303 299.732 191.015 299.998C190.712 300.295 190.434 300.616 190.184 300.959C189.914 301.335 189.605 301.683 189.264 301.996C188.893 302.298 188.498 302.569 188.083 302.806C187.221 303.203 186.502 303.855 186.023 304.674C185.618 305.539 186.071 306.562 186.579 307.42C187.271 308.568 188.251 309.515 189.422 310.167C190.504 310.758 191.718 311.065 192.951 311.06C194.007 311.061 195.05 310.841 196.015 310.414C196.981 309.987 197.845 309.363 198.554 308.581C199.097 307.979 199.472 307.245 199.639 306.452C199.747 305.849 199.731 305.23 199.591 304.633C199.378 303.678 199.131 303.163 199.131 303.149Z" fill="#455A64"/>
<path d="M193.638 295.781H193.796L194.27 295.747C194.871 295.713 195.474 295.713 196.076 295.747C197.041 295.767 197.995 295.963 198.891 296.324C200.084 296.847 201.056 297.773 201.638 298.94C202.301 300.338 202.737 301.833 202.929 303.369C203.095 304.213 203.189 305.07 203.21 305.93C203.229 306.876 202.932 307.802 202.365 308.56C201.742 309.307 201.052 309.996 200.305 310.62C199.562 311.285 198.775 311.899 197.95 312.46C196.228 313.704 194.207 314.47 192.093 314.678C191.029 314.784 189.955 314.67 188.937 314.344C187.919 314.018 186.978 313.487 186.174 312.783C185.445 312.072 184.87 311.219 184.485 310.277C184.116 309.388 183.824 308.469 183.613 307.53C183.116 305.808 183.076 303.986 183.496 302.243C183.939 300.745 184.779 299.395 185.927 298.336C186.868 297.465 187.975 296.793 189.181 296.358C190.085 296.033 191.027 295.826 191.983 295.74C192.797 295.65 193.619 295.669 194.428 295.795C194.428 295.795 194.208 295.795 193.796 295.795C193.195 295.785 192.594 295.815 191.997 295.884C191.056 295.999 190.134 296.23 189.25 296.571C188.081 297.013 187.01 297.68 186.098 298.535C184.999 299.576 184.198 300.892 183.777 302.346C183.386 304.038 183.44 305.803 183.935 307.468C184.382 309.233 184.972 311.169 186.414 312.536C187.184 313.204 188.083 313.708 189.054 314.017C190.026 314.325 191.051 314.431 192.065 314.328C194.118 314.123 196.081 313.382 197.758 312.179C198.569 311.626 199.344 311.023 200.079 310.373C200.802 309.774 201.47 309.112 202.077 308.395C202.611 307.699 202.892 306.842 202.874 305.964C202.859 305.121 202.774 304.28 202.62 303.451C202.441 301.943 202.029 300.472 201.397 299.091C200.855 297.966 199.937 297.065 198.802 296.543C197.928 296.18 197 295.969 196.055 295.919C195.279 295.864 194.682 295.87 194.256 295.87C194.048 295.855 193.842 295.825 193.638 295.781Z" fill="#455A64"/>
<path d="M334.783 304.234H334.446L333.471 304.282L329.715 304.44C326.447 304.557 321.722 304.729 315.886 304.852C310.049 304.976 303.079 305.024 295.361 304.777C291.495 304.646 287.444 304.44 283.255 304.09C279.067 303.74 274.734 303.266 270.312 302.751C261.46 301.694 253.021 300.691 245.31 300.423C238.479 300.16 231.638 300.424 224.847 301.213C220.272 301.759 215.733 302.585 211.258 303.685C209.672 304.09 208.45 304.413 207.626 304.66L206.685 304.921L206.355 304.997L206.671 304.887L207.605 304.591C208.422 304.324 209.665 303.98 211.224 303.554C215.692 302.394 220.231 301.529 224.813 300.966C231.614 300.135 238.47 299.844 245.317 300.094C253.056 300.334 261.502 301.337 270.353 302.394C274.775 302.909 279.094 303.403 283.283 303.767C287.471 304.131 291.523 304.33 295.368 304.454C303.086 304.722 310.042 304.687 315.879 304.605C321.715 304.523 326.44 304.385 329.708 304.303L333.471 304.221H334.446C334.559 304.218 334.671 304.222 334.783 304.234Z" fill="#263238"/>
<path d="M334.405 299.277C332.818 299.905 331.192 300.43 329.537 300.849C325.03 302.013 320.408 302.674 315.755 302.82C312.55 302.93 309.342 302.879 306.142 302.669C302.709 302.449 299.001 302.058 295.155 301.556C287.43 300.574 278.998 299.084 270.051 298.411C261.636 297.813 253.193 297.724 244.768 298.144C237.002 298.487 230.018 299.139 224.168 299.709C218.317 300.279 213.579 300.842 210.311 301.206L206.541 301.625L205.559 301.721C205.339 301.721 205.223 301.721 205.223 301.721L205.559 301.666L206.534 301.529L210.29 301.048C213.559 300.643 218.283 300.059 224.14 299.441C229.998 298.823 236.974 298.157 244.74 297.793C253.179 297.353 261.636 297.433 270.065 298.034C279.032 298.72 287.472 300.211 295.183 301.206C299.042 301.721 302.736 302.119 306.17 302.353C309.603 302.586 312.837 302.648 315.783 302.552C320.424 302.437 325.04 301.825 329.551 300.726C330.347 300.533 331.054 300.341 331.659 300.156C332.263 299.97 332.785 299.833 333.19 299.689L334.131 299.38L334.405 299.277Z" fill="#263238"/>
<path d="M255.205 309.322L254.848 309.425L253.791 309.693C252.864 309.927 251.483 310.229 249.671 310.579C244.615 311.522 239.487 312.03 234.344 312.096C232.717 312.096 231.014 312.096 229.235 312.014C228.35 311.966 227.443 311.925 226.523 311.849C225.572 311.827 224.627 311.691 223.708 311.444C223.225 311.299 222.774 311.066 222.376 310.757C222.159 310.602 221.977 310.402 221.844 310.171C221.71 309.941 221.627 309.684 221.6 309.418C221.584 309.147 221.629 308.875 221.733 308.623C221.836 308.371 221.995 308.145 222.197 307.963C222.599 307.611 223.065 307.34 223.57 307.166C225.58 306.545 227.619 306.027 229.682 305.614C238.857 303.727 248.296 303.494 257.553 304.928C258.783 305.099 259.991 305.34 261.207 305.573C262.452 305.764 263.613 306.318 264.544 307.166C264.987 307.639 265.253 308.25 265.299 308.897C265.33 309.53 265.185 310.16 264.88 310.716C264.578 311.251 264.169 311.719 263.679 312.09C263.189 312.444 262.65 312.724 262.079 312.92C260.961 313.267 259.81 313.497 258.645 313.607C257.505 313.751 256.379 313.916 255.26 314.033C253.021 314.294 250.824 314.493 248.682 314.658C241.075 315.199 233.44 315.178 225.836 314.596C220.715 314.199 215.618 313.538 210.565 312.618C208.773 312.296 207.392 312.007 206.445 311.801L205.381 311.568C205.14 311.513 205.017 311.472 205.017 311.472C205.017 311.472 205.147 311.472 205.387 311.533L206.459 311.733C207.399 311.918 208.78 312.179 210.579 312.481C214.163 313.085 219.368 313.854 225.85 314.342C233.439 314.897 241.058 314.897 248.647 314.342C250.79 314.177 252.98 313.971 255.212 313.71C256.331 313.587 257.457 313.422 258.59 313.278C259.733 313.167 260.861 312.937 261.955 312.591C263.057 312.264 263.991 311.527 264.564 310.531C264.843 310.035 264.976 309.471 264.949 308.903C264.9 308.336 264.657 307.803 264.262 307.393C263.377 306.6 262.279 306.084 261.104 305.91C259.909 305.676 258.7 305.436 257.478 305.264C248.261 303.849 238.866 304.081 229.73 305.951C227.684 306.356 225.66 306.865 223.666 307.475C223.206 307.632 222.781 307.88 222.417 308.203C222.247 308.353 222.113 308.54 222.025 308.749C221.937 308.959 221.897 309.185 221.909 309.412C221.937 309.636 222.012 309.853 222.131 310.046C222.249 310.239 222.408 310.404 222.595 310.531C222.967 310.81 223.386 311.022 223.831 311.156C224.728 311.395 225.65 311.528 226.578 311.554C227.498 311.63 228.398 311.684 229.283 311.733C231.055 311.815 232.751 311.842 234.378 311.836C239.507 311.802 244.625 311.342 249.677 310.462C251.463 310.139 252.85 309.851 253.797 309.645L254.855 309.412C254.97 309.376 255.087 309.346 255.205 309.322Z" fill="#263238"/>
<path d="M330.141 313.93H329.969L329.461 313.848L327.525 313.497C326.687 313.339 325.664 313.154 324.462 312.982C323.26 312.811 321.908 312.557 320.39 312.392L318.014 312.097C317.19 311.994 316.325 311.939 315.432 311.849C313.654 311.657 311.738 311.561 309.726 311.437C305.702 311.266 301.267 311.231 296.625 311.437C291.983 311.643 287.568 312.172 283.578 312.756C281.587 313.085 279.691 313.374 277.94 313.745C277.062 313.923 276.21 314.074 275.393 314.253L273.065 314.788C271.575 315.111 270.25 315.475 269.076 315.791C267.901 316.107 266.892 316.375 266.082 316.622L264.193 317.164L263.699 317.295L263.527 317.329C263.527 317.329 263.575 317.329 263.685 317.26L264.166 317.096L266.041 316.491C266.851 316.223 267.846 315.908 269.021 315.599C270.195 315.29 271.513 314.912 273.003 314.548L275.338 313.985C276.148 313.793 277 313.642 277.879 313.456C279.637 313.072 281.532 312.77 283.523 312.433C287.519 311.829 291.942 311.328 296.57 311.06C301.198 310.792 305.675 310.874 309.713 311.06C311.724 311.19 313.64 311.293 315.432 311.499C316.325 311.595 317.19 311.657 318.014 311.767L320.39 312.083C321.908 312.268 323.267 312.529 324.462 312.728C325.657 312.927 326.687 313.127 327.518 313.312L329.44 313.724L329.942 313.841L330.141 313.93Z" fill="#263238"/>
<path d="M326.564 293.158C326.457 293.227 326.341 293.282 326.221 293.323L325.218 293.728C324.779 293.907 324.236 294.106 323.598 294.312C322.959 294.518 322.224 294.772 321.428 294.999C320.631 295.225 319.725 295.466 318.757 295.685C317.788 295.905 316.745 296.084 315.646 296.269C313.251 296.622 310.836 296.815 308.415 296.846C305.997 296.846 303.581 296.683 301.185 296.358C300.079 296.187 299.036 296.036 298.067 295.816C297.099 295.596 296.2 295.397 295.382 295.177C294.565 294.958 293.844 294.731 293.206 294.539C292.567 294.346 292.018 294.147 291.585 293.976L290.569 293.584C290.451 293.54 290.336 293.487 290.226 293.426C290.353 293.439 290.478 293.469 290.596 293.516L291.626 293.845C292.073 293.996 292.615 294.175 293.261 294.346C293.906 294.518 294.634 294.758 295.444 294.937C296.255 295.115 297.154 295.349 298.122 295.521C299.09 295.692 300.134 295.871 301.226 296.036C305.998 296.67 310.834 296.64 315.598 295.946C316.69 295.768 317.733 295.617 318.695 295.397C319.656 295.177 320.549 294.985 321.359 294.779C322.169 294.573 322.897 294.346 323.543 294.161C324.188 293.976 324.724 293.797 325.17 293.639L326.193 293.296C326.31 293.232 326.434 293.186 326.564 293.158Z" fill="#263238"/>
<path d="M248.572 292.176C248.409 292.217 248.244 292.247 248.077 292.266L246.656 292.472C245.42 292.671 243.641 292.973 241.465 293.454L233.815 295.212C230.69 295.95 227.509 296.432 224.305 296.654C222.638 296.736 220.967 296.697 219.306 296.537C217.699 296.365 216.168 296.104 214.712 295.85C211.808 295.301 209.219 294.745 206.994 294.477C205.253 294.245 203.493 294.19 201.741 294.312C201.116 294.312 200.642 294.429 200.313 294.47C200.148 294.502 199.98 294.516 199.812 294.511C199.972 294.463 200.134 294.424 200.299 294.394C200.771 294.295 201.248 294.221 201.727 294.175C203.489 293.999 205.264 294.017 207.022 294.23C209.26 294.449 211.869 294.985 214.774 295.514C216.223 295.775 217.747 296.029 219.34 296.2C220.984 296.351 222.636 296.388 224.284 296.31C227.47 296.088 230.634 295.617 233.747 294.903C236.631 294.285 239.24 293.667 241.41 293.22C243.58 292.774 245.392 292.499 246.635 292.348C247.26 292.273 247.741 292.238 248.07 292.211C248.236 292.181 248.404 292.17 248.572 292.176Z" fill="#263238"/>
<path d="M305.483 292.183C305.663 292.157 305.844 292.146 306.026 292.149H307.598L313.359 292.094L321.915 292.053C322.747 292.025 323.58 292.055 324.408 292.142C325.272 292.252 326.122 292.445 326.949 292.719C328.681 293.319 330.279 294.252 331.652 295.466C333.002 296.619 334.094 298.045 334.855 299.649C335.616 301.254 336.029 303.001 336.068 304.777C336.058 307.685 335.114 310.513 333.376 312.845C332.716 313.731 331.956 314.538 331.11 315.248C330.467 315.768 329.777 316.228 329.05 316.622L328.226 317.02C327.985 317.116 327.773 317.185 327.601 317.247C327.434 317.321 327.259 317.376 327.079 317.411C327.24 317.321 327.408 317.243 327.58 317.178C327.738 317.109 327.951 317.034 328.185 316.924L328.981 316.498C329.692 316.089 330.365 315.618 330.993 315.09C331.813 314.374 332.55 313.568 333.19 312.687C334.859 310.387 335.756 307.618 335.752 304.777C335.704 303.05 335.295 301.353 334.551 299.794C333.807 298.235 332.745 296.849 331.433 295.726C330.097 294.536 328.541 293.62 326.852 293.028C326.049 292.755 325.221 292.561 324.38 292.451C323.569 292.365 322.752 292.333 321.936 292.355L313.38 292.314L307.612 292.259L306.04 292.224C305.853 292.231 305.667 292.217 305.483 292.183Z" fill="#006DF8" fill-opacity="0.31"/>
<path d="M300.717 292.335C299.784 295.397 298.767 297.409 296.021 299.05C293.274 300.691 286.545 303.349 283.455 304.173C270.243 307.702 260.657 308.87 247.013 307.943C233.369 307.016 218.654 300.65 207.825 292.307L300.717 292.335Z" fill="#006DF8" fill-opacity="0.31"/>
<path d="M231.893 304.687C231.223 304.358 230.71 303.778 230.464 303.074C230.165 302.345 229.971 301.577 229.888 300.794C229.795 299.866 229.622 298.947 229.373 298.047C228.86 296.421 227.962 294.942 226.756 293.735C225.829 292.815 225.115 292.396 225.15 292.362C225.338 292.413 225.515 292.499 225.671 292.616C226.121 292.895 226.544 293.214 226.935 293.57C228.23 294.764 229.189 296.277 229.716 297.958C229.971 298.883 230.136 299.831 230.21 300.787C230.279 301.546 230.443 302.294 230.698 303.012C230.971 303.65 231.378 304.222 231.893 304.687Z" fill="#EBEBEB"/>
<path d="M241.575 292.334C241.644 292.334 241.534 293.234 241.767 294.635C241.918 295.455 242.129 296.263 242.399 297.052C242.701 297.938 243.086 298.892 243.553 299.895C243.981 300.839 244.357 301.806 244.679 302.792C244.936 303.604 245.1 304.443 245.166 305.292C245.208 305.866 245.178 306.442 245.077 307.009C245.058 307.221 244.995 307.427 244.892 307.613C244.96 306.85 244.96 306.082 244.892 305.319C244.794 304.492 244.61 303.677 244.342 302.889C244.054 301.996 243.656 301.041 243.202 300.039C242.773 299.098 242.392 298.135 242.062 297.155C241.802 296.345 241.613 295.513 241.499 294.669C241.421 294.1 241.405 293.525 241.451 292.952C241.459 292.741 241.501 292.533 241.575 292.334Z" fill="#EBEBEB"/>
<path d="M260.479 308.087C260.726 307.311 260.865 306.504 260.891 305.69C260.891 304.813 260.761 303.941 260.506 303.101C260.187 302.067 259.766 301.066 259.25 300.114C258.257 298.389 257.361 296.61 256.565 294.786C256.359 294.211 256.237 293.61 256.201 293.001C256.165 292.773 256.165 292.541 256.201 292.314C256.311 293.119 256.504 293.911 256.778 294.676C257.355 296.049 258.453 297.869 259.524 299.929C260.051 300.902 260.473 301.929 260.781 302.992C261.029 303.866 261.138 304.775 261.104 305.683C261.076 306.293 260.956 306.895 260.747 307.469C260.695 307.689 260.604 307.898 260.479 308.087Z" fill="#EBEBEB"/>
<path d="M274.219 292.334C274.186 292.535 274.131 292.73 274.054 292.918C273.906 293.44 273.869 293.988 273.945 294.525C274.085 295.326 274.284 296.116 274.542 296.887C274.869 297.852 275.065 298.857 275.126 299.874C275.18 301.748 274.647 303.592 273.601 305.148C273.286 305.611 272.922 306.039 272.516 306.425C272.372 306.573 272.208 306.7 272.029 306.803C271.981 306.754 272.654 306.185 273.402 305.01C274.348 303.473 274.826 301.693 274.775 299.888C274.713 298.899 274.53 297.921 274.233 296.976C273.981 296.184 273.802 295.37 273.697 294.546C273.643 293.979 273.723 293.407 273.931 292.877C273.989 292.678 274.087 292.494 274.219 292.334Z" fill="#EBEBEB"/>
<path d="M286.394 303.417C286.339 303.417 286.703 302.834 286.991 301.831C287.369 300.528 287.369 299.144 286.991 297.842C286.531 296.331 285.7 295.095 285.391 294.044C285.164 293.505 285.079 292.916 285.144 292.334C285.206 292.334 285.233 292.987 285.632 293.955C286.03 294.923 286.84 296.145 287.335 297.739C287.737 299.105 287.698 300.563 287.225 301.907C287.067 302.467 286.783 302.984 286.394 303.417Z" fill="#EBEBEB"/>
<path d="M295.636 299.002C295.405 299.125 295.164 299.226 294.915 299.304C294.203 299.535 293.465 299.671 292.717 299.709C291.536 299.759 290.353 299.664 289.195 299.428C287.672 299.128 286.126 298.959 284.574 298.92C282.857 298.844 280.941 298.769 278.929 298.576C276.78 298.46 274.625 298.691 272.55 299.263C270.346 299.826 268.107 300.698 265.745 301.495C263.317 302.372 260.797 302.969 258.233 303.273C255.663 303.524 253.075 303.511 250.508 303.232C248.022 302.95 245.646 302.545 243.408 302.12C238.917 301.241 234.886 300.382 231.453 300.005C228.749 299.662 226.016 299.618 223.302 299.874C222.876 299.905 222.452 299.96 222.032 300.039L221.105 300.19L220.535 300.279C220.469 300.288 220.402 300.288 220.336 300.279C220.397 300.251 220.462 300.232 220.528 300.224L221.091 300.101L222.018 299.915C222.437 299.82 222.861 299.751 223.289 299.709C226.01 299.393 228.759 299.393 231.481 299.709C234.914 300.053 238.979 300.89 243.463 301.769C245.708 302.202 248.077 302.58 250.542 302.854C253.084 303.127 255.648 303.139 258.192 302.889C260.731 302.587 263.228 302 265.635 301.138C267.991 300.341 270.236 299.476 272.468 298.913C274.579 298.349 276.768 298.129 278.95 298.26C281.01 298.473 282.857 298.556 284.587 298.659C286.148 298.711 287.701 298.899 289.229 299.222C290.373 299.47 291.541 299.583 292.711 299.558C293.449 299.531 294.182 299.418 294.894 299.222C295.382 299.098 295.629 298.982 295.636 299.002Z" fill="#EBEBEB"/>
<path d="M299.853 294.216C299.783 294.25 299.709 294.275 299.633 294.291L298.994 294.484L298.521 294.628L297.93 294.745L297.243 294.875C296.996 294.916 296.728 294.937 296.454 294.971C294.222 295.267 290.96 295.033 287.019 294.285C285.048 293.928 282.899 293.481 280.585 293.145C278.116 292.788 275.616 292.701 273.128 292.884C267.861 293.213 262.203 294.697 256.098 295.232C253.125 295.469 250.135 295.418 247.172 295.081C244.301 294.8 241.555 294.394 238.932 294.085C234.293 293.491 229.605 293.386 224.944 293.77C220.962 294.092 217.762 294.58 215.551 294.896L213.003 295.266L212.316 295.356C212.241 295.365 212.165 295.365 212.09 295.356C212.163 295.328 212.239 295.309 212.316 295.301L212.969 295.177L215.509 294.738C217.714 294.381 220.914 293.852 224.903 293.502C229.581 293.076 234.291 293.154 238.952 293.735C244.198 294.312 249.939 295.397 256.043 294.854C262.148 294.312 267.772 292.849 273.08 292.534C275.589 292.358 278.11 292.457 280.599 292.829C282.926 293.179 285.069 293.646 287.033 294.01C290.954 294.786 294.195 295.06 296.413 294.806C296.687 294.806 296.948 294.758 297.195 294.724L297.882 294.607L298.473 294.511L298.946 294.388L299.633 294.23C299.705 294.216 299.779 294.211 299.853 294.216Z" fill="#EBEBEB"/>
<g opacity="0.4">
<path d="M208.883 292.335C214.76 294.816 220.835 296.799 227.045 298.26C233.115 299.634 239.542 299.867 245.475 298.02C248.847 296.97 252.012 295.273 255.473 294.587C259.655 293.797 263.953 294.587 268.108 295.493C273.601 296.667 279.129 298 284.691 297.471C290.253 296.942 297.442 297.361 299.852 292.314L208.883 292.335Z" fill="black"/>
</g>
</svg>
